%TF.GenerationSoftware,KiCad,Pcbnew,7.0.2-6a45011f42~172~ubuntu22.04.1*%
%TF.CreationDate,2023-07-04T10:01:33-03:00*%
%TF.ProjectId,TMP117_custom_board_panelize,544d5031-3137-45f6-9375-73746f6d5f62,rev?*%
%TF.SameCoordinates,Original*%
%TF.FileFunction,Soldermask,Bot*%
%TF.FilePolarity,Negative*%
%FSLAX46Y46*%
G04 Gerber Fmt 4.6, Leading zero omitted, Abs format (unit mm)*
G04 Created by KiCad (PCBNEW 7.0.2-6a45011f42~172~ubuntu22.04.1) date 2023-07-04 10:01:33*
%MOMM*%
%LPD*%
G01*
G04 APERTURE LIST*
G04 Aperture macros list*
%AMFreePoly0*
4,1,19,0.550000,-0.750000,0.000000,-0.750000,0.000000,-0.744911,-0.071157,-0.744911,-0.207708,-0.704816,-0.327430,-0.627875,-0.420627,-0.520320,-0.479746,-0.390866,-0.500000,-0.250000,-0.500000,0.250000,-0.479746,0.390866,-0.420627,0.520320,-0.327430,0.627875,-0.207708,0.704816,-0.071157,0.744911,0.000000,0.744911,0.000000,0.750000,0.550000,0.750000,0.550000,-0.750000,0.550000,-0.750000,
$1*%
%AMFreePoly1*
4,1,19,0.000000,0.744911,0.071157,0.744911,0.207708,0.704816,0.327430,0.627875,0.420627,0.520320,0.479746,0.390866,0.500000,0.250000,0.500000,-0.250000,0.479746,-0.390866,0.420627,-0.520320,0.327430,-0.627875,0.207708,-0.704816,0.071157,-0.744911,0.000000,-0.744911,0.000000,-0.750000,-0.550000,-0.750000,-0.550000,0.750000,0.000000,0.750000,0.000000,0.744911,0.000000,0.744911,
$1*%
%AMFreePoly2*
4,1,19,0.500000,-0.750000,0.000000,-0.750000,0.000000,-0.744911,-0.071157,-0.744911,-0.207708,-0.704816,-0.327430,-0.627875,-0.420627,-0.520320,-0.479746,-0.390866,-0.500000,-0.250000,-0.500000,0.250000,-0.479746,0.390866,-0.420627,0.520320,-0.327430,0.627875,-0.207708,0.704816,-0.071157,0.744911,0.000000,0.744911,0.000000,0.750000,0.500000,0.750000,0.500000,-0.750000,0.500000,-0.750000,
$1*%
%AMFreePoly3*
4,1,19,0.000000,0.744911,0.071157,0.744911,0.207708,0.704816,0.327430,0.627875,0.420627,0.520320,0.479746,0.390866,0.500000,0.250000,0.500000,-0.250000,0.479746,-0.390866,0.420627,-0.520320,0.327430,-0.627875,0.207708,-0.704816,0.071157,-0.744911,0.000000,-0.744911,0.000000,-0.750000,-0.500000,-0.750000,-0.500000,0.750000,0.000000,0.750000,0.000000,0.744911,0.000000,0.744911,
$1*%
G04 Aperture macros list end*
%ADD10FreePoly0,270.000000*%
%ADD11R,1.500000X1.000000*%
%ADD12FreePoly1,270.000000*%
%ADD13FreePoly2,90.000000*%
%ADD14FreePoly3,90.000000*%
%ADD15FreePoly0,90.000000*%
%ADD16FreePoly1,90.000000*%
%ADD17R,1.700000X1.700000*%
%ADD18O,1.700000X1.700000*%
G04 APERTURE END LIST*
D10*
%TO.C,PU1*%
X127921500Y-55772000D03*
D11*
X127921500Y-57072000D03*
D12*
X127921500Y-58372000D03*
%TD*%
D13*
%TO.C,LED1*%
X130664000Y-58372000D03*
D14*
X130664000Y-57072000D03*
%TD*%
D15*
%TO.C,AD1*%
X142264000Y-36468000D03*
D11*
X142264000Y-35168000D03*
D16*
X142264000Y-33868000D03*
%TD*%
D15*
%TO.C,AD1*%
X142264000Y-58172000D03*
D11*
X142264000Y-56872000D03*
D16*
X142264000Y-55572000D03*
%TD*%
D10*
%TO.C,PU1*%
X127921500Y-34068000D03*
D11*
X127921500Y-35368000D03*
D12*
X127921500Y-36668000D03*
%TD*%
D13*
%TO.C,LED1*%
X155048000Y-36668000D03*
D14*
X155048000Y-35368000D03*
%TD*%
D15*
%TO.C,AD2*%
X145106500Y-36468000D03*
D11*
X145106500Y-35168000D03*
D16*
X145106500Y-33868000D03*
%TD*%
D13*
%TO.C,LED1*%
X130664000Y-36668000D03*
D14*
X130664000Y-35368000D03*
%TD*%
D15*
%TO.C,AD1*%
X166648000Y-36468000D03*
D11*
X166648000Y-35168000D03*
D16*
X166648000Y-33868000D03*
%TD*%
D15*
%TO.C,AD1*%
X166648000Y-58172000D03*
D11*
X166648000Y-56872000D03*
D16*
X166648000Y-55572000D03*
%TD*%
D15*
%TO.C,AD2*%
X169490500Y-58172000D03*
D11*
X169490500Y-56872000D03*
D16*
X169490500Y-55572000D03*
%TD*%
D10*
%TO.C,PU1*%
X152305500Y-55772000D03*
D11*
X152305500Y-57072000D03*
D12*
X152305500Y-58372000D03*
%TD*%
D15*
%TO.C,AD2*%
X169490500Y-36468000D03*
D11*
X169490500Y-35168000D03*
D16*
X169490500Y-33868000D03*
%TD*%
D10*
%TO.C,PU1*%
X152305500Y-34068000D03*
D11*
X152305500Y-35368000D03*
D12*
X152305500Y-36668000D03*
%TD*%
D13*
%TO.C,LED1*%
X155048000Y-58372000D03*
D14*
X155048000Y-57072000D03*
%TD*%
D15*
%TO.C,AD2*%
X145106500Y-58172000D03*
D11*
X145106500Y-56872000D03*
D16*
X145106500Y-55572000D03*
%TD*%
D17*
%TO.C,J1*%
X129958000Y-43764000D03*
D18*
X132498000Y-43764000D03*
X135038000Y-43764000D03*
X137578000Y-43764000D03*
X140118000Y-43764000D03*
X142658000Y-43764000D03*
%TD*%
D17*
%TO.C,J1*%
X154342000Y-43764000D03*
D18*
X156882000Y-43764000D03*
X159422000Y-43764000D03*
X161962000Y-43764000D03*
X164502000Y-43764000D03*
X167042000Y-43764000D03*
%TD*%
D17*
%TO.C,J1*%
X129958000Y-65468000D03*
D18*
X132498000Y-65468000D03*
X135038000Y-65468000D03*
X137578000Y-65468000D03*
X140118000Y-65468000D03*
X142658000Y-65468000D03*
%TD*%
D17*
%TO.C,J1*%
X154342000Y-65468000D03*
D18*
X156882000Y-65468000D03*
X159422000Y-65468000D03*
X161962000Y-65468000D03*
X164502000Y-65468000D03*
X167042000Y-65468000D03*
%TD*%
M02*
