M48
; DRILL file {KiCad 7.0.2-6a45011f42~172~ubuntu22.04.1} date ter 04 jul 2023 10:01:24
; FORMAT={-:-/ absolute / inch / decimal}
; #@! TF.CreationDate,2023-07-04T10:01:24-03:00
; #@! TF.GenerationSoftware,Kicad,Pcbnew,7.0.2-6a45011f42~172~ubuntu22.04.1
; #@! TF.FileFunction,Plated,1,2,PTH
FMAT,2
INCH
; #@! TA.AperFunction,Plated,PTH,ViaDrill
T1C0.0157
; #@! TA.AperFunction,Plated,PTH,ComponentDrill
T2C0.0394
%
G90
G05
T1
X4.9907Y-1.483
X4.9907Y-2.3375
X5.0931Y-1.2861
X5.0931Y-2.1406
X5.1369Y-1.2861
X5.1369Y-2.1406
X5.1403Y-1.5735
X5.1403Y-2.428
X5.2155Y-1.3135
X5.2155Y-2.168
X5.2285Y-1.4745
X5.2285Y-2.329
X5.2298Y-1.4328
X5.2298Y-2.2873
X5.2589Y-1.5509
X5.2589Y-2.4054
X5.2651Y-1.5897
X5.2651Y-2.4442
X5.2754Y-1.4938
X5.2754Y-2.3483
X5.3421Y-1.4845
X5.3421Y-2.339
X5.3835Y-1.4835
X5.3835Y-2.338
X5.4665Y-1.7945
X5.4665Y-2.649
X5.4745Y-1.5755
X5.4745Y-2.43
X5.4769Y-1.5105
X5.4769Y-2.365
X5.503Y-1.5415
X5.503Y-2.396
X5.5035Y-1.3995
X5.5035Y-2.254
X5.5663Y-1.6545
X5.5663Y-2.509
X5.6415Y-1.6365
X5.6415Y-2.491
X5.6561Y-1.3058
X5.6561Y-1.4751
X5.6561Y-2.1603
X5.6561Y-2.3296
X5.9507Y-1.483
X5.9507Y-2.3375
X6.0531Y-1.2861
X6.0531Y-2.1406
X6.0969Y-1.2861
X6.0969Y-2.1406
X6.1003Y-1.5735
X6.1003Y-2.428
X6.1755Y-1.3135
X6.1755Y-2.168
X6.1885Y-1.4745
X6.1885Y-2.329
X6.1898Y-1.4328
X6.1898Y-2.2873
X6.2189Y-1.5509
X6.2189Y-2.4054
X6.2251Y-1.5897
X6.2251Y-2.4442
X6.2354Y-1.4938
X6.2354Y-2.3483
X6.3021Y-1.4845
X6.3021Y-2.339
X6.3435Y-1.4835
X6.3435Y-2.338
X6.4265Y-1.7945
X6.4265Y-2.649
X6.4345Y-1.5755
X6.4345Y-2.43
X6.4369Y-1.5105
X6.4369Y-2.365
X6.463Y-1.5415
X6.463Y-2.396
X6.4635Y-1.3995
X6.4635Y-2.254
X6.5263Y-1.6545
X6.5263Y-2.509
X6.6015Y-1.6365
X6.6015Y-2.491
X6.6161Y-1.3058
X6.6161Y-1.4751
X6.6161Y-2.1603
X6.6161Y-2.3296
T2
X5.1165Y-1.723
X5.1165Y-2.5775
X5.2165Y-1.723
X5.2165Y-2.5775
X5.3165Y-1.723
X5.3165Y-2.5775
X5.4165Y-1.723
X5.4165Y-2.5775
X5.5165Y-1.723
X5.5165Y-2.5775
X5.6165Y-1.723
X5.6165Y-2.5775
X6.0765Y-1.723
X6.0765Y-2.5775
X6.1765Y-1.723
X6.1765Y-2.5775
X6.2765Y-1.723
X6.2765Y-2.5775
X6.3765Y-1.723
X6.3765Y-2.5775
X6.4765Y-1.723
X6.4765Y-2.5775
X6.5765Y-1.723
X6.5765Y-2.5775
T0
M30
