%TF.GenerationSoftware,KiCad,Pcbnew,7.0.2-6a45011f42~172~ubuntu22.04.1*%
%TF.CreationDate,2023-07-04T10:01:32-03:00*%
%TF.ProjectId,TMP117_custom_board_panelize,544d5031-3137-45f6-9375-73746f6d5f62,rev?*%
%TF.SameCoordinates,Original*%
%TF.FileFunction,Legend,Bot*%
%TF.FilePolarity,Positive*%
%FSLAX46Y46*%
G04 Gerber Fmt 4.6, Leading zero omitted, Abs format (unit mm)*
G04 Created by KiCad (PCBNEW 7.0.2-6a45011f42~172~ubuntu22.04.1) date 2023-07-04 10:01:32*
%MOMM*%
%LPD*%
G01*
G04 APERTURE LIST*
%ADD10C,0.153000*%
%ADD11C,0.419643*%
%ADD12C,0.150000*%
%ADD13C,0.120000*%
G04 APERTURE END LIST*
D10*
X132244095Y-67606038D02*
X132339333Y-67558419D01*
X132339333Y-67558419D02*
X132482190Y-67558419D01*
X132482190Y-67558419D02*
X132625047Y-67606038D01*
X132625047Y-67606038D02*
X132720285Y-67701276D01*
X132720285Y-67701276D02*
X132767904Y-67796514D01*
X132767904Y-67796514D02*
X132815523Y-67986990D01*
X132815523Y-67986990D02*
X132815523Y-68129847D01*
X132815523Y-68129847D02*
X132767904Y-68320323D01*
X132767904Y-68320323D02*
X132720285Y-68415561D01*
X132720285Y-68415561D02*
X132625047Y-68510800D01*
X132625047Y-68510800D02*
X132482190Y-68558419D01*
X132482190Y-68558419D02*
X132386952Y-68558419D01*
X132386952Y-68558419D02*
X132244095Y-68510800D01*
X132244095Y-68510800D02*
X132196476Y-68463180D01*
X132196476Y-68463180D02*
X132196476Y-68129847D01*
X132196476Y-68129847D02*
X132386952Y-68129847D01*
X167715123Y-46619504D02*
X167238933Y-46619504D01*
X167810361Y-46905219D02*
X167477028Y-45905219D01*
X167477028Y-45905219D02*
X167143695Y-46905219D01*
X166810361Y-46905219D02*
X166810361Y-45905219D01*
X166810361Y-45905219D02*
X166572266Y-45905219D01*
X166572266Y-45905219D02*
X166429409Y-45952838D01*
X166429409Y-45952838D02*
X166334171Y-46048076D01*
X166334171Y-46048076D02*
X166286552Y-46143314D01*
X166286552Y-46143314D02*
X166238933Y-46333790D01*
X166238933Y-46333790D02*
X166238933Y-46476647D01*
X166238933Y-46476647D02*
X166286552Y-46667123D01*
X166286552Y-46667123D02*
X166334171Y-46762361D01*
X166334171Y-46762361D02*
X166429409Y-46857600D01*
X166429409Y-46857600D02*
X166572266Y-46905219D01*
X166572266Y-46905219D02*
X166810361Y-46905219D01*
X153138475Y-54649619D02*
X153138475Y-53649619D01*
X152709904Y-53744857D02*
X152662285Y-53697238D01*
X152662285Y-53697238D02*
X152567047Y-53649619D01*
X152567047Y-53649619D02*
X152328952Y-53649619D01*
X152328952Y-53649619D02*
X152233714Y-53697238D01*
X152233714Y-53697238D02*
X152186095Y-53744857D01*
X152186095Y-53744857D02*
X152138476Y-53840095D01*
X152138476Y-53840095D02*
X152138476Y-53935333D01*
X152138476Y-53935333D02*
X152186095Y-54078190D01*
X152186095Y-54078190D02*
X152757523Y-54649619D01*
X152757523Y-54649619D02*
X152138476Y-54649619D01*
X151138476Y-54554380D02*
X151186095Y-54602000D01*
X151186095Y-54602000D02*
X151328952Y-54649619D01*
X151328952Y-54649619D02*
X151424190Y-54649619D01*
X151424190Y-54649619D02*
X151567047Y-54602000D01*
X151567047Y-54602000D02*
X151662285Y-54506761D01*
X151662285Y-54506761D02*
X151709904Y-54411523D01*
X151709904Y-54411523D02*
X151757523Y-54221047D01*
X151757523Y-54221047D02*
X151757523Y-54078190D01*
X151757523Y-54078190D02*
X151709904Y-53887714D01*
X151709904Y-53887714D02*
X151662285Y-53792476D01*
X151662285Y-53792476D02*
X151567047Y-53697238D01*
X151567047Y-53697238D02*
X151424190Y-53649619D01*
X151424190Y-53649619D02*
X151328952Y-53649619D01*
X151328952Y-53649619D02*
X151186095Y-53697238D01*
X151186095Y-53697238D02*
X151138476Y-53744857D01*
X170290857Y-53782952D02*
X170290857Y-54449619D01*
X170528952Y-53402000D02*
X170767047Y-54116285D01*
X170767047Y-54116285D02*
X170148000Y-54116285D01*
X169719428Y-54449619D02*
X169528952Y-54449619D01*
X169528952Y-54449619D02*
X169433714Y-54402000D01*
X169433714Y-54402000D02*
X169386095Y-54354380D01*
X169386095Y-54354380D02*
X169290857Y-54211523D01*
X169290857Y-54211523D02*
X169243238Y-54021047D01*
X169243238Y-54021047D02*
X169243238Y-53640095D01*
X169243238Y-53640095D02*
X169290857Y-53544857D01*
X169290857Y-53544857D02*
X169338476Y-53497238D01*
X169338476Y-53497238D02*
X169433714Y-53449619D01*
X169433714Y-53449619D02*
X169624190Y-53449619D01*
X169624190Y-53449619D02*
X169719428Y-53497238D01*
X169719428Y-53497238D02*
X169767047Y-53544857D01*
X169767047Y-53544857D02*
X169814666Y-53640095D01*
X169814666Y-53640095D02*
X169814666Y-53878190D01*
X169814666Y-53878190D02*
X169767047Y-53973428D01*
X169767047Y-53973428D02*
X169719428Y-54021047D01*
X169719428Y-54021047D02*
X169624190Y-54068666D01*
X169624190Y-54068666D02*
X169433714Y-54068666D01*
X169433714Y-54068666D02*
X169338476Y-54021047D01*
X169338476Y-54021047D02*
X169290857Y-53973428D01*
X169290857Y-53973428D02*
X169243238Y-53878190D01*
X168814666Y-54449619D02*
X168814666Y-53449619D01*
X168386095Y-54449619D02*
X168386095Y-53925809D01*
X168386095Y-53925809D02*
X168433714Y-53830571D01*
X168433714Y-53830571D02*
X168528952Y-53782952D01*
X168528952Y-53782952D02*
X168671809Y-53782952D01*
X168671809Y-53782952D02*
X168767047Y-53830571D01*
X168767047Y-53830571D02*
X168814666Y-53878190D01*
X167281333Y-32078952D02*
X167281333Y-32745619D01*
X167519428Y-31698000D02*
X167757523Y-32412285D01*
X167757523Y-32412285D02*
X167138476Y-32412285D01*
X166805142Y-32459904D02*
X166328952Y-32459904D01*
X166900380Y-32745619D02*
X166567047Y-31745619D01*
X166567047Y-31745619D02*
X166233714Y-32745619D01*
X165900380Y-32745619D02*
X165900380Y-31745619D01*
X165471809Y-32745619D02*
X165471809Y-32221809D01*
X165471809Y-32221809D02*
X165519428Y-32126571D01*
X165519428Y-32126571D02*
X165614666Y-32078952D01*
X165614666Y-32078952D02*
X165757523Y-32078952D01*
X165757523Y-32078952D02*
X165852761Y-32126571D01*
X165852761Y-32126571D02*
X165900380Y-32174190D01*
X153138475Y-32945619D02*
X153138475Y-31945619D01*
X152709904Y-32040857D02*
X152662285Y-31993238D01*
X152662285Y-31993238D02*
X152567047Y-31945619D01*
X152567047Y-31945619D02*
X152328952Y-31945619D01*
X152328952Y-31945619D02*
X152233714Y-31993238D01*
X152233714Y-31993238D02*
X152186095Y-32040857D01*
X152186095Y-32040857D02*
X152138476Y-32136095D01*
X152138476Y-32136095D02*
X152138476Y-32231333D01*
X152138476Y-32231333D02*
X152186095Y-32374190D01*
X152186095Y-32374190D02*
X152757523Y-32945619D01*
X152757523Y-32945619D02*
X152138476Y-32945619D01*
X151138476Y-32850380D02*
X151186095Y-32898000D01*
X151186095Y-32898000D02*
X151328952Y-32945619D01*
X151328952Y-32945619D02*
X151424190Y-32945619D01*
X151424190Y-32945619D02*
X151567047Y-32898000D01*
X151567047Y-32898000D02*
X151662285Y-32802761D01*
X151662285Y-32802761D02*
X151709904Y-32707523D01*
X151709904Y-32707523D02*
X151757523Y-32517047D01*
X151757523Y-32517047D02*
X151757523Y-32374190D01*
X151757523Y-32374190D02*
X151709904Y-32183714D01*
X151709904Y-32183714D02*
X151662285Y-32088476D01*
X151662285Y-32088476D02*
X151567047Y-31993238D01*
X151567047Y-31993238D02*
X151424190Y-31945619D01*
X151424190Y-31945619D02*
X151328952Y-31945619D01*
X151328952Y-31945619D02*
X151186095Y-31993238D01*
X151186095Y-31993238D02*
X151138476Y-32040857D01*
X140378361Y-45905219D02*
X140045028Y-46905219D01*
X140045028Y-46905219D02*
X139711695Y-45905219D01*
X154761123Y-68298104D02*
X154284933Y-68298104D01*
X154856361Y-68583819D02*
X154523028Y-67583819D01*
X154523028Y-67583819D02*
X154189695Y-68583819D01*
X153380171Y-68583819D02*
X153856361Y-68583819D01*
X153856361Y-68583819D02*
X153856361Y-67583819D01*
X143006857Y-37878952D02*
X143006857Y-38545619D01*
X143244952Y-37498000D02*
X143483047Y-38212285D01*
X143483047Y-38212285D02*
X142864000Y-38212285D01*
X142340190Y-37974190D02*
X142435428Y-37926571D01*
X142435428Y-37926571D02*
X142483047Y-37878952D01*
X142483047Y-37878952D02*
X142530666Y-37783714D01*
X142530666Y-37783714D02*
X142530666Y-37736095D01*
X142530666Y-37736095D02*
X142483047Y-37640857D01*
X142483047Y-37640857D02*
X142435428Y-37593238D01*
X142435428Y-37593238D02*
X142340190Y-37545619D01*
X142340190Y-37545619D02*
X142149714Y-37545619D01*
X142149714Y-37545619D02*
X142054476Y-37593238D01*
X142054476Y-37593238D02*
X142006857Y-37640857D01*
X142006857Y-37640857D02*
X141959238Y-37736095D01*
X141959238Y-37736095D02*
X141959238Y-37783714D01*
X141959238Y-37783714D02*
X142006857Y-37878952D01*
X142006857Y-37878952D02*
X142054476Y-37926571D01*
X142054476Y-37926571D02*
X142149714Y-37974190D01*
X142149714Y-37974190D02*
X142340190Y-37974190D01*
X142340190Y-37974190D02*
X142435428Y-38021809D01*
X142435428Y-38021809D02*
X142483047Y-38069428D01*
X142483047Y-38069428D02*
X142530666Y-38164666D01*
X142530666Y-38164666D02*
X142530666Y-38355142D01*
X142530666Y-38355142D02*
X142483047Y-38450380D01*
X142483047Y-38450380D02*
X142435428Y-38498000D01*
X142435428Y-38498000D02*
X142340190Y-38545619D01*
X142340190Y-38545619D02*
X142149714Y-38545619D01*
X142149714Y-38545619D02*
X142054476Y-38498000D01*
X142054476Y-38498000D02*
X142006857Y-38450380D01*
X142006857Y-38450380D02*
X141959238Y-38355142D01*
X141959238Y-38355142D02*
X141959238Y-38164666D01*
X141959238Y-38164666D02*
X142006857Y-38069428D01*
X142006857Y-38069428D02*
X142054476Y-38021809D01*
X142054476Y-38021809D02*
X142149714Y-37974190D01*
X141530666Y-38545619D02*
X141530666Y-37545619D01*
X141102095Y-38545619D02*
X141102095Y-38021809D01*
X141102095Y-38021809D02*
X141149714Y-37926571D01*
X141149714Y-37926571D02*
X141244952Y-37878952D01*
X141244952Y-37878952D02*
X141387809Y-37878952D01*
X141387809Y-37878952D02*
X141483047Y-37926571D01*
X141483047Y-37926571D02*
X141530666Y-37974190D01*
X164762361Y-67609219D02*
X164429028Y-68609219D01*
X164429028Y-68609219D02*
X164095695Y-67609219D01*
X160695228Y-31376419D02*
X160599990Y-31376419D01*
X160599990Y-31376419D02*
X160504752Y-31424038D01*
X160504752Y-31424038D02*
X160457133Y-31471657D01*
X160457133Y-31471657D02*
X160409514Y-31566895D01*
X160409514Y-31566895D02*
X160361895Y-31757371D01*
X160361895Y-31757371D02*
X160361895Y-31995466D01*
X160361895Y-31995466D02*
X160409514Y-32185942D01*
X160409514Y-32185942D02*
X160457133Y-32281180D01*
X160457133Y-32281180D02*
X160504752Y-32328800D01*
X160504752Y-32328800D02*
X160599990Y-32376419D01*
X160599990Y-32376419D02*
X160695228Y-32376419D01*
X160695228Y-32376419D02*
X160790466Y-32328800D01*
X160790466Y-32328800D02*
X160838085Y-32281180D01*
X160838085Y-32281180D02*
X160885704Y-32185942D01*
X160885704Y-32185942D02*
X160933323Y-31995466D01*
X160933323Y-31995466D02*
X160933323Y-31757371D01*
X160933323Y-31757371D02*
X160885704Y-31566895D01*
X160885704Y-31566895D02*
X160838085Y-31471657D01*
X160838085Y-31471657D02*
X160790466Y-31424038D01*
X160790466Y-31424038D02*
X160695228Y-31376419D01*
X159933323Y-32281180D02*
X159885704Y-32328800D01*
X159885704Y-32328800D02*
X159933323Y-32376419D01*
X159933323Y-32376419D02*
X159980942Y-32328800D01*
X159980942Y-32328800D02*
X159933323Y-32281180D01*
X159933323Y-32281180D02*
X159933323Y-32376419D01*
X159552371Y-31376419D02*
X158933324Y-31376419D01*
X158933324Y-31376419D02*
X159266657Y-31757371D01*
X159266657Y-31757371D02*
X159123800Y-31757371D01*
X159123800Y-31757371D02*
X159028562Y-31804990D01*
X159028562Y-31804990D02*
X158980943Y-31852609D01*
X158980943Y-31852609D02*
X158933324Y-31947847D01*
X158933324Y-31947847D02*
X158933324Y-32185942D01*
X158933324Y-32185942D02*
X158980943Y-32281180D01*
X158980943Y-32281180D02*
X159028562Y-32328800D01*
X159028562Y-32328800D02*
X159123800Y-32376419D01*
X159123800Y-32376419D02*
X159409514Y-32376419D01*
X159409514Y-32376419D02*
X159504752Y-32328800D01*
X159504752Y-32328800D02*
X159552371Y-32281180D01*
X159222076Y-68463180D02*
X159269695Y-68510800D01*
X159269695Y-68510800D02*
X159412552Y-68558419D01*
X159412552Y-68558419D02*
X159507790Y-68558419D01*
X159507790Y-68558419D02*
X159650647Y-68510800D01*
X159650647Y-68510800D02*
X159745885Y-68415561D01*
X159745885Y-68415561D02*
X159793504Y-68320323D01*
X159793504Y-68320323D02*
X159841123Y-68129847D01*
X159841123Y-68129847D02*
X159841123Y-67986990D01*
X159841123Y-67986990D02*
X159793504Y-67796514D01*
X159793504Y-67796514D02*
X159745885Y-67701276D01*
X159745885Y-67701276D02*
X159650647Y-67606038D01*
X159650647Y-67606038D02*
X159507790Y-67558419D01*
X159507790Y-67558419D02*
X159412552Y-67558419D01*
X159412552Y-67558419D02*
X159269695Y-67606038D01*
X159269695Y-67606038D02*
X159222076Y-67653657D01*
X134838076Y-68463180D02*
X134885695Y-68510800D01*
X134885695Y-68510800D02*
X135028552Y-68558419D01*
X135028552Y-68558419D02*
X135123790Y-68558419D01*
X135123790Y-68558419D02*
X135266647Y-68510800D01*
X135266647Y-68510800D02*
X135361885Y-68415561D01*
X135361885Y-68415561D02*
X135409504Y-68320323D01*
X135409504Y-68320323D02*
X135457123Y-68129847D01*
X135457123Y-68129847D02*
X135457123Y-67986990D01*
X135457123Y-67986990D02*
X135409504Y-67796514D01*
X135409504Y-67796514D02*
X135361885Y-67701276D01*
X135361885Y-67701276D02*
X135266647Y-67606038D01*
X135266647Y-67606038D02*
X135123790Y-67558419D01*
X135123790Y-67558419D02*
X135028552Y-67558419D01*
X135028552Y-67558419D02*
X134885695Y-67606038D01*
X134885695Y-67606038D02*
X134838076Y-67653657D01*
X167390857Y-37878952D02*
X167390857Y-38545619D01*
X167628952Y-37498000D02*
X167867047Y-38212285D01*
X167867047Y-38212285D02*
X167248000Y-38212285D01*
X166724190Y-37974190D02*
X166819428Y-37926571D01*
X166819428Y-37926571D02*
X166867047Y-37878952D01*
X166867047Y-37878952D02*
X166914666Y-37783714D01*
X166914666Y-37783714D02*
X166914666Y-37736095D01*
X166914666Y-37736095D02*
X166867047Y-37640857D01*
X166867047Y-37640857D02*
X166819428Y-37593238D01*
X166819428Y-37593238D02*
X166724190Y-37545619D01*
X166724190Y-37545619D02*
X166533714Y-37545619D01*
X166533714Y-37545619D02*
X166438476Y-37593238D01*
X166438476Y-37593238D02*
X166390857Y-37640857D01*
X166390857Y-37640857D02*
X166343238Y-37736095D01*
X166343238Y-37736095D02*
X166343238Y-37783714D01*
X166343238Y-37783714D02*
X166390857Y-37878952D01*
X166390857Y-37878952D02*
X166438476Y-37926571D01*
X166438476Y-37926571D02*
X166533714Y-37974190D01*
X166533714Y-37974190D02*
X166724190Y-37974190D01*
X166724190Y-37974190D02*
X166819428Y-38021809D01*
X166819428Y-38021809D02*
X166867047Y-38069428D01*
X166867047Y-38069428D02*
X166914666Y-38164666D01*
X166914666Y-38164666D02*
X166914666Y-38355142D01*
X166914666Y-38355142D02*
X166867047Y-38450380D01*
X166867047Y-38450380D02*
X166819428Y-38498000D01*
X166819428Y-38498000D02*
X166724190Y-38545619D01*
X166724190Y-38545619D02*
X166533714Y-38545619D01*
X166533714Y-38545619D02*
X166438476Y-38498000D01*
X166438476Y-38498000D02*
X166390857Y-38450380D01*
X166390857Y-38450380D02*
X166343238Y-38355142D01*
X166343238Y-38355142D02*
X166343238Y-38164666D01*
X166343238Y-38164666D02*
X166390857Y-38069428D01*
X166390857Y-38069428D02*
X166438476Y-38021809D01*
X166438476Y-38021809D02*
X166533714Y-37974190D01*
X165914666Y-38545619D02*
X165914666Y-37545619D01*
X165486095Y-38545619D02*
X165486095Y-38021809D01*
X165486095Y-38021809D02*
X165533714Y-37926571D01*
X165533714Y-37926571D02*
X165628952Y-37878952D01*
X165628952Y-37878952D02*
X165771809Y-37878952D01*
X165771809Y-37878952D02*
X165867047Y-37926571D01*
X165867047Y-37926571D02*
X165914666Y-37974190D01*
X136311228Y-54426619D02*
X136215990Y-54426619D01*
X136215990Y-54426619D02*
X136120752Y-54474238D01*
X136120752Y-54474238D02*
X136073133Y-54521857D01*
X136073133Y-54521857D02*
X136025514Y-54617095D01*
X136025514Y-54617095D02*
X135977895Y-54807571D01*
X135977895Y-54807571D02*
X135977895Y-55045666D01*
X135977895Y-55045666D02*
X136025514Y-55236142D01*
X136025514Y-55236142D02*
X136073133Y-55331380D01*
X136073133Y-55331380D02*
X136120752Y-55379000D01*
X136120752Y-55379000D02*
X136215990Y-55426619D01*
X136215990Y-55426619D02*
X136311228Y-55426619D01*
X136311228Y-55426619D02*
X136406466Y-55379000D01*
X136406466Y-55379000D02*
X136454085Y-55331380D01*
X136454085Y-55331380D02*
X136501704Y-55236142D01*
X136501704Y-55236142D02*
X136549323Y-55045666D01*
X136549323Y-55045666D02*
X136549323Y-54807571D01*
X136549323Y-54807571D02*
X136501704Y-54617095D01*
X136501704Y-54617095D02*
X136454085Y-54521857D01*
X136454085Y-54521857D02*
X136406466Y-54474238D01*
X136406466Y-54474238D02*
X136311228Y-54426619D01*
X135549323Y-55331380D02*
X135501704Y-55379000D01*
X135501704Y-55379000D02*
X135549323Y-55426619D01*
X135549323Y-55426619D02*
X135596942Y-55379000D01*
X135596942Y-55379000D02*
X135549323Y-55331380D01*
X135549323Y-55331380D02*
X135549323Y-55426619D01*
X134549324Y-55426619D02*
X135120752Y-55426619D01*
X134835038Y-55426619D02*
X134835038Y-54426619D01*
X134835038Y-54426619D02*
X134930276Y-54569476D01*
X134930276Y-54569476D02*
X135025514Y-54664714D01*
X135025514Y-54664714D02*
X135120752Y-54712333D01*
X132244095Y-45902038D02*
X132339333Y-45854419D01*
X132339333Y-45854419D02*
X132482190Y-45854419D01*
X132482190Y-45854419D02*
X132625047Y-45902038D01*
X132625047Y-45902038D02*
X132720285Y-45997276D01*
X132720285Y-45997276D02*
X132767904Y-46092514D01*
X132767904Y-46092514D02*
X132815523Y-46282990D01*
X132815523Y-46282990D02*
X132815523Y-46425847D01*
X132815523Y-46425847D02*
X132767904Y-46616323D01*
X132767904Y-46616323D02*
X132720285Y-46711561D01*
X132720285Y-46711561D02*
X132625047Y-46806800D01*
X132625047Y-46806800D02*
X132482190Y-46854419D01*
X132482190Y-46854419D02*
X132386952Y-46854419D01*
X132386952Y-46854419D02*
X132244095Y-46806800D01*
X132244095Y-46806800D02*
X132196476Y-46759180D01*
X132196476Y-46759180D02*
X132196476Y-46425847D01*
X132196476Y-46425847D02*
X132386952Y-46425847D01*
X145854476Y-59582952D02*
X145854476Y-60249619D01*
X146092571Y-59202000D02*
X146330666Y-59916285D01*
X146330666Y-59916285D02*
X145711619Y-59916285D01*
X144997333Y-59725809D02*
X144854476Y-59773428D01*
X144854476Y-59773428D02*
X144806857Y-59821047D01*
X144806857Y-59821047D02*
X144759238Y-59916285D01*
X144759238Y-59916285D02*
X144759238Y-60059142D01*
X144759238Y-60059142D02*
X144806857Y-60154380D01*
X144806857Y-60154380D02*
X144854476Y-60202000D01*
X144854476Y-60202000D02*
X144949714Y-60249619D01*
X144949714Y-60249619D02*
X145330666Y-60249619D01*
X145330666Y-60249619D02*
X145330666Y-59249619D01*
X145330666Y-59249619D02*
X144997333Y-59249619D01*
X144997333Y-59249619D02*
X144902095Y-59297238D01*
X144902095Y-59297238D02*
X144854476Y-59344857D01*
X144854476Y-59344857D02*
X144806857Y-59440095D01*
X144806857Y-59440095D02*
X144806857Y-59535333D01*
X144806857Y-59535333D02*
X144854476Y-59630571D01*
X144854476Y-59630571D02*
X144902095Y-59678190D01*
X144902095Y-59678190D02*
X144997333Y-59725809D01*
X144997333Y-59725809D02*
X145330666Y-59725809D01*
X144330666Y-60249619D02*
X144330666Y-59249619D01*
X143902095Y-60249619D02*
X143902095Y-59725809D01*
X143902095Y-59725809D02*
X143949714Y-59630571D01*
X143949714Y-59630571D02*
X144044952Y-59582952D01*
X144044952Y-59582952D02*
X144187809Y-59582952D01*
X144187809Y-59582952D02*
X144283047Y-59630571D01*
X144283047Y-59630571D02*
X144330666Y-59678190D01*
X163454261Y-28303019D02*
X162882833Y-28303019D01*
X163168547Y-29303019D02*
X163168547Y-28303019D01*
X162549499Y-29303019D02*
X162549499Y-28303019D01*
X162549499Y-28303019D02*
X162216166Y-29017304D01*
X162216166Y-29017304D02*
X161882833Y-28303019D01*
X161882833Y-28303019D02*
X161882833Y-29303019D01*
X161406642Y-29303019D02*
X161406642Y-28303019D01*
X161406642Y-28303019D02*
X161025690Y-28303019D01*
X161025690Y-28303019D02*
X160930452Y-28350638D01*
X160930452Y-28350638D02*
X160882833Y-28398257D01*
X160882833Y-28398257D02*
X160835214Y-28493495D01*
X160835214Y-28493495D02*
X160835214Y-28636352D01*
X160835214Y-28636352D02*
X160882833Y-28731590D01*
X160882833Y-28731590D02*
X160930452Y-28779209D01*
X160930452Y-28779209D02*
X161025690Y-28826828D01*
X161025690Y-28826828D02*
X161406642Y-28826828D01*
X159882833Y-29303019D02*
X160454261Y-29303019D01*
X160168547Y-29303019D02*
X160168547Y-28303019D01*
X160168547Y-28303019D02*
X160263785Y-28445876D01*
X160263785Y-28445876D02*
X160359023Y-28541114D01*
X160359023Y-28541114D02*
X160454261Y-28588733D01*
X158930452Y-29303019D02*
X159501880Y-29303019D01*
X159216166Y-29303019D02*
X159216166Y-28303019D01*
X159216166Y-28303019D02*
X159311404Y-28445876D01*
X159311404Y-28445876D02*
X159406642Y-28541114D01*
X159406642Y-28541114D02*
X159501880Y-28588733D01*
X158597118Y-28303019D02*
X157930452Y-28303019D01*
X157930452Y-28303019D02*
X158359023Y-29303019D01*
X160695228Y-32722619D02*
X160599990Y-32722619D01*
X160599990Y-32722619D02*
X160504752Y-32770238D01*
X160504752Y-32770238D02*
X160457133Y-32817857D01*
X160457133Y-32817857D02*
X160409514Y-32913095D01*
X160409514Y-32913095D02*
X160361895Y-33103571D01*
X160361895Y-33103571D02*
X160361895Y-33341666D01*
X160361895Y-33341666D02*
X160409514Y-33532142D01*
X160409514Y-33532142D02*
X160457133Y-33627380D01*
X160457133Y-33627380D02*
X160504752Y-33675000D01*
X160504752Y-33675000D02*
X160599990Y-33722619D01*
X160599990Y-33722619D02*
X160695228Y-33722619D01*
X160695228Y-33722619D02*
X160790466Y-33675000D01*
X160790466Y-33675000D02*
X160838085Y-33627380D01*
X160838085Y-33627380D02*
X160885704Y-33532142D01*
X160885704Y-33532142D02*
X160933323Y-33341666D01*
X160933323Y-33341666D02*
X160933323Y-33103571D01*
X160933323Y-33103571D02*
X160885704Y-32913095D01*
X160885704Y-32913095D02*
X160838085Y-32817857D01*
X160838085Y-32817857D02*
X160790466Y-32770238D01*
X160790466Y-32770238D02*
X160695228Y-32722619D01*
X159933323Y-33627380D02*
X159885704Y-33675000D01*
X159885704Y-33675000D02*
X159933323Y-33722619D01*
X159933323Y-33722619D02*
X159980942Y-33675000D01*
X159980942Y-33675000D02*
X159933323Y-33627380D01*
X159933323Y-33627380D02*
X159933323Y-33722619D01*
X158933324Y-33722619D02*
X159504752Y-33722619D01*
X159219038Y-33722619D02*
X159219038Y-32722619D01*
X159219038Y-32722619D02*
X159314276Y-32865476D01*
X159314276Y-32865476D02*
X159409514Y-32960714D01*
X159409514Y-32960714D02*
X159504752Y-33008333D01*
X170238476Y-37878952D02*
X170238476Y-38545619D01*
X170476571Y-37498000D02*
X170714666Y-38212285D01*
X170714666Y-38212285D02*
X170095619Y-38212285D01*
X169381333Y-38021809D02*
X169238476Y-38069428D01*
X169238476Y-38069428D02*
X169190857Y-38117047D01*
X169190857Y-38117047D02*
X169143238Y-38212285D01*
X169143238Y-38212285D02*
X169143238Y-38355142D01*
X169143238Y-38355142D02*
X169190857Y-38450380D01*
X169190857Y-38450380D02*
X169238476Y-38498000D01*
X169238476Y-38498000D02*
X169333714Y-38545619D01*
X169333714Y-38545619D02*
X169714666Y-38545619D01*
X169714666Y-38545619D02*
X169714666Y-37545619D01*
X169714666Y-37545619D02*
X169381333Y-37545619D01*
X169381333Y-37545619D02*
X169286095Y-37593238D01*
X169286095Y-37593238D02*
X169238476Y-37640857D01*
X169238476Y-37640857D02*
X169190857Y-37736095D01*
X169190857Y-37736095D02*
X169190857Y-37831333D01*
X169190857Y-37831333D02*
X169238476Y-37926571D01*
X169238476Y-37926571D02*
X169286095Y-37974190D01*
X169286095Y-37974190D02*
X169381333Y-38021809D01*
X169381333Y-38021809D02*
X169714666Y-38021809D01*
X168714666Y-38545619D02*
X168714666Y-37545619D01*
X168286095Y-38545619D02*
X168286095Y-38021809D01*
X168286095Y-38021809D02*
X168333714Y-37926571D01*
X168333714Y-37926571D02*
X168428952Y-37878952D01*
X168428952Y-37878952D02*
X168571809Y-37878952D01*
X168571809Y-37878952D02*
X168667047Y-37926571D01*
X168667047Y-37926571D02*
X168714666Y-37974190D01*
X159222076Y-46759180D02*
X159269695Y-46806800D01*
X159269695Y-46806800D02*
X159412552Y-46854419D01*
X159412552Y-46854419D02*
X159507790Y-46854419D01*
X159507790Y-46854419D02*
X159650647Y-46806800D01*
X159650647Y-46806800D02*
X159745885Y-46711561D01*
X159745885Y-46711561D02*
X159793504Y-46616323D01*
X159793504Y-46616323D02*
X159841123Y-46425847D01*
X159841123Y-46425847D02*
X159841123Y-46282990D01*
X159841123Y-46282990D02*
X159793504Y-46092514D01*
X159793504Y-46092514D02*
X159745885Y-45997276D01*
X159745885Y-45997276D02*
X159650647Y-45902038D01*
X159650647Y-45902038D02*
X159507790Y-45854419D01*
X159507790Y-45854419D02*
X159412552Y-45854419D01*
X159412552Y-45854419D02*
X159269695Y-45902038D01*
X159269695Y-45902038D02*
X159222076Y-45949657D01*
X160695228Y-53080419D02*
X160599990Y-53080419D01*
X160599990Y-53080419D02*
X160504752Y-53128038D01*
X160504752Y-53128038D02*
X160457133Y-53175657D01*
X160457133Y-53175657D02*
X160409514Y-53270895D01*
X160409514Y-53270895D02*
X160361895Y-53461371D01*
X160361895Y-53461371D02*
X160361895Y-53699466D01*
X160361895Y-53699466D02*
X160409514Y-53889942D01*
X160409514Y-53889942D02*
X160457133Y-53985180D01*
X160457133Y-53985180D02*
X160504752Y-54032800D01*
X160504752Y-54032800D02*
X160599990Y-54080419D01*
X160599990Y-54080419D02*
X160695228Y-54080419D01*
X160695228Y-54080419D02*
X160790466Y-54032800D01*
X160790466Y-54032800D02*
X160838085Y-53985180D01*
X160838085Y-53985180D02*
X160885704Y-53889942D01*
X160885704Y-53889942D02*
X160933323Y-53699466D01*
X160933323Y-53699466D02*
X160933323Y-53461371D01*
X160933323Y-53461371D02*
X160885704Y-53270895D01*
X160885704Y-53270895D02*
X160838085Y-53175657D01*
X160838085Y-53175657D02*
X160790466Y-53128038D01*
X160790466Y-53128038D02*
X160695228Y-53080419D01*
X159933323Y-53985180D02*
X159885704Y-54032800D01*
X159885704Y-54032800D02*
X159933323Y-54080419D01*
X159933323Y-54080419D02*
X159980942Y-54032800D01*
X159980942Y-54032800D02*
X159933323Y-53985180D01*
X159933323Y-53985180D02*
X159933323Y-54080419D01*
X159552371Y-53080419D02*
X158933324Y-53080419D01*
X158933324Y-53080419D02*
X159266657Y-53461371D01*
X159266657Y-53461371D02*
X159123800Y-53461371D01*
X159123800Y-53461371D02*
X159028562Y-53508990D01*
X159028562Y-53508990D02*
X158980943Y-53556609D01*
X158980943Y-53556609D02*
X158933324Y-53651847D01*
X158933324Y-53651847D02*
X158933324Y-53889942D01*
X158933324Y-53889942D02*
X158980943Y-53985180D01*
X158980943Y-53985180D02*
X159028562Y-54032800D01*
X159028562Y-54032800D02*
X159123800Y-54080419D01*
X159123800Y-54080419D02*
X159409514Y-54080419D01*
X159409514Y-54080419D02*
X159504752Y-54032800D01*
X159504752Y-54032800D02*
X159552371Y-53985180D01*
X145854476Y-37878952D02*
X145854476Y-38545619D01*
X146092571Y-37498000D02*
X146330666Y-38212285D01*
X146330666Y-38212285D02*
X145711619Y-38212285D01*
X144997333Y-38021809D02*
X144854476Y-38069428D01*
X144854476Y-38069428D02*
X144806857Y-38117047D01*
X144806857Y-38117047D02*
X144759238Y-38212285D01*
X144759238Y-38212285D02*
X144759238Y-38355142D01*
X144759238Y-38355142D02*
X144806857Y-38450380D01*
X144806857Y-38450380D02*
X144854476Y-38498000D01*
X144854476Y-38498000D02*
X144949714Y-38545619D01*
X144949714Y-38545619D02*
X145330666Y-38545619D01*
X145330666Y-38545619D02*
X145330666Y-37545619D01*
X145330666Y-37545619D02*
X144997333Y-37545619D01*
X144997333Y-37545619D02*
X144902095Y-37593238D01*
X144902095Y-37593238D02*
X144854476Y-37640857D01*
X144854476Y-37640857D02*
X144806857Y-37736095D01*
X144806857Y-37736095D02*
X144806857Y-37831333D01*
X144806857Y-37831333D02*
X144854476Y-37926571D01*
X144854476Y-37926571D02*
X144902095Y-37974190D01*
X144902095Y-37974190D02*
X144997333Y-38021809D01*
X144997333Y-38021809D02*
X145330666Y-38021809D01*
X144330666Y-38545619D02*
X144330666Y-37545619D01*
X143902095Y-38545619D02*
X143902095Y-38021809D01*
X143902095Y-38021809D02*
X143949714Y-37926571D01*
X143949714Y-37926571D02*
X144044952Y-37878952D01*
X144044952Y-37878952D02*
X144187809Y-37878952D01*
X144187809Y-37878952D02*
X144283047Y-37926571D01*
X144283047Y-37926571D02*
X144330666Y-37974190D01*
X167715123Y-68323504D02*
X167238933Y-68323504D01*
X167810361Y-68609219D02*
X167477028Y-67609219D01*
X167477028Y-67609219D02*
X167143695Y-68609219D01*
X166810361Y-68609219D02*
X166810361Y-67609219D01*
X166810361Y-67609219D02*
X166572266Y-67609219D01*
X166572266Y-67609219D02*
X166429409Y-67656838D01*
X166429409Y-67656838D02*
X166334171Y-67752076D01*
X166334171Y-67752076D02*
X166286552Y-67847314D01*
X166286552Y-67847314D02*
X166238933Y-68037790D01*
X166238933Y-68037790D02*
X166238933Y-68180647D01*
X166238933Y-68180647D02*
X166286552Y-68371123D01*
X166286552Y-68371123D02*
X166334171Y-68466361D01*
X166334171Y-68466361D02*
X166429409Y-68561600D01*
X166429409Y-68561600D02*
X166572266Y-68609219D01*
X166572266Y-68609219D02*
X166810361Y-68609219D01*
X137822504Y-68609219D02*
X137822504Y-67609219D01*
X137822504Y-67609219D02*
X137584409Y-67609219D01*
X137584409Y-67609219D02*
X137441552Y-67656838D01*
X137441552Y-67656838D02*
X137346314Y-67752076D01*
X137346314Y-67752076D02*
X137298695Y-67847314D01*
X137298695Y-67847314D02*
X137251076Y-68037790D01*
X137251076Y-68037790D02*
X137251076Y-68180647D01*
X137251076Y-68180647D02*
X137298695Y-68371123D01*
X137298695Y-68371123D02*
X137346314Y-68466361D01*
X137346314Y-68466361D02*
X137441552Y-68561600D01*
X137441552Y-68561600D02*
X137584409Y-68609219D01*
X137584409Y-68609219D02*
X137822504Y-68609219D01*
X137822504Y-46905219D02*
X137822504Y-45905219D01*
X137822504Y-45905219D02*
X137584409Y-45905219D01*
X137584409Y-45905219D02*
X137441552Y-45952838D01*
X137441552Y-45952838D02*
X137346314Y-46048076D01*
X137346314Y-46048076D02*
X137298695Y-46143314D01*
X137298695Y-46143314D02*
X137251076Y-46333790D01*
X137251076Y-46333790D02*
X137251076Y-46476647D01*
X137251076Y-46476647D02*
X137298695Y-46667123D01*
X137298695Y-46667123D02*
X137346314Y-46762361D01*
X137346314Y-46762361D02*
X137441552Y-46857600D01*
X137441552Y-46857600D02*
X137584409Y-46905219D01*
X137584409Y-46905219D02*
X137822504Y-46905219D01*
X145906857Y-53782952D02*
X145906857Y-54449619D01*
X146144952Y-53402000D02*
X146383047Y-54116285D01*
X146383047Y-54116285D02*
X145764000Y-54116285D01*
X145335428Y-54449619D02*
X145144952Y-54449619D01*
X145144952Y-54449619D02*
X145049714Y-54402000D01*
X145049714Y-54402000D02*
X145002095Y-54354380D01*
X145002095Y-54354380D02*
X144906857Y-54211523D01*
X144906857Y-54211523D02*
X144859238Y-54021047D01*
X144859238Y-54021047D02*
X144859238Y-53640095D01*
X144859238Y-53640095D02*
X144906857Y-53544857D01*
X144906857Y-53544857D02*
X144954476Y-53497238D01*
X144954476Y-53497238D02*
X145049714Y-53449619D01*
X145049714Y-53449619D02*
X145240190Y-53449619D01*
X145240190Y-53449619D02*
X145335428Y-53497238D01*
X145335428Y-53497238D02*
X145383047Y-53544857D01*
X145383047Y-53544857D02*
X145430666Y-53640095D01*
X145430666Y-53640095D02*
X145430666Y-53878190D01*
X145430666Y-53878190D02*
X145383047Y-53973428D01*
X145383047Y-53973428D02*
X145335428Y-54021047D01*
X145335428Y-54021047D02*
X145240190Y-54068666D01*
X145240190Y-54068666D02*
X145049714Y-54068666D01*
X145049714Y-54068666D02*
X144954476Y-54021047D01*
X144954476Y-54021047D02*
X144906857Y-53973428D01*
X144906857Y-53973428D02*
X144859238Y-53878190D01*
X144430666Y-54449619D02*
X144430666Y-53449619D01*
X144002095Y-54449619D02*
X144002095Y-53925809D01*
X144002095Y-53925809D02*
X144049714Y-53830571D01*
X144049714Y-53830571D02*
X144144952Y-53782952D01*
X144144952Y-53782952D02*
X144287809Y-53782952D01*
X144287809Y-53782952D02*
X144383047Y-53830571D01*
X144383047Y-53830571D02*
X144430666Y-53878190D01*
X139070261Y-50007019D02*
X138498833Y-50007019D01*
X138784547Y-51007019D02*
X138784547Y-50007019D01*
X138165499Y-51007019D02*
X138165499Y-50007019D01*
X138165499Y-50007019D02*
X137832166Y-50721304D01*
X137832166Y-50721304D02*
X137498833Y-50007019D01*
X137498833Y-50007019D02*
X137498833Y-51007019D01*
X137022642Y-51007019D02*
X137022642Y-50007019D01*
X137022642Y-50007019D02*
X136641690Y-50007019D01*
X136641690Y-50007019D02*
X136546452Y-50054638D01*
X136546452Y-50054638D02*
X136498833Y-50102257D01*
X136498833Y-50102257D02*
X136451214Y-50197495D01*
X136451214Y-50197495D02*
X136451214Y-50340352D01*
X136451214Y-50340352D02*
X136498833Y-50435590D01*
X136498833Y-50435590D02*
X136546452Y-50483209D01*
X136546452Y-50483209D02*
X136641690Y-50530828D01*
X136641690Y-50530828D02*
X137022642Y-50530828D01*
X135498833Y-51007019D02*
X136070261Y-51007019D01*
X135784547Y-51007019D02*
X135784547Y-50007019D01*
X135784547Y-50007019D02*
X135879785Y-50149876D01*
X135879785Y-50149876D02*
X135975023Y-50245114D01*
X135975023Y-50245114D02*
X136070261Y-50292733D01*
X134546452Y-51007019D02*
X135117880Y-51007019D01*
X134832166Y-51007019D02*
X134832166Y-50007019D01*
X134832166Y-50007019D02*
X134927404Y-50149876D01*
X134927404Y-50149876D02*
X135022642Y-50245114D01*
X135022642Y-50245114D02*
X135117880Y-50292733D01*
X134213118Y-50007019D02*
X133546452Y-50007019D01*
X133546452Y-50007019D02*
X133975023Y-51007019D01*
X136311228Y-53080419D02*
X136215990Y-53080419D01*
X136215990Y-53080419D02*
X136120752Y-53128038D01*
X136120752Y-53128038D02*
X136073133Y-53175657D01*
X136073133Y-53175657D02*
X136025514Y-53270895D01*
X136025514Y-53270895D02*
X135977895Y-53461371D01*
X135977895Y-53461371D02*
X135977895Y-53699466D01*
X135977895Y-53699466D02*
X136025514Y-53889942D01*
X136025514Y-53889942D02*
X136073133Y-53985180D01*
X136073133Y-53985180D02*
X136120752Y-54032800D01*
X136120752Y-54032800D02*
X136215990Y-54080419D01*
X136215990Y-54080419D02*
X136311228Y-54080419D01*
X136311228Y-54080419D02*
X136406466Y-54032800D01*
X136406466Y-54032800D02*
X136454085Y-53985180D01*
X136454085Y-53985180D02*
X136501704Y-53889942D01*
X136501704Y-53889942D02*
X136549323Y-53699466D01*
X136549323Y-53699466D02*
X136549323Y-53461371D01*
X136549323Y-53461371D02*
X136501704Y-53270895D01*
X136501704Y-53270895D02*
X136454085Y-53175657D01*
X136454085Y-53175657D02*
X136406466Y-53128038D01*
X136406466Y-53128038D02*
X136311228Y-53080419D01*
X135549323Y-53985180D02*
X135501704Y-54032800D01*
X135501704Y-54032800D02*
X135549323Y-54080419D01*
X135549323Y-54080419D02*
X135596942Y-54032800D01*
X135596942Y-54032800D02*
X135549323Y-53985180D01*
X135549323Y-53985180D02*
X135549323Y-54080419D01*
X135168371Y-53080419D02*
X134549324Y-53080419D01*
X134549324Y-53080419D02*
X134882657Y-53461371D01*
X134882657Y-53461371D02*
X134739800Y-53461371D01*
X134739800Y-53461371D02*
X134644562Y-53508990D01*
X134644562Y-53508990D02*
X134596943Y-53556609D01*
X134596943Y-53556609D02*
X134549324Y-53651847D01*
X134549324Y-53651847D02*
X134549324Y-53889942D01*
X134549324Y-53889942D02*
X134596943Y-53985180D01*
X134596943Y-53985180D02*
X134644562Y-54032800D01*
X134644562Y-54032800D02*
X134739800Y-54080419D01*
X134739800Y-54080419D02*
X135025514Y-54080419D01*
X135025514Y-54080419D02*
X135120752Y-54032800D01*
X135120752Y-54032800D02*
X135168371Y-53985180D01*
X164762361Y-45905219D02*
X164429028Y-46905219D01*
X164429028Y-46905219D02*
X164095695Y-45905219D01*
X143006857Y-59582952D02*
X143006857Y-60249619D01*
X143244952Y-59202000D02*
X143483047Y-59916285D01*
X143483047Y-59916285D02*
X142864000Y-59916285D01*
X142340190Y-59678190D02*
X142435428Y-59630571D01*
X142435428Y-59630571D02*
X142483047Y-59582952D01*
X142483047Y-59582952D02*
X142530666Y-59487714D01*
X142530666Y-59487714D02*
X142530666Y-59440095D01*
X142530666Y-59440095D02*
X142483047Y-59344857D01*
X142483047Y-59344857D02*
X142435428Y-59297238D01*
X142435428Y-59297238D02*
X142340190Y-59249619D01*
X142340190Y-59249619D02*
X142149714Y-59249619D01*
X142149714Y-59249619D02*
X142054476Y-59297238D01*
X142054476Y-59297238D02*
X142006857Y-59344857D01*
X142006857Y-59344857D02*
X141959238Y-59440095D01*
X141959238Y-59440095D02*
X141959238Y-59487714D01*
X141959238Y-59487714D02*
X142006857Y-59582952D01*
X142006857Y-59582952D02*
X142054476Y-59630571D01*
X142054476Y-59630571D02*
X142149714Y-59678190D01*
X142149714Y-59678190D02*
X142340190Y-59678190D01*
X142340190Y-59678190D02*
X142435428Y-59725809D01*
X142435428Y-59725809D02*
X142483047Y-59773428D01*
X142483047Y-59773428D02*
X142530666Y-59868666D01*
X142530666Y-59868666D02*
X142530666Y-60059142D01*
X142530666Y-60059142D02*
X142483047Y-60154380D01*
X142483047Y-60154380D02*
X142435428Y-60202000D01*
X142435428Y-60202000D02*
X142340190Y-60249619D01*
X142340190Y-60249619D02*
X142149714Y-60249619D01*
X142149714Y-60249619D02*
X142054476Y-60202000D01*
X142054476Y-60202000D02*
X142006857Y-60154380D01*
X142006857Y-60154380D02*
X141959238Y-60059142D01*
X141959238Y-60059142D02*
X141959238Y-59868666D01*
X141959238Y-59868666D02*
X142006857Y-59773428D01*
X142006857Y-59773428D02*
X142054476Y-59725809D01*
X142054476Y-59725809D02*
X142149714Y-59678190D01*
X141530666Y-60249619D02*
X141530666Y-59249619D01*
X141102095Y-60249619D02*
X141102095Y-59725809D01*
X141102095Y-59725809D02*
X141149714Y-59630571D01*
X141149714Y-59630571D02*
X141244952Y-59582952D01*
X141244952Y-59582952D02*
X141387809Y-59582952D01*
X141387809Y-59582952D02*
X141483047Y-59630571D01*
X141483047Y-59630571D02*
X141530666Y-59678190D01*
X142897333Y-53782952D02*
X142897333Y-54449619D01*
X143135428Y-53402000D02*
X143373523Y-54116285D01*
X143373523Y-54116285D02*
X142754476Y-54116285D01*
X142421142Y-54163904D02*
X141944952Y-54163904D01*
X142516380Y-54449619D02*
X142183047Y-53449619D01*
X142183047Y-53449619D02*
X141849714Y-54449619D01*
X141516380Y-54449619D02*
X141516380Y-53449619D01*
X141087809Y-54449619D02*
X141087809Y-53925809D01*
X141087809Y-53925809D02*
X141135428Y-53830571D01*
X141135428Y-53830571D02*
X141230666Y-53782952D01*
X141230666Y-53782952D02*
X141373523Y-53782952D01*
X141373523Y-53782952D02*
X141468761Y-53830571D01*
X141468761Y-53830571D02*
X141516380Y-53878190D01*
X160695228Y-54426619D02*
X160599990Y-54426619D01*
X160599990Y-54426619D02*
X160504752Y-54474238D01*
X160504752Y-54474238D02*
X160457133Y-54521857D01*
X160457133Y-54521857D02*
X160409514Y-54617095D01*
X160409514Y-54617095D02*
X160361895Y-54807571D01*
X160361895Y-54807571D02*
X160361895Y-55045666D01*
X160361895Y-55045666D02*
X160409514Y-55236142D01*
X160409514Y-55236142D02*
X160457133Y-55331380D01*
X160457133Y-55331380D02*
X160504752Y-55379000D01*
X160504752Y-55379000D02*
X160599990Y-55426619D01*
X160599990Y-55426619D02*
X160695228Y-55426619D01*
X160695228Y-55426619D02*
X160790466Y-55379000D01*
X160790466Y-55379000D02*
X160838085Y-55331380D01*
X160838085Y-55331380D02*
X160885704Y-55236142D01*
X160885704Y-55236142D02*
X160933323Y-55045666D01*
X160933323Y-55045666D02*
X160933323Y-54807571D01*
X160933323Y-54807571D02*
X160885704Y-54617095D01*
X160885704Y-54617095D02*
X160838085Y-54521857D01*
X160838085Y-54521857D02*
X160790466Y-54474238D01*
X160790466Y-54474238D02*
X160695228Y-54426619D01*
X159933323Y-55331380D02*
X159885704Y-55379000D01*
X159885704Y-55379000D02*
X159933323Y-55426619D01*
X159933323Y-55426619D02*
X159980942Y-55379000D01*
X159980942Y-55379000D02*
X159933323Y-55331380D01*
X159933323Y-55331380D02*
X159933323Y-55426619D01*
X158933324Y-55426619D02*
X159504752Y-55426619D01*
X159219038Y-55426619D02*
X159219038Y-54426619D01*
X159219038Y-54426619D02*
X159314276Y-54569476D01*
X159314276Y-54569476D02*
X159409514Y-54664714D01*
X159409514Y-54664714D02*
X159504752Y-54712333D01*
X128754475Y-54649619D02*
X128754475Y-53649619D01*
X128325904Y-53744857D02*
X128278285Y-53697238D01*
X128278285Y-53697238D02*
X128183047Y-53649619D01*
X128183047Y-53649619D02*
X127944952Y-53649619D01*
X127944952Y-53649619D02*
X127849714Y-53697238D01*
X127849714Y-53697238D02*
X127802095Y-53744857D01*
X127802095Y-53744857D02*
X127754476Y-53840095D01*
X127754476Y-53840095D02*
X127754476Y-53935333D01*
X127754476Y-53935333D02*
X127802095Y-54078190D01*
X127802095Y-54078190D02*
X128373523Y-54649619D01*
X128373523Y-54649619D02*
X127754476Y-54649619D01*
X126754476Y-54554380D02*
X126802095Y-54602000D01*
X126802095Y-54602000D02*
X126944952Y-54649619D01*
X126944952Y-54649619D02*
X127040190Y-54649619D01*
X127040190Y-54649619D02*
X127183047Y-54602000D01*
X127183047Y-54602000D02*
X127278285Y-54506761D01*
X127278285Y-54506761D02*
X127325904Y-54411523D01*
X127325904Y-54411523D02*
X127373523Y-54221047D01*
X127373523Y-54221047D02*
X127373523Y-54078190D01*
X127373523Y-54078190D02*
X127325904Y-53887714D01*
X127325904Y-53887714D02*
X127278285Y-53792476D01*
X127278285Y-53792476D02*
X127183047Y-53697238D01*
X127183047Y-53697238D02*
X127040190Y-53649619D01*
X127040190Y-53649619D02*
X126944952Y-53649619D01*
X126944952Y-53649619D02*
X126802095Y-53697238D01*
X126802095Y-53697238D02*
X126754476Y-53744857D01*
X162206504Y-68609219D02*
X162206504Y-67609219D01*
X162206504Y-67609219D02*
X161968409Y-67609219D01*
X161968409Y-67609219D02*
X161825552Y-67656838D01*
X161825552Y-67656838D02*
X161730314Y-67752076D01*
X161730314Y-67752076D02*
X161682695Y-67847314D01*
X161682695Y-67847314D02*
X161635076Y-68037790D01*
X161635076Y-68037790D02*
X161635076Y-68180647D01*
X161635076Y-68180647D02*
X161682695Y-68371123D01*
X161682695Y-68371123D02*
X161730314Y-68466361D01*
X161730314Y-68466361D02*
X161825552Y-68561600D01*
X161825552Y-68561600D02*
X161968409Y-68609219D01*
X161968409Y-68609219D02*
X162206504Y-68609219D01*
X145906857Y-32078952D02*
X145906857Y-32745619D01*
X146144952Y-31698000D02*
X146383047Y-32412285D01*
X146383047Y-32412285D02*
X145764000Y-32412285D01*
X145335428Y-32745619D02*
X145144952Y-32745619D01*
X145144952Y-32745619D02*
X145049714Y-32698000D01*
X145049714Y-32698000D02*
X145002095Y-32650380D01*
X145002095Y-32650380D02*
X144906857Y-32507523D01*
X144906857Y-32507523D02*
X144859238Y-32317047D01*
X144859238Y-32317047D02*
X144859238Y-31936095D01*
X144859238Y-31936095D02*
X144906857Y-31840857D01*
X144906857Y-31840857D02*
X144954476Y-31793238D01*
X144954476Y-31793238D02*
X145049714Y-31745619D01*
X145049714Y-31745619D02*
X145240190Y-31745619D01*
X145240190Y-31745619D02*
X145335428Y-31793238D01*
X145335428Y-31793238D02*
X145383047Y-31840857D01*
X145383047Y-31840857D02*
X145430666Y-31936095D01*
X145430666Y-31936095D02*
X145430666Y-32174190D01*
X145430666Y-32174190D02*
X145383047Y-32269428D01*
X145383047Y-32269428D02*
X145335428Y-32317047D01*
X145335428Y-32317047D02*
X145240190Y-32364666D01*
X145240190Y-32364666D02*
X145049714Y-32364666D01*
X145049714Y-32364666D02*
X144954476Y-32317047D01*
X144954476Y-32317047D02*
X144906857Y-32269428D01*
X144906857Y-32269428D02*
X144859238Y-32174190D01*
X144430666Y-32745619D02*
X144430666Y-31745619D01*
X144002095Y-32745619D02*
X144002095Y-32221809D01*
X144002095Y-32221809D02*
X144049714Y-32126571D01*
X144049714Y-32126571D02*
X144144952Y-32078952D01*
X144144952Y-32078952D02*
X144287809Y-32078952D01*
X144287809Y-32078952D02*
X144383047Y-32126571D01*
X144383047Y-32126571D02*
X144430666Y-32174190D01*
X156628095Y-67606038D02*
X156723333Y-67558419D01*
X156723333Y-67558419D02*
X156866190Y-67558419D01*
X156866190Y-67558419D02*
X157009047Y-67606038D01*
X157009047Y-67606038D02*
X157104285Y-67701276D01*
X157104285Y-67701276D02*
X157151904Y-67796514D01*
X157151904Y-67796514D02*
X157199523Y-67986990D01*
X157199523Y-67986990D02*
X157199523Y-68129847D01*
X157199523Y-68129847D02*
X157151904Y-68320323D01*
X157151904Y-68320323D02*
X157104285Y-68415561D01*
X157104285Y-68415561D02*
X157009047Y-68510800D01*
X157009047Y-68510800D02*
X156866190Y-68558419D01*
X156866190Y-68558419D02*
X156770952Y-68558419D01*
X156770952Y-68558419D02*
X156628095Y-68510800D01*
X156628095Y-68510800D02*
X156580476Y-68463180D01*
X156580476Y-68463180D02*
X156580476Y-68129847D01*
X156580476Y-68129847D02*
X156770952Y-68129847D01*
X167390857Y-59582952D02*
X167390857Y-60249619D01*
X167628952Y-59202000D02*
X167867047Y-59916285D01*
X167867047Y-59916285D02*
X167248000Y-59916285D01*
X166724190Y-59678190D02*
X166819428Y-59630571D01*
X166819428Y-59630571D02*
X166867047Y-59582952D01*
X166867047Y-59582952D02*
X166914666Y-59487714D01*
X166914666Y-59487714D02*
X166914666Y-59440095D01*
X166914666Y-59440095D02*
X166867047Y-59344857D01*
X166867047Y-59344857D02*
X166819428Y-59297238D01*
X166819428Y-59297238D02*
X166724190Y-59249619D01*
X166724190Y-59249619D02*
X166533714Y-59249619D01*
X166533714Y-59249619D02*
X166438476Y-59297238D01*
X166438476Y-59297238D02*
X166390857Y-59344857D01*
X166390857Y-59344857D02*
X166343238Y-59440095D01*
X166343238Y-59440095D02*
X166343238Y-59487714D01*
X166343238Y-59487714D02*
X166390857Y-59582952D01*
X166390857Y-59582952D02*
X166438476Y-59630571D01*
X166438476Y-59630571D02*
X166533714Y-59678190D01*
X166533714Y-59678190D02*
X166724190Y-59678190D01*
X166724190Y-59678190D02*
X166819428Y-59725809D01*
X166819428Y-59725809D02*
X166867047Y-59773428D01*
X166867047Y-59773428D02*
X166914666Y-59868666D01*
X166914666Y-59868666D02*
X166914666Y-60059142D01*
X166914666Y-60059142D02*
X166867047Y-60154380D01*
X166867047Y-60154380D02*
X166819428Y-60202000D01*
X166819428Y-60202000D02*
X166724190Y-60249619D01*
X166724190Y-60249619D02*
X166533714Y-60249619D01*
X166533714Y-60249619D02*
X166438476Y-60202000D01*
X166438476Y-60202000D02*
X166390857Y-60154380D01*
X166390857Y-60154380D02*
X166343238Y-60059142D01*
X166343238Y-60059142D02*
X166343238Y-59868666D01*
X166343238Y-59868666D02*
X166390857Y-59773428D01*
X166390857Y-59773428D02*
X166438476Y-59725809D01*
X166438476Y-59725809D02*
X166533714Y-59678190D01*
X165914666Y-60249619D02*
X165914666Y-59249619D01*
X165486095Y-60249619D02*
X165486095Y-59725809D01*
X165486095Y-59725809D02*
X165533714Y-59630571D01*
X165533714Y-59630571D02*
X165628952Y-59582952D01*
X165628952Y-59582952D02*
X165771809Y-59582952D01*
X165771809Y-59582952D02*
X165867047Y-59630571D01*
X165867047Y-59630571D02*
X165914666Y-59678190D01*
X134838076Y-46759180D02*
X134885695Y-46806800D01*
X134885695Y-46806800D02*
X135028552Y-46854419D01*
X135028552Y-46854419D02*
X135123790Y-46854419D01*
X135123790Y-46854419D02*
X135266647Y-46806800D01*
X135266647Y-46806800D02*
X135361885Y-46711561D01*
X135361885Y-46711561D02*
X135409504Y-46616323D01*
X135409504Y-46616323D02*
X135457123Y-46425847D01*
X135457123Y-46425847D02*
X135457123Y-46282990D01*
X135457123Y-46282990D02*
X135409504Y-46092514D01*
X135409504Y-46092514D02*
X135361885Y-45997276D01*
X135361885Y-45997276D02*
X135266647Y-45902038D01*
X135266647Y-45902038D02*
X135123790Y-45854419D01*
X135123790Y-45854419D02*
X135028552Y-45854419D01*
X135028552Y-45854419D02*
X134885695Y-45902038D01*
X134885695Y-45902038D02*
X134838076Y-45949657D01*
X130377123Y-68298104D02*
X129900933Y-68298104D01*
X130472361Y-68583819D02*
X130139028Y-67583819D01*
X130139028Y-67583819D02*
X129805695Y-68583819D01*
X128996171Y-68583819D02*
X129472361Y-68583819D01*
X129472361Y-68583819D02*
X129472361Y-67583819D01*
X142897333Y-32078952D02*
X142897333Y-32745619D01*
X143135428Y-31698000D02*
X143373523Y-32412285D01*
X143373523Y-32412285D02*
X142754476Y-32412285D01*
X142421142Y-32459904D02*
X141944952Y-32459904D01*
X142516380Y-32745619D02*
X142183047Y-31745619D01*
X142183047Y-31745619D02*
X141849714Y-32745619D01*
X141516380Y-32745619D02*
X141516380Y-31745619D01*
X141087809Y-32745619D02*
X141087809Y-32221809D01*
X141087809Y-32221809D02*
X141135428Y-32126571D01*
X141135428Y-32126571D02*
X141230666Y-32078952D01*
X141230666Y-32078952D02*
X141373523Y-32078952D01*
X141373523Y-32078952D02*
X141468761Y-32126571D01*
X141468761Y-32126571D02*
X141516380Y-32174190D01*
X136311228Y-32722619D02*
X136215990Y-32722619D01*
X136215990Y-32722619D02*
X136120752Y-32770238D01*
X136120752Y-32770238D02*
X136073133Y-32817857D01*
X136073133Y-32817857D02*
X136025514Y-32913095D01*
X136025514Y-32913095D02*
X135977895Y-33103571D01*
X135977895Y-33103571D02*
X135977895Y-33341666D01*
X135977895Y-33341666D02*
X136025514Y-33532142D01*
X136025514Y-33532142D02*
X136073133Y-33627380D01*
X136073133Y-33627380D02*
X136120752Y-33675000D01*
X136120752Y-33675000D02*
X136215990Y-33722619D01*
X136215990Y-33722619D02*
X136311228Y-33722619D01*
X136311228Y-33722619D02*
X136406466Y-33675000D01*
X136406466Y-33675000D02*
X136454085Y-33627380D01*
X136454085Y-33627380D02*
X136501704Y-33532142D01*
X136501704Y-33532142D02*
X136549323Y-33341666D01*
X136549323Y-33341666D02*
X136549323Y-33103571D01*
X136549323Y-33103571D02*
X136501704Y-32913095D01*
X136501704Y-32913095D02*
X136454085Y-32817857D01*
X136454085Y-32817857D02*
X136406466Y-32770238D01*
X136406466Y-32770238D02*
X136311228Y-32722619D01*
X135549323Y-33627380D02*
X135501704Y-33675000D01*
X135501704Y-33675000D02*
X135549323Y-33722619D01*
X135549323Y-33722619D02*
X135596942Y-33675000D01*
X135596942Y-33675000D02*
X135549323Y-33627380D01*
X135549323Y-33627380D02*
X135549323Y-33722619D01*
X134549324Y-33722619D02*
X135120752Y-33722619D01*
X134835038Y-33722619D02*
X134835038Y-32722619D01*
X134835038Y-32722619D02*
X134930276Y-32865476D01*
X134930276Y-32865476D02*
X135025514Y-32960714D01*
X135025514Y-32960714D02*
X135120752Y-33008333D01*
X143331123Y-68323504D02*
X142854933Y-68323504D01*
X143426361Y-68609219D02*
X143093028Y-67609219D01*
X143093028Y-67609219D02*
X142759695Y-68609219D01*
X142426361Y-68609219D02*
X142426361Y-67609219D01*
X142426361Y-67609219D02*
X142188266Y-67609219D01*
X142188266Y-67609219D02*
X142045409Y-67656838D01*
X142045409Y-67656838D02*
X141950171Y-67752076D01*
X141950171Y-67752076D02*
X141902552Y-67847314D01*
X141902552Y-67847314D02*
X141854933Y-68037790D01*
X141854933Y-68037790D02*
X141854933Y-68180647D01*
X141854933Y-68180647D02*
X141902552Y-68371123D01*
X141902552Y-68371123D02*
X141950171Y-68466361D01*
X141950171Y-68466361D02*
X142045409Y-68561600D01*
X142045409Y-68561600D02*
X142188266Y-68609219D01*
X142188266Y-68609219D02*
X142426361Y-68609219D01*
X130377123Y-46594104D02*
X129900933Y-46594104D01*
X130472361Y-46879819D02*
X130139028Y-45879819D01*
X130139028Y-45879819D02*
X129805695Y-46879819D01*
X128996171Y-46879819D02*
X129472361Y-46879819D01*
X129472361Y-46879819D02*
X129472361Y-45879819D01*
X156628095Y-45902038D02*
X156723333Y-45854419D01*
X156723333Y-45854419D02*
X156866190Y-45854419D01*
X156866190Y-45854419D02*
X157009047Y-45902038D01*
X157009047Y-45902038D02*
X157104285Y-45997276D01*
X157104285Y-45997276D02*
X157151904Y-46092514D01*
X157151904Y-46092514D02*
X157199523Y-46282990D01*
X157199523Y-46282990D02*
X157199523Y-46425847D01*
X157199523Y-46425847D02*
X157151904Y-46616323D01*
X157151904Y-46616323D02*
X157104285Y-46711561D01*
X157104285Y-46711561D02*
X157009047Y-46806800D01*
X157009047Y-46806800D02*
X156866190Y-46854419D01*
X156866190Y-46854419D02*
X156770952Y-46854419D01*
X156770952Y-46854419D02*
X156628095Y-46806800D01*
X156628095Y-46806800D02*
X156580476Y-46759180D01*
X156580476Y-46759180D02*
X156580476Y-46425847D01*
X156580476Y-46425847D02*
X156770952Y-46425847D01*
X139070261Y-28303019D02*
X138498833Y-28303019D01*
X138784547Y-29303019D02*
X138784547Y-28303019D01*
X138165499Y-29303019D02*
X138165499Y-28303019D01*
X138165499Y-28303019D02*
X137832166Y-29017304D01*
X137832166Y-29017304D02*
X137498833Y-28303019D01*
X137498833Y-28303019D02*
X137498833Y-29303019D01*
X137022642Y-29303019D02*
X137022642Y-28303019D01*
X137022642Y-28303019D02*
X136641690Y-28303019D01*
X136641690Y-28303019D02*
X136546452Y-28350638D01*
X136546452Y-28350638D02*
X136498833Y-28398257D01*
X136498833Y-28398257D02*
X136451214Y-28493495D01*
X136451214Y-28493495D02*
X136451214Y-28636352D01*
X136451214Y-28636352D02*
X136498833Y-28731590D01*
X136498833Y-28731590D02*
X136546452Y-28779209D01*
X136546452Y-28779209D02*
X136641690Y-28826828D01*
X136641690Y-28826828D02*
X137022642Y-28826828D01*
X135498833Y-29303019D02*
X136070261Y-29303019D01*
X135784547Y-29303019D02*
X135784547Y-28303019D01*
X135784547Y-28303019D02*
X135879785Y-28445876D01*
X135879785Y-28445876D02*
X135975023Y-28541114D01*
X135975023Y-28541114D02*
X136070261Y-28588733D01*
X134546452Y-29303019D02*
X135117880Y-29303019D01*
X134832166Y-29303019D02*
X134832166Y-28303019D01*
X134832166Y-28303019D02*
X134927404Y-28445876D01*
X134927404Y-28445876D02*
X135022642Y-28541114D01*
X135022642Y-28541114D02*
X135117880Y-28588733D01*
X134213118Y-28303019D02*
X133546452Y-28303019D01*
X133546452Y-28303019D02*
X133975023Y-29303019D01*
X128754475Y-32945619D02*
X128754475Y-31945619D01*
X128325904Y-32040857D02*
X128278285Y-31993238D01*
X128278285Y-31993238D02*
X128183047Y-31945619D01*
X128183047Y-31945619D02*
X127944952Y-31945619D01*
X127944952Y-31945619D02*
X127849714Y-31993238D01*
X127849714Y-31993238D02*
X127802095Y-32040857D01*
X127802095Y-32040857D02*
X127754476Y-32136095D01*
X127754476Y-32136095D02*
X127754476Y-32231333D01*
X127754476Y-32231333D02*
X127802095Y-32374190D01*
X127802095Y-32374190D02*
X128373523Y-32945619D01*
X128373523Y-32945619D02*
X127754476Y-32945619D01*
X126754476Y-32850380D02*
X126802095Y-32898000D01*
X126802095Y-32898000D02*
X126944952Y-32945619D01*
X126944952Y-32945619D02*
X127040190Y-32945619D01*
X127040190Y-32945619D02*
X127183047Y-32898000D01*
X127183047Y-32898000D02*
X127278285Y-32802761D01*
X127278285Y-32802761D02*
X127325904Y-32707523D01*
X127325904Y-32707523D02*
X127373523Y-32517047D01*
X127373523Y-32517047D02*
X127373523Y-32374190D01*
X127373523Y-32374190D02*
X127325904Y-32183714D01*
X127325904Y-32183714D02*
X127278285Y-32088476D01*
X127278285Y-32088476D02*
X127183047Y-31993238D01*
X127183047Y-31993238D02*
X127040190Y-31945619D01*
X127040190Y-31945619D02*
X126944952Y-31945619D01*
X126944952Y-31945619D02*
X126802095Y-31993238D01*
X126802095Y-31993238D02*
X126754476Y-32040857D01*
X170238476Y-59582952D02*
X170238476Y-60249619D01*
X170476571Y-59202000D02*
X170714666Y-59916285D01*
X170714666Y-59916285D02*
X170095619Y-59916285D01*
X169381333Y-59725809D02*
X169238476Y-59773428D01*
X169238476Y-59773428D02*
X169190857Y-59821047D01*
X169190857Y-59821047D02*
X169143238Y-59916285D01*
X169143238Y-59916285D02*
X169143238Y-60059142D01*
X169143238Y-60059142D02*
X169190857Y-60154380D01*
X169190857Y-60154380D02*
X169238476Y-60202000D01*
X169238476Y-60202000D02*
X169333714Y-60249619D01*
X169333714Y-60249619D02*
X169714666Y-60249619D01*
X169714666Y-60249619D02*
X169714666Y-59249619D01*
X169714666Y-59249619D02*
X169381333Y-59249619D01*
X169381333Y-59249619D02*
X169286095Y-59297238D01*
X169286095Y-59297238D02*
X169238476Y-59344857D01*
X169238476Y-59344857D02*
X169190857Y-59440095D01*
X169190857Y-59440095D02*
X169190857Y-59535333D01*
X169190857Y-59535333D02*
X169238476Y-59630571D01*
X169238476Y-59630571D02*
X169286095Y-59678190D01*
X169286095Y-59678190D02*
X169381333Y-59725809D01*
X169381333Y-59725809D02*
X169714666Y-59725809D01*
X168714666Y-60249619D02*
X168714666Y-59249619D01*
X168286095Y-60249619D02*
X168286095Y-59725809D01*
X168286095Y-59725809D02*
X168333714Y-59630571D01*
X168333714Y-59630571D02*
X168428952Y-59582952D01*
X168428952Y-59582952D02*
X168571809Y-59582952D01*
X168571809Y-59582952D02*
X168667047Y-59630571D01*
X168667047Y-59630571D02*
X168714666Y-59678190D01*
X162206504Y-46905219D02*
X162206504Y-45905219D01*
X162206504Y-45905219D02*
X161968409Y-45905219D01*
X161968409Y-45905219D02*
X161825552Y-45952838D01*
X161825552Y-45952838D02*
X161730314Y-46048076D01*
X161730314Y-46048076D02*
X161682695Y-46143314D01*
X161682695Y-46143314D02*
X161635076Y-46333790D01*
X161635076Y-46333790D02*
X161635076Y-46476647D01*
X161635076Y-46476647D02*
X161682695Y-46667123D01*
X161682695Y-46667123D02*
X161730314Y-46762361D01*
X161730314Y-46762361D02*
X161825552Y-46857600D01*
X161825552Y-46857600D02*
X161968409Y-46905219D01*
X161968409Y-46905219D02*
X162206504Y-46905219D01*
X167281333Y-53782952D02*
X167281333Y-54449619D01*
X167519428Y-53402000D02*
X167757523Y-54116285D01*
X167757523Y-54116285D02*
X167138476Y-54116285D01*
X166805142Y-54163904D02*
X166328952Y-54163904D01*
X166900380Y-54449619D02*
X166567047Y-53449619D01*
X166567047Y-53449619D02*
X166233714Y-54449619D01*
X165900380Y-54449619D02*
X165900380Y-53449619D01*
X165471809Y-54449619D02*
X165471809Y-53925809D01*
X165471809Y-53925809D02*
X165519428Y-53830571D01*
X165519428Y-53830571D02*
X165614666Y-53782952D01*
X165614666Y-53782952D02*
X165757523Y-53782952D01*
X165757523Y-53782952D02*
X165852761Y-53830571D01*
X165852761Y-53830571D02*
X165900380Y-53878190D01*
X170290857Y-32078952D02*
X170290857Y-32745619D01*
X170528952Y-31698000D02*
X170767047Y-32412285D01*
X170767047Y-32412285D02*
X170148000Y-32412285D01*
X169719428Y-32745619D02*
X169528952Y-32745619D01*
X169528952Y-32745619D02*
X169433714Y-32698000D01*
X169433714Y-32698000D02*
X169386095Y-32650380D01*
X169386095Y-32650380D02*
X169290857Y-32507523D01*
X169290857Y-32507523D02*
X169243238Y-32317047D01*
X169243238Y-32317047D02*
X169243238Y-31936095D01*
X169243238Y-31936095D02*
X169290857Y-31840857D01*
X169290857Y-31840857D02*
X169338476Y-31793238D01*
X169338476Y-31793238D02*
X169433714Y-31745619D01*
X169433714Y-31745619D02*
X169624190Y-31745619D01*
X169624190Y-31745619D02*
X169719428Y-31793238D01*
X169719428Y-31793238D02*
X169767047Y-31840857D01*
X169767047Y-31840857D02*
X169814666Y-31936095D01*
X169814666Y-31936095D02*
X169814666Y-32174190D01*
X169814666Y-32174190D02*
X169767047Y-32269428D01*
X169767047Y-32269428D02*
X169719428Y-32317047D01*
X169719428Y-32317047D02*
X169624190Y-32364666D01*
X169624190Y-32364666D02*
X169433714Y-32364666D01*
X169433714Y-32364666D02*
X169338476Y-32317047D01*
X169338476Y-32317047D02*
X169290857Y-32269428D01*
X169290857Y-32269428D02*
X169243238Y-32174190D01*
X168814666Y-32745619D02*
X168814666Y-31745619D01*
X168386095Y-32745619D02*
X168386095Y-32221809D01*
X168386095Y-32221809D02*
X168433714Y-32126571D01*
X168433714Y-32126571D02*
X168528952Y-32078952D01*
X168528952Y-32078952D02*
X168671809Y-32078952D01*
X168671809Y-32078952D02*
X168767047Y-32126571D01*
X168767047Y-32126571D02*
X168814666Y-32174190D01*
X143331123Y-46619504D02*
X142854933Y-46619504D01*
X143426361Y-46905219D02*
X143093028Y-45905219D01*
X143093028Y-45905219D02*
X142759695Y-46905219D01*
X142426361Y-46905219D02*
X142426361Y-45905219D01*
X142426361Y-45905219D02*
X142188266Y-45905219D01*
X142188266Y-45905219D02*
X142045409Y-45952838D01*
X142045409Y-45952838D02*
X141950171Y-46048076D01*
X141950171Y-46048076D02*
X141902552Y-46143314D01*
X141902552Y-46143314D02*
X141854933Y-46333790D01*
X141854933Y-46333790D02*
X141854933Y-46476647D01*
X141854933Y-46476647D02*
X141902552Y-46667123D01*
X141902552Y-46667123D02*
X141950171Y-46762361D01*
X141950171Y-46762361D02*
X142045409Y-46857600D01*
X142045409Y-46857600D02*
X142188266Y-46905219D01*
X142188266Y-46905219D02*
X142426361Y-46905219D01*
X163454261Y-50007019D02*
X162882833Y-50007019D01*
X163168547Y-51007019D02*
X163168547Y-50007019D01*
X162549499Y-51007019D02*
X162549499Y-50007019D01*
X162549499Y-50007019D02*
X162216166Y-50721304D01*
X162216166Y-50721304D02*
X161882833Y-50007019D01*
X161882833Y-50007019D02*
X161882833Y-51007019D01*
X161406642Y-51007019D02*
X161406642Y-50007019D01*
X161406642Y-50007019D02*
X161025690Y-50007019D01*
X161025690Y-50007019D02*
X160930452Y-50054638D01*
X160930452Y-50054638D02*
X160882833Y-50102257D01*
X160882833Y-50102257D02*
X160835214Y-50197495D01*
X160835214Y-50197495D02*
X160835214Y-50340352D01*
X160835214Y-50340352D02*
X160882833Y-50435590D01*
X160882833Y-50435590D02*
X160930452Y-50483209D01*
X160930452Y-50483209D02*
X161025690Y-50530828D01*
X161025690Y-50530828D02*
X161406642Y-50530828D01*
X159882833Y-51007019D02*
X160454261Y-51007019D01*
X160168547Y-51007019D02*
X160168547Y-50007019D01*
X160168547Y-50007019D02*
X160263785Y-50149876D01*
X160263785Y-50149876D02*
X160359023Y-50245114D01*
X160359023Y-50245114D02*
X160454261Y-50292733D01*
X158930452Y-51007019D02*
X159501880Y-51007019D01*
X159216166Y-51007019D02*
X159216166Y-50007019D01*
X159216166Y-50007019D02*
X159311404Y-50149876D01*
X159311404Y-50149876D02*
X159406642Y-50245114D01*
X159406642Y-50245114D02*
X159501880Y-50292733D01*
X158597118Y-50007019D02*
X157930452Y-50007019D01*
X157930452Y-50007019D02*
X158359023Y-51007019D01*
X136311228Y-31376419D02*
X136215990Y-31376419D01*
X136215990Y-31376419D02*
X136120752Y-31424038D01*
X136120752Y-31424038D02*
X136073133Y-31471657D01*
X136073133Y-31471657D02*
X136025514Y-31566895D01*
X136025514Y-31566895D02*
X135977895Y-31757371D01*
X135977895Y-31757371D02*
X135977895Y-31995466D01*
X135977895Y-31995466D02*
X136025514Y-32185942D01*
X136025514Y-32185942D02*
X136073133Y-32281180D01*
X136073133Y-32281180D02*
X136120752Y-32328800D01*
X136120752Y-32328800D02*
X136215990Y-32376419D01*
X136215990Y-32376419D02*
X136311228Y-32376419D01*
X136311228Y-32376419D02*
X136406466Y-32328800D01*
X136406466Y-32328800D02*
X136454085Y-32281180D01*
X136454085Y-32281180D02*
X136501704Y-32185942D01*
X136501704Y-32185942D02*
X136549323Y-31995466D01*
X136549323Y-31995466D02*
X136549323Y-31757371D01*
X136549323Y-31757371D02*
X136501704Y-31566895D01*
X136501704Y-31566895D02*
X136454085Y-31471657D01*
X136454085Y-31471657D02*
X136406466Y-31424038D01*
X136406466Y-31424038D02*
X136311228Y-31376419D01*
X135549323Y-32281180D02*
X135501704Y-32328800D01*
X135501704Y-32328800D02*
X135549323Y-32376419D01*
X135549323Y-32376419D02*
X135596942Y-32328800D01*
X135596942Y-32328800D02*
X135549323Y-32281180D01*
X135549323Y-32281180D02*
X135549323Y-32376419D01*
X135168371Y-31376419D02*
X134549324Y-31376419D01*
X134549324Y-31376419D02*
X134882657Y-31757371D01*
X134882657Y-31757371D02*
X134739800Y-31757371D01*
X134739800Y-31757371D02*
X134644562Y-31804990D01*
X134644562Y-31804990D02*
X134596943Y-31852609D01*
X134596943Y-31852609D02*
X134549324Y-31947847D01*
X134549324Y-31947847D02*
X134549324Y-32185942D01*
X134549324Y-32185942D02*
X134596943Y-32281180D01*
X134596943Y-32281180D02*
X134644562Y-32328800D01*
X134644562Y-32328800D02*
X134739800Y-32376419D01*
X134739800Y-32376419D02*
X135025514Y-32376419D01*
X135025514Y-32376419D02*
X135120752Y-32328800D01*
X135120752Y-32328800D02*
X135168371Y-32281180D01*
X154761123Y-46594104D02*
X154284933Y-46594104D01*
X154856361Y-46879819D02*
X154523028Y-45879819D01*
X154523028Y-45879819D02*
X154189695Y-46879819D01*
X153380171Y-46879819D02*
X153856361Y-46879819D01*
X153856361Y-46879819D02*
X153856361Y-45879819D01*
X140378361Y-67609219D02*
X140045028Y-68609219D01*
X140045028Y-68609219D02*
X139711695Y-67609219D01*
X161288900Y-54177400D02*
X161504800Y-54177400D01*
D11*
X162184521Y-33197508D02*
G75*
G03*
X162184521Y-33197508I-209821J0D01*
G01*
D12*
X152792600Y-62026000D02*
G75*
G03*
X152792600Y-62026000I-1320800J0D01*
G01*
D10*
X137044600Y-53491600D02*
X137120800Y-53491600D01*
D12*
X171182200Y-51688200D02*
G75*
G03*
X171182200Y-51688200I-1320800J0D01*
G01*
D10*
X137590700Y-54901508D02*
X137590700Y-53720200D01*
X137857400Y-53034400D02*
G75*
G03*
X137324000Y-53034400I-266700J0D01*
G01*
X161288900Y-53720200D02*
X161504800Y-53720200D01*
D12*
X155612000Y-42430200D02*
X168362800Y-42430200D01*
X168362800Y-45071800D01*
X155612000Y-45071800D01*
X155612000Y-42430200D01*
D10*
X157326500Y-49478400D02*
X164006700Y-49478400D01*
X164006700Y-51586600D01*
X157326500Y-51586600D01*
X157326500Y-49478400D01*
X136904900Y-54177400D02*
X137120800Y-54177400D01*
X136904900Y-53263000D02*
X137120800Y-53263000D01*
X137317547Y-54355200D02*
G75*
G03*
X137863853Y-54355200I273153J-546308D01*
G01*
X137857400Y-31330400D02*
X137857400Y-32651200D01*
D12*
X128408600Y-62026000D02*
G75*
G03*
X128408600Y-62026000I-1320800J0D01*
G01*
X128434000Y-51688200D02*
G75*
G03*
X128434000Y-51688200I-1320800J0D01*
G01*
D10*
X161428600Y-31787600D02*
X161504800Y-31787600D01*
D12*
X153021200Y-45097200D02*
X154342000Y-45097200D01*
D10*
X161708000Y-53034400D02*
X161708000Y-54355200D01*
D12*
X131228000Y-42430200D02*
X143978800Y-42430200D01*
X143978800Y-45071800D01*
X131228000Y-45071800D01*
X131228000Y-42430200D01*
X146798200Y-29984200D02*
G75*
G03*
X146798200Y-29984200I-1320800J0D01*
G01*
D10*
X137044600Y-53948800D02*
X137120800Y-53948800D01*
D12*
X171258400Y-62026000D02*
G75*
G03*
X171258400Y-62026000I-1320800J0D01*
G01*
X152792600Y-40322000D02*
G75*
G03*
X152792600Y-40322000I-1320800J0D01*
G01*
D10*
X161974700Y-33197508D02*
X161974700Y-32016200D01*
X161701547Y-54355200D02*
G75*
G03*
X162247853Y-54355200I273153J-546308D01*
G01*
X161428600Y-53491600D02*
X161504800Y-53491600D01*
D12*
X171258400Y-40322000D02*
G75*
G03*
X171258400Y-40322000I-1320800J0D01*
G01*
D10*
X161974700Y-54901508D02*
X161974700Y-53720200D01*
X162241400Y-53034400D02*
X162241400Y-54355200D01*
D12*
X153021200Y-66801200D02*
X154342000Y-66801200D01*
D10*
X161288900Y-32473400D02*
X161504800Y-32473400D01*
D12*
X131228000Y-64134200D02*
X143978800Y-64134200D01*
X143978800Y-66775800D01*
X131228000Y-66775800D01*
X131228000Y-64134200D01*
D10*
X137044600Y-31787600D02*
X137120800Y-31787600D01*
D12*
X128637200Y-43751000D02*
X128637200Y-45097200D01*
X152818000Y-51688200D02*
G75*
G03*
X152818000Y-51688200I-1320800J0D01*
G01*
X146874400Y-62026000D02*
G75*
G03*
X146874400Y-62026000I-1320800J0D01*
G01*
D10*
X161288900Y-31559000D02*
X161504800Y-31559000D01*
X136904900Y-31559000D02*
X137120800Y-31559000D01*
D12*
X155612000Y-64134200D02*
X168362800Y-64134200D01*
X168362800Y-66775800D01*
X155612000Y-66775800D01*
X155612000Y-64134200D01*
X128637200Y-65455000D02*
X128637200Y-66801200D01*
D11*
X137800521Y-33197508D02*
G75*
G03*
X137800521Y-33197508I-209821J0D01*
G01*
D10*
X161288900Y-32016200D02*
X161504800Y-32016200D01*
X137857400Y-31330400D02*
G75*
G03*
X137324000Y-31330400I-266700J0D01*
G01*
X161428600Y-32244800D02*
X161504800Y-32244800D01*
D11*
X162184521Y-54901508D02*
G75*
G03*
X162184521Y-54901508I-209821J0D01*
G01*
D10*
X161428600Y-53948800D02*
X161504800Y-53948800D01*
X137317547Y-32651200D02*
G75*
G03*
X137863853Y-32651200I273153J-546308D01*
G01*
X161708000Y-31330400D02*
X161708000Y-32651200D01*
D12*
X128408600Y-40322000D02*
G75*
G03*
X128408600Y-40322000I-1320800J0D01*
G01*
D10*
X137324000Y-53034400D02*
X137324000Y-54355200D01*
D12*
X128637200Y-45097200D02*
X129958000Y-45097200D01*
D10*
X136904900Y-53720200D02*
X137120800Y-53720200D01*
X137044600Y-32244800D02*
X137120800Y-32244800D01*
X162241400Y-53034400D02*
G75*
G03*
X161708000Y-53034400I-266700J0D01*
G01*
D12*
X128434000Y-29984200D02*
G75*
G03*
X128434000Y-29984200I-1320800J0D01*
G01*
X146798200Y-51688200D02*
G75*
G03*
X146798200Y-51688200I-1320800J0D01*
G01*
X152818000Y-29984200D02*
G75*
G03*
X152818000Y-29984200I-1320800J0D01*
G01*
X153021200Y-43751000D02*
X153021200Y-45097200D01*
D10*
X132942500Y-27774400D02*
X139622700Y-27774400D01*
X139622700Y-29882600D01*
X132942500Y-29882600D01*
X132942500Y-27774400D01*
D12*
X128637200Y-66801200D02*
X129958000Y-66801200D01*
D11*
X137800521Y-54901508D02*
G75*
G03*
X137800521Y-54901508I-209821J0D01*
G01*
D10*
X137857400Y-53034400D02*
X137857400Y-54355200D01*
X137324000Y-31330400D02*
X137324000Y-32651200D01*
D12*
X146874400Y-40322000D02*
G75*
G03*
X146874400Y-40322000I-1320800J0D01*
G01*
D10*
X157326500Y-27774400D02*
X164006700Y-27774400D01*
X164006700Y-29882600D01*
X157326500Y-29882600D01*
X157326500Y-27774400D01*
D12*
X153021200Y-65455000D02*
X153021200Y-66801200D01*
D10*
X136904900Y-32016200D02*
X137120800Y-32016200D01*
X136904900Y-32473400D02*
X137120800Y-32473400D01*
X132942500Y-49478400D02*
X139622700Y-49478400D01*
X139622700Y-51586600D01*
X132942500Y-51586600D01*
X132942500Y-49478400D01*
X162241400Y-31330400D02*
G75*
G03*
X161708000Y-31330400I-266700J0D01*
G01*
D12*
X171182200Y-29984200D02*
G75*
G03*
X171182200Y-29984200I-1320800J0D01*
G01*
D10*
X137590700Y-33197508D02*
X137590700Y-32016200D01*
X161701547Y-32651200D02*
G75*
G03*
X162247853Y-32651200I273153J-546308D01*
G01*
X161288900Y-53263000D02*
X161504800Y-53263000D01*
X162241400Y-31330400D02*
X162241400Y-32651200D01*
%TO.C,PU1*%
X126426619Y-55810095D02*
X125426619Y-55810095D01*
X125426619Y-55810095D02*
X125426619Y-56191047D01*
X125426619Y-56191047D02*
X125474238Y-56286285D01*
X125474238Y-56286285D02*
X125521857Y-56333904D01*
X125521857Y-56333904D02*
X125617095Y-56381523D01*
X125617095Y-56381523D02*
X125759952Y-56381523D01*
X125759952Y-56381523D02*
X125855190Y-56333904D01*
X125855190Y-56333904D02*
X125902809Y-56286285D01*
X125902809Y-56286285D02*
X125950428Y-56191047D01*
X125950428Y-56191047D02*
X125950428Y-55810095D01*
X125426619Y-56810095D02*
X126236142Y-56810095D01*
X126236142Y-56810095D02*
X126331380Y-56857714D01*
X126331380Y-56857714D02*
X126379000Y-56905333D01*
X126379000Y-56905333D02*
X126426619Y-57000571D01*
X126426619Y-57000571D02*
X126426619Y-57191047D01*
X126426619Y-57191047D02*
X126379000Y-57286285D01*
X126379000Y-57286285D02*
X126331380Y-57333904D01*
X126331380Y-57333904D02*
X126236142Y-57381523D01*
X126236142Y-57381523D02*
X125426619Y-57381523D01*
X126426619Y-58381523D02*
X126426619Y-57810095D01*
X126426619Y-58095809D02*
X125426619Y-58095809D01*
X125426619Y-58095809D02*
X125569476Y-58000571D01*
X125569476Y-58000571D02*
X125664714Y-57905333D01*
X125664714Y-57905333D02*
X125712333Y-57810095D01*
%TO.C,LED1*%
X132383047Y-60734619D02*
X132859237Y-60734619D01*
X132859237Y-60734619D02*
X132859237Y-59734619D01*
X132049713Y-60210809D02*
X131716380Y-60210809D01*
X131573523Y-60734619D02*
X132049713Y-60734619D01*
X132049713Y-60734619D02*
X132049713Y-59734619D01*
X132049713Y-59734619D02*
X131573523Y-59734619D01*
X131144951Y-60734619D02*
X131144951Y-59734619D01*
X131144951Y-59734619D02*
X130906856Y-59734619D01*
X130906856Y-59734619D02*
X130763999Y-59782238D01*
X130763999Y-59782238D02*
X130668761Y-59877476D01*
X130668761Y-59877476D02*
X130621142Y-59972714D01*
X130621142Y-59972714D02*
X130573523Y-60163190D01*
X130573523Y-60163190D02*
X130573523Y-60306047D01*
X130573523Y-60306047D02*
X130621142Y-60496523D01*
X130621142Y-60496523D02*
X130668761Y-60591761D01*
X130668761Y-60591761D02*
X130763999Y-60687000D01*
X130763999Y-60687000D02*
X130906856Y-60734619D01*
X130906856Y-60734619D02*
X131144951Y-60734619D01*
X129621142Y-60734619D02*
X130192570Y-60734619D01*
X129906856Y-60734619D02*
X129906856Y-59734619D01*
X129906856Y-59734619D02*
X130002094Y-59877476D01*
X130002094Y-59877476D02*
X130097332Y-59972714D01*
X130097332Y-59972714D02*
X130192570Y-60020333D01*
%TO.C,AD1*%
X140440904Y-32853714D02*
X140440904Y-33329904D01*
X140726619Y-32758476D02*
X139726619Y-33091809D01*
X139726619Y-33091809D02*
X140726619Y-33425142D01*
X140726619Y-33758476D02*
X139726619Y-33758476D01*
X139726619Y-33758476D02*
X139726619Y-33996571D01*
X139726619Y-33996571D02*
X139774238Y-34139428D01*
X139774238Y-34139428D02*
X139869476Y-34234666D01*
X139869476Y-34234666D02*
X139964714Y-34282285D01*
X139964714Y-34282285D02*
X140155190Y-34329904D01*
X140155190Y-34329904D02*
X140298047Y-34329904D01*
X140298047Y-34329904D02*
X140488523Y-34282285D01*
X140488523Y-34282285D02*
X140583761Y-34234666D01*
X140583761Y-34234666D02*
X140679000Y-34139428D01*
X140679000Y-34139428D02*
X140726619Y-33996571D01*
X140726619Y-33996571D02*
X140726619Y-33758476D01*
X140726619Y-35282285D02*
X140726619Y-34710857D01*
X140726619Y-34996571D02*
X139726619Y-34996571D01*
X139726619Y-34996571D02*
X139869476Y-34901333D01*
X139869476Y-34901333D02*
X139964714Y-34806095D01*
X139964714Y-34806095D02*
X140012333Y-34710857D01*
X140440904Y-54557714D02*
X140440904Y-55033904D01*
X140726619Y-54462476D02*
X139726619Y-54795809D01*
X139726619Y-54795809D02*
X140726619Y-55129142D01*
X140726619Y-55462476D02*
X139726619Y-55462476D01*
X139726619Y-55462476D02*
X139726619Y-55700571D01*
X139726619Y-55700571D02*
X139774238Y-55843428D01*
X139774238Y-55843428D02*
X139869476Y-55938666D01*
X139869476Y-55938666D02*
X139964714Y-55986285D01*
X139964714Y-55986285D02*
X140155190Y-56033904D01*
X140155190Y-56033904D02*
X140298047Y-56033904D01*
X140298047Y-56033904D02*
X140488523Y-55986285D01*
X140488523Y-55986285D02*
X140583761Y-55938666D01*
X140583761Y-55938666D02*
X140679000Y-55843428D01*
X140679000Y-55843428D02*
X140726619Y-55700571D01*
X140726619Y-55700571D02*
X140726619Y-55462476D01*
X140726619Y-56986285D02*
X140726619Y-56414857D01*
X140726619Y-56700571D02*
X139726619Y-56700571D01*
X139726619Y-56700571D02*
X139869476Y-56605333D01*
X139869476Y-56605333D02*
X139964714Y-56510095D01*
X139964714Y-56510095D02*
X140012333Y-56414857D01*
%TO.C,PU1*%
X126426619Y-34106095D02*
X125426619Y-34106095D01*
X125426619Y-34106095D02*
X125426619Y-34487047D01*
X125426619Y-34487047D02*
X125474238Y-34582285D01*
X125474238Y-34582285D02*
X125521857Y-34629904D01*
X125521857Y-34629904D02*
X125617095Y-34677523D01*
X125617095Y-34677523D02*
X125759952Y-34677523D01*
X125759952Y-34677523D02*
X125855190Y-34629904D01*
X125855190Y-34629904D02*
X125902809Y-34582285D01*
X125902809Y-34582285D02*
X125950428Y-34487047D01*
X125950428Y-34487047D02*
X125950428Y-34106095D01*
X125426619Y-35106095D02*
X126236142Y-35106095D01*
X126236142Y-35106095D02*
X126331380Y-35153714D01*
X126331380Y-35153714D02*
X126379000Y-35201333D01*
X126379000Y-35201333D02*
X126426619Y-35296571D01*
X126426619Y-35296571D02*
X126426619Y-35487047D01*
X126426619Y-35487047D02*
X126379000Y-35582285D01*
X126379000Y-35582285D02*
X126331380Y-35629904D01*
X126331380Y-35629904D02*
X126236142Y-35677523D01*
X126236142Y-35677523D02*
X125426619Y-35677523D01*
X126426619Y-36677523D02*
X126426619Y-36106095D01*
X126426619Y-36391809D02*
X125426619Y-36391809D01*
X125426619Y-36391809D02*
X125569476Y-36296571D01*
X125569476Y-36296571D02*
X125664714Y-36201333D01*
X125664714Y-36201333D02*
X125712333Y-36106095D01*
%TO.C,LED1*%
X156767047Y-39030619D02*
X157243237Y-39030619D01*
X157243237Y-39030619D02*
X157243237Y-38030619D01*
X156433713Y-38506809D02*
X156100380Y-38506809D01*
X155957523Y-39030619D02*
X156433713Y-39030619D01*
X156433713Y-39030619D02*
X156433713Y-38030619D01*
X156433713Y-38030619D02*
X155957523Y-38030619D01*
X155528951Y-39030619D02*
X155528951Y-38030619D01*
X155528951Y-38030619D02*
X155290856Y-38030619D01*
X155290856Y-38030619D02*
X155147999Y-38078238D01*
X155147999Y-38078238D02*
X155052761Y-38173476D01*
X155052761Y-38173476D02*
X155005142Y-38268714D01*
X155005142Y-38268714D02*
X154957523Y-38459190D01*
X154957523Y-38459190D02*
X154957523Y-38602047D01*
X154957523Y-38602047D02*
X155005142Y-38792523D01*
X155005142Y-38792523D02*
X155052761Y-38887761D01*
X155052761Y-38887761D02*
X155147999Y-38983000D01*
X155147999Y-38983000D02*
X155290856Y-39030619D01*
X155290856Y-39030619D02*
X155528951Y-39030619D01*
X154005142Y-39030619D02*
X154576570Y-39030619D01*
X154290856Y-39030619D02*
X154290856Y-38030619D01*
X154290856Y-38030619D02*
X154386094Y-38173476D01*
X154386094Y-38173476D02*
X154481332Y-38268714D01*
X154481332Y-38268714D02*
X154576570Y-38316333D01*
%TO.C,AD2*%
X147140904Y-33953714D02*
X147140904Y-34429904D01*
X147426619Y-33858476D02*
X146426619Y-34191809D01*
X146426619Y-34191809D02*
X147426619Y-34525142D01*
X147426619Y-34858476D02*
X146426619Y-34858476D01*
X146426619Y-34858476D02*
X146426619Y-35096571D01*
X146426619Y-35096571D02*
X146474238Y-35239428D01*
X146474238Y-35239428D02*
X146569476Y-35334666D01*
X146569476Y-35334666D02*
X146664714Y-35382285D01*
X146664714Y-35382285D02*
X146855190Y-35429904D01*
X146855190Y-35429904D02*
X146998047Y-35429904D01*
X146998047Y-35429904D02*
X147188523Y-35382285D01*
X147188523Y-35382285D02*
X147283761Y-35334666D01*
X147283761Y-35334666D02*
X147379000Y-35239428D01*
X147379000Y-35239428D02*
X147426619Y-35096571D01*
X147426619Y-35096571D02*
X147426619Y-34858476D01*
X146521857Y-35810857D02*
X146474238Y-35858476D01*
X146474238Y-35858476D02*
X146426619Y-35953714D01*
X146426619Y-35953714D02*
X146426619Y-36191809D01*
X146426619Y-36191809D02*
X146474238Y-36287047D01*
X146474238Y-36287047D02*
X146521857Y-36334666D01*
X146521857Y-36334666D02*
X146617095Y-36382285D01*
X146617095Y-36382285D02*
X146712333Y-36382285D01*
X146712333Y-36382285D02*
X146855190Y-36334666D01*
X146855190Y-36334666D02*
X147426619Y-35763238D01*
X147426619Y-35763238D02*
X147426619Y-36382285D01*
%TO.C,LED1*%
X132383047Y-39030619D02*
X132859237Y-39030619D01*
X132859237Y-39030619D02*
X132859237Y-38030619D01*
X132049713Y-38506809D02*
X131716380Y-38506809D01*
X131573523Y-39030619D02*
X132049713Y-39030619D01*
X132049713Y-39030619D02*
X132049713Y-38030619D01*
X132049713Y-38030619D02*
X131573523Y-38030619D01*
X131144951Y-39030619D02*
X131144951Y-38030619D01*
X131144951Y-38030619D02*
X130906856Y-38030619D01*
X130906856Y-38030619D02*
X130763999Y-38078238D01*
X130763999Y-38078238D02*
X130668761Y-38173476D01*
X130668761Y-38173476D02*
X130621142Y-38268714D01*
X130621142Y-38268714D02*
X130573523Y-38459190D01*
X130573523Y-38459190D02*
X130573523Y-38602047D01*
X130573523Y-38602047D02*
X130621142Y-38792523D01*
X130621142Y-38792523D02*
X130668761Y-38887761D01*
X130668761Y-38887761D02*
X130763999Y-38983000D01*
X130763999Y-38983000D02*
X130906856Y-39030619D01*
X130906856Y-39030619D02*
X131144951Y-39030619D01*
X129621142Y-39030619D02*
X130192570Y-39030619D01*
X129906856Y-39030619D02*
X129906856Y-38030619D01*
X129906856Y-38030619D02*
X130002094Y-38173476D01*
X130002094Y-38173476D02*
X130097332Y-38268714D01*
X130097332Y-38268714D02*
X130192570Y-38316333D01*
%TO.C,AD1*%
X164824904Y-32853714D02*
X164824904Y-33329904D01*
X165110619Y-32758476D02*
X164110619Y-33091809D01*
X164110619Y-33091809D02*
X165110619Y-33425142D01*
X165110619Y-33758476D02*
X164110619Y-33758476D01*
X164110619Y-33758476D02*
X164110619Y-33996571D01*
X164110619Y-33996571D02*
X164158238Y-34139428D01*
X164158238Y-34139428D02*
X164253476Y-34234666D01*
X164253476Y-34234666D02*
X164348714Y-34282285D01*
X164348714Y-34282285D02*
X164539190Y-34329904D01*
X164539190Y-34329904D02*
X164682047Y-34329904D01*
X164682047Y-34329904D02*
X164872523Y-34282285D01*
X164872523Y-34282285D02*
X164967761Y-34234666D01*
X164967761Y-34234666D02*
X165063000Y-34139428D01*
X165063000Y-34139428D02*
X165110619Y-33996571D01*
X165110619Y-33996571D02*
X165110619Y-33758476D01*
X165110619Y-35282285D02*
X165110619Y-34710857D01*
X165110619Y-34996571D02*
X164110619Y-34996571D01*
X164110619Y-34996571D02*
X164253476Y-34901333D01*
X164253476Y-34901333D02*
X164348714Y-34806095D01*
X164348714Y-34806095D02*
X164396333Y-34710857D01*
X164824904Y-54557714D02*
X164824904Y-55033904D01*
X165110619Y-54462476D02*
X164110619Y-54795809D01*
X164110619Y-54795809D02*
X165110619Y-55129142D01*
X165110619Y-55462476D02*
X164110619Y-55462476D01*
X164110619Y-55462476D02*
X164110619Y-55700571D01*
X164110619Y-55700571D02*
X164158238Y-55843428D01*
X164158238Y-55843428D02*
X164253476Y-55938666D01*
X164253476Y-55938666D02*
X164348714Y-55986285D01*
X164348714Y-55986285D02*
X164539190Y-56033904D01*
X164539190Y-56033904D02*
X164682047Y-56033904D01*
X164682047Y-56033904D02*
X164872523Y-55986285D01*
X164872523Y-55986285D02*
X164967761Y-55938666D01*
X164967761Y-55938666D02*
X165063000Y-55843428D01*
X165063000Y-55843428D02*
X165110619Y-55700571D01*
X165110619Y-55700571D02*
X165110619Y-55462476D01*
X165110619Y-56986285D02*
X165110619Y-56414857D01*
X165110619Y-56700571D02*
X164110619Y-56700571D01*
X164110619Y-56700571D02*
X164253476Y-56605333D01*
X164253476Y-56605333D02*
X164348714Y-56510095D01*
X164348714Y-56510095D02*
X164396333Y-56414857D01*
%TO.C,AD2*%
X171524904Y-55657714D02*
X171524904Y-56133904D01*
X171810619Y-55562476D02*
X170810619Y-55895809D01*
X170810619Y-55895809D02*
X171810619Y-56229142D01*
X171810619Y-56562476D02*
X170810619Y-56562476D01*
X170810619Y-56562476D02*
X170810619Y-56800571D01*
X170810619Y-56800571D02*
X170858238Y-56943428D01*
X170858238Y-56943428D02*
X170953476Y-57038666D01*
X170953476Y-57038666D02*
X171048714Y-57086285D01*
X171048714Y-57086285D02*
X171239190Y-57133904D01*
X171239190Y-57133904D02*
X171382047Y-57133904D01*
X171382047Y-57133904D02*
X171572523Y-57086285D01*
X171572523Y-57086285D02*
X171667761Y-57038666D01*
X171667761Y-57038666D02*
X171763000Y-56943428D01*
X171763000Y-56943428D02*
X171810619Y-56800571D01*
X171810619Y-56800571D02*
X171810619Y-56562476D01*
X170905857Y-57514857D02*
X170858238Y-57562476D01*
X170858238Y-57562476D02*
X170810619Y-57657714D01*
X170810619Y-57657714D02*
X170810619Y-57895809D01*
X170810619Y-57895809D02*
X170858238Y-57991047D01*
X170858238Y-57991047D02*
X170905857Y-58038666D01*
X170905857Y-58038666D02*
X171001095Y-58086285D01*
X171001095Y-58086285D02*
X171096333Y-58086285D01*
X171096333Y-58086285D02*
X171239190Y-58038666D01*
X171239190Y-58038666D02*
X171810619Y-57467238D01*
X171810619Y-57467238D02*
X171810619Y-58086285D01*
%TO.C,PU1*%
X150810619Y-55810095D02*
X149810619Y-55810095D01*
X149810619Y-55810095D02*
X149810619Y-56191047D01*
X149810619Y-56191047D02*
X149858238Y-56286285D01*
X149858238Y-56286285D02*
X149905857Y-56333904D01*
X149905857Y-56333904D02*
X150001095Y-56381523D01*
X150001095Y-56381523D02*
X150143952Y-56381523D01*
X150143952Y-56381523D02*
X150239190Y-56333904D01*
X150239190Y-56333904D02*
X150286809Y-56286285D01*
X150286809Y-56286285D02*
X150334428Y-56191047D01*
X150334428Y-56191047D02*
X150334428Y-55810095D01*
X149810619Y-56810095D02*
X150620142Y-56810095D01*
X150620142Y-56810095D02*
X150715380Y-56857714D01*
X150715380Y-56857714D02*
X150763000Y-56905333D01*
X150763000Y-56905333D02*
X150810619Y-57000571D01*
X150810619Y-57000571D02*
X150810619Y-57191047D01*
X150810619Y-57191047D02*
X150763000Y-57286285D01*
X150763000Y-57286285D02*
X150715380Y-57333904D01*
X150715380Y-57333904D02*
X150620142Y-57381523D01*
X150620142Y-57381523D02*
X149810619Y-57381523D01*
X150810619Y-58381523D02*
X150810619Y-57810095D01*
X150810619Y-58095809D02*
X149810619Y-58095809D01*
X149810619Y-58095809D02*
X149953476Y-58000571D01*
X149953476Y-58000571D02*
X150048714Y-57905333D01*
X150048714Y-57905333D02*
X150096333Y-57810095D01*
%TO.C,AD2*%
X171524904Y-33953714D02*
X171524904Y-34429904D01*
X171810619Y-33858476D02*
X170810619Y-34191809D01*
X170810619Y-34191809D02*
X171810619Y-34525142D01*
X171810619Y-34858476D02*
X170810619Y-34858476D01*
X170810619Y-34858476D02*
X170810619Y-35096571D01*
X170810619Y-35096571D02*
X170858238Y-35239428D01*
X170858238Y-35239428D02*
X170953476Y-35334666D01*
X170953476Y-35334666D02*
X171048714Y-35382285D01*
X171048714Y-35382285D02*
X171239190Y-35429904D01*
X171239190Y-35429904D02*
X171382047Y-35429904D01*
X171382047Y-35429904D02*
X171572523Y-35382285D01*
X171572523Y-35382285D02*
X171667761Y-35334666D01*
X171667761Y-35334666D02*
X171763000Y-35239428D01*
X171763000Y-35239428D02*
X171810619Y-35096571D01*
X171810619Y-35096571D02*
X171810619Y-34858476D01*
X170905857Y-35810857D02*
X170858238Y-35858476D01*
X170858238Y-35858476D02*
X170810619Y-35953714D01*
X170810619Y-35953714D02*
X170810619Y-36191809D01*
X170810619Y-36191809D02*
X170858238Y-36287047D01*
X170858238Y-36287047D02*
X170905857Y-36334666D01*
X170905857Y-36334666D02*
X171001095Y-36382285D01*
X171001095Y-36382285D02*
X171096333Y-36382285D01*
X171096333Y-36382285D02*
X171239190Y-36334666D01*
X171239190Y-36334666D02*
X171810619Y-35763238D01*
X171810619Y-35763238D02*
X171810619Y-36382285D01*
%TO.C,PU1*%
X150810619Y-34106095D02*
X149810619Y-34106095D01*
X149810619Y-34106095D02*
X149810619Y-34487047D01*
X149810619Y-34487047D02*
X149858238Y-34582285D01*
X149858238Y-34582285D02*
X149905857Y-34629904D01*
X149905857Y-34629904D02*
X150001095Y-34677523D01*
X150001095Y-34677523D02*
X150143952Y-34677523D01*
X150143952Y-34677523D02*
X150239190Y-34629904D01*
X150239190Y-34629904D02*
X150286809Y-34582285D01*
X150286809Y-34582285D02*
X150334428Y-34487047D01*
X150334428Y-34487047D02*
X150334428Y-34106095D01*
X149810619Y-35106095D02*
X150620142Y-35106095D01*
X150620142Y-35106095D02*
X150715380Y-35153714D01*
X150715380Y-35153714D02*
X150763000Y-35201333D01*
X150763000Y-35201333D02*
X150810619Y-35296571D01*
X150810619Y-35296571D02*
X150810619Y-35487047D01*
X150810619Y-35487047D02*
X150763000Y-35582285D01*
X150763000Y-35582285D02*
X150715380Y-35629904D01*
X150715380Y-35629904D02*
X150620142Y-35677523D01*
X150620142Y-35677523D02*
X149810619Y-35677523D01*
X150810619Y-36677523D02*
X150810619Y-36106095D01*
X150810619Y-36391809D02*
X149810619Y-36391809D01*
X149810619Y-36391809D02*
X149953476Y-36296571D01*
X149953476Y-36296571D02*
X150048714Y-36201333D01*
X150048714Y-36201333D02*
X150096333Y-36106095D01*
%TO.C,LED1*%
X156767047Y-60734619D02*
X157243237Y-60734619D01*
X157243237Y-60734619D02*
X157243237Y-59734619D01*
X156433713Y-60210809D02*
X156100380Y-60210809D01*
X155957523Y-60734619D02*
X156433713Y-60734619D01*
X156433713Y-60734619D02*
X156433713Y-59734619D01*
X156433713Y-59734619D02*
X155957523Y-59734619D01*
X155528951Y-60734619D02*
X155528951Y-59734619D01*
X155528951Y-59734619D02*
X155290856Y-59734619D01*
X155290856Y-59734619D02*
X155147999Y-59782238D01*
X155147999Y-59782238D02*
X155052761Y-59877476D01*
X155052761Y-59877476D02*
X155005142Y-59972714D01*
X155005142Y-59972714D02*
X154957523Y-60163190D01*
X154957523Y-60163190D02*
X154957523Y-60306047D01*
X154957523Y-60306047D02*
X155005142Y-60496523D01*
X155005142Y-60496523D02*
X155052761Y-60591761D01*
X155052761Y-60591761D02*
X155147999Y-60687000D01*
X155147999Y-60687000D02*
X155290856Y-60734619D01*
X155290856Y-60734619D02*
X155528951Y-60734619D01*
X154005142Y-60734619D02*
X154576570Y-60734619D01*
X154290856Y-60734619D02*
X154290856Y-59734619D01*
X154290856Y-59734619D02*
X154386094Y-59877476D01*
X154386094Y-59877476D02*
X154481332Y-59972714D01*
X154481332Y-59972714D02*
X154576570Y-60020333D01*
%TO.C,AD2*%
X147140904Y-55657714D02*
X147140904Y-56133904D01*
X147426619Y-55562476D02*
X146426619Y-55895809D01*
X146426619Y-55895809D02*
X147426619Y-56229142D01*
X147426619Y-56562476D02*
X146426619Y-56562476D01*
X146426619Y-56562476D02*
X146426619Y-56800571D01*
X146426619Y-56800571D02*
X146474238Y-56943428D01*
X146474238Y-56943428D02*
X146569476Y-57038666D01*
X146569476Y-57038666D02*
X146664714Y-57086285D01*
X146664714Y-57086285D02*
X146855190Y-57133904D01*
X146855190Y-57133904D02*
X146998047Y-57133904D01*
X146998047Y-57133904D02*
X147188523Y-57086285D01*
X147188523Y-57086285D02*
X147283761Y-57038666D01*
X147283761Y-57038666D02*
X147379000Y-56943428D01*
X147379000Y-56943428D02*
X147426619Y-56800571D01*
X147426619Y-56800571D02*
X147426619Y-56562476D01*
X146521857Y-57514857D02*
X146474238Y-57562476D01*
X146474238Y-57562476D02*
X146426619Y-57657714D01*
X146426619Y-57657714D02*
X146426619Y-57895809D01*
X146426619Y-57895809D02*
X146474238Y-57991047D01*
X146474238Y-57991047D02*
X146521857Y-58038666D01*
X146521857Y-58038666D02*
X146617095Y-58086285D01*
X146617095Y-58086285D02*
X146712333Y-58086285D01*
X146712333Y-58086285D02*
X146855190Y-58038666D01*
X146855190Y-58038666D02*
X147426619Y-57467238D01*
X147426619Y-57467238D02*
X147426619Y-58086285D01*
D13*
%TO.C,PU1*%
X128221500Y-55022000D02*
X127621500Y-55022000D01*
X129421500Y-55572000D02*
X129421500Y-56172000D01*
X126921500Y-55672000D02*
X126921500Y-58472000D01*
X129121500Y-55872000D02*
X129421500Y-55572000D01*
X129121500Y-55872000D02*
X129421500Y-56172000D01*
X128921500Y-58472000D02*
X128921500Y-55672000D01*
X127621500Y-59122000D02*
X128221500Y-59122000D01*
X128921500Y-55722000D02*
G75*
G03*
X128221500Y-55022000I-699999J1D01*
G01*
X127621500Y-55022000D02*
G75*
G03*
X126921500Y-55722000I-1J-699999D01*
G01*
X128221500Y-59122000D02*
G75*
G03*
X128921500Y-58422000I0J700000D01*
G01*
X126921500Y-58422000D02*
G75*
G03*
X127621500Y-59122000I700000J0D01*
G01*
%TO.C,LED1*%
X130364000Y-59122000D02*
X130964000Y-59122000D01*
X131664000Y-58422000D02*
X131664000Y-57022000D01*
X129664000Y-57022000D02*
X129664000Y-58422000D01*
X130964000Y-56322000D02*
X130364000Y-56322000D01*
X129664000Y-58422000D02*
G75*
G03*
X130364000Y-59122000I699999J-1D01*
G01*
X130964000Y-59122000D02*
G75*
G03*
X131664000Y-58422000I1J699999D01*
G01*
X130364000Y-56322000D02*
G75*
G03*
X129664000Y-57022000I0J-700000D01*
G01*
X131664000Y-57022000D02*
G75*
G03*
X130964000Y-56322000I-700000J0D01*
G01*
%TO.C,AD1*%
X141964000Y-37218000D02*
X142564000Y-37218000D01*
X140764000Y-36668000D02*
X140764000Y-36068000D01*
X143264000Y-36568000D02*
X143264000Y-33768000D01*
X141064000Y-36368000D02*
X140764000Y-36668000D01*
X141064000Y-36368000D02*
X140764000Y-36068000D01*
X141264000Y-33768000D02*
X141264000Y-36568000D01*
X142564000Y-33118000D02*
X141964000Y-33118000D01*
X141264000Y-36518000D02*
G75*
G03*
X141964000Y-37218000I699999J-1D01*
G01*
X142564000Y-37218000D02*
G75*
G03*
X143264000Y-36518000I1J699999D01*
G01*
X141964000Y-33118000D02*
G75*
G03*
X141264000Y-33818000I0J-700000D01*
G01*
X143264000Y-33818000D02*
G75*
G03*
X142564000Y-33118000I-700000J0D01*
G01*
X141964000Y-58922000D02*
X142564000Y-58922000D01*
X140764000Y-58372000D02*
X140764000Y-57772000D01*
X143264000Y-58272000D02*
X143264000Y-55472000D01*
X141064000Y-58072000D02*
X140764000Y-58372000D01*
X141064000Y-58072000D02*
X140764000Y-57772000D01*
X141264000Y-55472000D02*
X141264000Y-58272000D01*
X142564000Y-54822000D02*
X141964000Y-54822000D01*
X141264000Y-58222000D02*
G75*
G03*
X141964000Y-58922000I699999J-1D01*
G01*
X142564000Y-58922000D02*
G75*
G03*
X143264000Y-58222000I1J699999D01*
G01*
X141964000Y-54822000D02*
G75*
G03*
X141264000Y-55522000I0J-700000D01*
G01*
X143264000Y-55522000D02*
G75*
G03*
X142564000Y-54822000I-700000J0D01*
G01*
%TO.C,PU1*%
X128221500Y-33318000D02*
X127621500Y-33318000D01*
X129421500Y-33868000D02*
X129421500Y-34468000D01*
X126921500Y-33968000D02*
X126921500Y-36768000D01*
X129121500Y-34168000D02*
X129421500Y-33868000D01*
X129121500Y-34168000D02*
X129421500Y-34468000D01*
X128921500Y-36768000D02*
X128921500Y-33968000D01*
X127621500Y-37418000D02*
X128221500Y-37418000D01*
X128921500Y-34018000D02*
G75*
G03*
X128221500Y-33318000I-699999J1D01*
G01*
X127621500Y-33318000D02*
G75*
G03*
X126921500Y-34018000I-1J-699999D01*
G01*
X128221500Y-37418000D02*
G75*
G03*
X128921500Y-36718000I0J700000D01*
G01*
X126921500Y-36718000D02*
G75*
G03*
X127621500Y-37418000I700000J0D01*
G01*
%TO.C,LED1*%
X154748000Y-37418000D02*
X155348000Y-37418000D01*
X156048000Y-36718000D02*
X156048000Y-35318000D01*
X154048000Y-35318000D02*
X154048000Y-36718000D01*
X155348000Y-34618000D02*
X154748000Y-34618000D01*
X154048000Y-36718000D02*
G75*
G03*
X154748000Y-37418000I699999J-1D01*
G01*
X155348000Y-37418000D02*
G75*
G03*
X156048000Y-36718000I1J699999D01*
G01*
X154748000Y-34618000D02*
G75*
G03*
X154048000Y-35318000I0J-700000D01*
G01*
X156048000Y-35318000D02*
G75*
G03*
X155348000Y-34618000I-700000J0D01*
G01*
%TO.C,AD2*%
X144806500Y-37218000D02*
X145406500Y-37218000D01*
X143606500Y-36668000D02*
X143606500Y-36068000D01*
X146106500Y-36568000D02*
X146106500Y-33768000D01*
X143906500Y-36368000D02*
X143606500Y-36668000D01*
X143906500Y-36368000D02*
X143606500Y-36068000D01*
X144106500Y-33768000D02*
X144106500Y-36568000D01*
X145406500Y-33118000D02*
X144806500Y-33118000D01*
X144106500Y-36518000D02*
G75*
G03*
X144806500Y-37218000I699999J-1D01*
G01*
X145406500Y-37218000D02*
G75*
G03*
X146106500Y-36518000I1J699999D01*
G01*
X144806500Y-33118000D02*
G75*
G03*
X144106500Y-33818000I0J-700000D01*
G01*
X146106500Y-33818000D02*
G75*
G03*
X145406500Y-33118000I-700000J0D01*
G01*
%TO.C,LED1*%
X130364000Y-37418000D02*
X130964000Y-37418000D01*
X131664000Y-36718000D02*
X131664000Y-35318000D01*
X129664000Y-35318000D02*
X129664000Y-36718000D01*
X130964000Y-34618000D02*
X130364000Y-34618000D01*
X129664000Y-36718000D02*
G75*
G03*
X130364000Y-37418000I699999J-1D01*
G01*
X130964000Y-37418000D02*
G75*
G03*
X131664000Y-36718000I1J699999D01*
G01*
X130364000Y-34618000D02*
G75*
G03*
X129664000Y-35318000I0J-700000D01*
G01*
X131664000Y-35318000D02*
G75*
G03*
X130964000Y-34618000I-700000J0D01*
G01*
%TO.C,AD1*%
X166348000Y-37218000D02*
X166948000Y-37218000D01*
X165148000Y-36668000D02*
X165148000Y-36068000D01*
X167648000Y-36568000D02*
X167648000Y-33768000D01*
X165448000Y-36368000D02*
X165148000Y-36668000D01*
X165448000Y-36368000D02*
X165148000Y-36068000D01*
X165648000Y-33768000D02*
X165648000Y-36568000D01*
X166948000Y-33118000D02*
X166348000Y-33118000D01*
X165648000Y-36518000D02*
G75*
G03*
X166348000Y-37218000I699999J-1D01*
G01*
X166948000Y-37218000D02*
G75*
G03*
X167648000Y-36518000I1J699999D01*
G01*
X166348000Y-33118000D02*
G75*
G03*
X165648000Y-33818000I0J-700000D01*
G01*
X167648000Y-33818000D02*
G75*
G03*
X166948000Y-33118000I-700000J0D01*
G01*
X166348000Y-58922000D02*
X166948000Y-58922000D01*
X165148000Y-58372000D02*
X165148000Y-57772000D01*
X167648000Y-58272000D02*
X167648000Y-55472000D01*
X165448000Y-58072000D02*
X165148000Y-58372000D01*
X165448000Y-58072000D02*
X165148000Y-57772000D01*
X165648000Y-55472000D02*
X165648000Y-58272000D01*
X166948000Y-54822000D02*
X166348000Y-54822000D01*
X165648000Y-58222000D02*
G75*
G03*
X166348000Y-58922000I699999J-1D01*
G01*
X166948000Y-58922000D02*
G75*
G03*
X167648000Y-58222000I1J699999D01*
G01*
X166348000Y-54822000D02*
G75*
G03*
X165648000Y-55522000I0J-700000D01*
G01*
X167648000Y-55522000D02*
G75*
G03*
X166948000Y-54822000I-700000J0D01*
G01*
%TO.C,AD2*%
X169190500Y-58922000D02*
X169790500Y-58922000D01*
X167990500Y-58372000D02*
X167990500Y-57772000D01*
X170490500Y-58272000D02*
X170490500Y-55472000D01*
X168290500Y-58072000D02*
X167990500Y-58372000D01*
X168290500Y-58072000D02*
X167990500Y-57772000D01*
X168490500Y-55472000D02*
X168490500Y-58272000D01*
X169790500Y-54822000D02*
X169190500Y-54822000D01*
X168490500Y-58222000D02*
G75*
G03*
X169190500Y-58922000I699999J-1D01*
G01*
X169790500Y-58922000D02*
G75*
G03*
X170490500Y-58222000I1J699999D01*
G01*
X169190500Y-54822000D02*
G75*
G03*
X168490500Y-55522000I0J-700000D01*
G01*
X170490500Y-55522000D02*
G75*
G03*
X169790500Y-54822000I-700000J0D01*
G01*
%TO.C,PU1*%
X152605500Y-55022000D02*
X152005500Y-55022000D01*
X153805500Y-55572000D02*
X153805500Y-56172000D01*
X151305500Y-55672000D02*
X151305500Y-58472000D01*
X153505500Y-55872000D02*
X153805500Y-55572000D01*
X153505500Y-55872000D02*
X153805500Y-56172000D01*
X153305500Y-58472000D02*
X153305500Y-55672000D01*
X152005500Y-59122000D02*
X152605500Y-59122000D01*
X153305500Y-55722000D02*
G75*
G03*
X152605500Y-55022000I-699999J1D01*
G01*
X152005500Y-55022000D02*
G75*
G03*
X151305500Y-55722000I-1J-699999D01*
G01*
X152605500Y-59122000D02*
G75*
G03*
X153305500Y-58422000I0J700000D01*
G01*
X151305500Y-58422000D02*
G75*
G03*
X152005500Y-59122000I700000J0D01*
G01*
%TO.C,AD2*%
X169190500Y-37218000D02*
X169790500Y-37218000D01*
X167990500Y-36668000D02*
X167990500Y-36068000D01*
X170490500Y-36568000D02*
X170490500Y-33768000D01*
X168290500Y-36368000D02*
X167990500Y-36668000D01*
X168290500Y-36368000D02*
X167990500Y-36068000D01*
X168490500Y-33768000D02*
X168490500Y-36568000D01*
X169790500Y-33118000D02*
X169190500Y-33118000D01*
X168490500Y-36518000D02*
G75*
G03*
X169190500Y-37218000I699999J-1D01*
G01*
X169790500Y-37218000D02*
G75*
G03*
X170490500Y-36518000I1J699999D01*
G01*
X169190500Y-33118000D02*
G75*
G03*
X168490500Y-33818000I0J-700000D01*
G01*
X170490500Y-33818000D02*
G75*
G03*
X169790500Y-33118000I-700000J0D01*
G01*
%TO.C,PU1*%
X152605500Y-33318000D02*
X152005500Y-33318000D01*
X153805500Y-33868000D02*
X153805500Y-34468000D01*
X151305500Y-33968000D02*
X151305500Y-36768000D01*
X153505500Y-34168000D02*
X153805500Y-33868000D01*
X153505500Y-34168000D02*
X153805500Y-34468000D01*
X153305500Y-36768000D02*
X153305500Y-33968000D01*
X152005500Y-37418000D02*
X152605500Y-37418000D01*
X153305500Y-34018000D02*
G75*
G03*
X152605500Y-33318000I-699999J1D01*
G01*
X152005500Y-33318000D02*
G75*
G03*
X151305500Y-34018000I-1J-699999D01*
G01*
X152605500Y-37418000D02*
G75*
G03*
X153305500Y-36718000I0J700000D01*
G01*
X151305500Y-36718000D02*
G75*
G03*
X152005500Y-37418000I700000J0D01*
G01*
%TO.C,LED1*%
X154748000Y-59122000D02*
X155348000Y-59122000D01*
X156048000Y-58422000D02*
X156048000Y-57022000D01*
X154048000Y-57022000D02*
X154048000Y-58422000D01*
X155348000Y-56322000D02*
X154748000Y-56322000D01*
X154048000Y-58422000D02*
G75*
G03*
X154748000Y-59122000I699999J-1D01*
G01*
X155348000Y-59122000D02*
G75*
G03*
X156048000Y-58422000I1J699999D01*
G01*
X154748000Y-56322000D02*
G75*
G03*
X154048000Y-57022000I0J-700000D01*
G01*
X156048000Y-57022000D02*
G75*
G03*
X155348000Y-56322000I-700000J0D01*
G01*
%TO.C,AD2*%
X144806500Y-58922000D02*
X145406500Y-58922000D01*
X143606500Y-58372000D02*
X143606500Y-57772000D01*
X146106500Y-58272000D02*
X146106500Y-55472000D01*
X143906500Y-58072000D02*
X143606500Y-58372000D01*
X143906500Y-58072000D02*
X143606500Y-57772000D01*
X144106500Y-55472000D02*
X144106500Y-58272000D01*
X145406500Y-54822000D02*
X144806500Y-54822000D01*
X144106500Y-58222000D02*
G75*
G03*
X144806500Y-58922000I699999J-1D01*
G01*
X145406500Y-58922000D02*
G75*
G03*
X146106500Y-58222000I1J699999D01*
G01*
X144806500Y-54822000D02*
G75*
G03*
X144106500Y-55522000I0J-700000D01*
G01*
X146106500Y-55522000D02*
G75*
G03*
X145406500Y-54822000I-700000J0D01*
G01*
%TD*%
M02*
