%TF.GenerationSoftware,KiCad,Pcbnew,7.0.2-6a45011f42~172~ubuntu22.04.1*%
%TF.CreationDate,2023-07-04T10:01:32-03:00*%
%TF.ProjectId,TMP117_custom_board_panelize,544d5031-3137-45f6-9375-73746f6d5f62,rev?*%
%TF.SameCoordinates,Original*%
%TF.FileFunction,Soldermask,Top*%
%TF.FilePolarity,Negative*%
%FSLAX46Y46*%
G04 Gerber Fmt 4.6, Leading zero omitted, Abs format (unit mm)*
G04 Created by KiCad (PCBNEW 7.0.2-6a45011f42~172~ubuntu22.04.1) date 2023-07-04 10:01:32*
%MOMM*%
%LPD*%
G01*
G04 APERTURE LIST*
G04 Aperture macros list*
%AMRoundRect*
0 Rectangle with rounded corners*
0 $1 Rounding radius*
0 $2 $3 $4 $5 $6 $7 $8 $9 X,Y pos of 4 corners*
0 Add a 4 corners polygon primitive as box body*
4,1,4,$2,$3,$4,$5,$6,$7,$8,$9,$2,$3,0*
0 Add four circle primitives for the rounded corners*
1,1,$1+$1,$2,$3*
1,1,$1+$1,$4,$5*
1,1,$1+$1,$6,$7*
1,1,$1+$1,$8,$9*
0 Add four rect primitives between the rounded corners*
20,1,$1+$1,$2,$3,$4,$5,0*
20,1,$1+$1,$4,$5,$6,$7,0*
20,1,$1+$1,$6,$7,$8,$9,0*
20,1,$1+$1,$8,$9,$2,$3,0*%
G04 Aperture macros list end*
%ADD10R,1.700000X1.700000*%
%ADD11O,1.700000X1.700000*%
%ADD12R,0.449999X0.299999*%
%ADD13RoundRect,0.155000X0.212500X0.155000X-0.212500X0.155000X-0.212500X-0.155000X0.212500X-0.155000X0*%
%ADD14RoundRect,0.237500X-0.287500X-0.237500X0.287500X-0.237500X0.287500X0.237500X-0.287500X0.237500X0*%
%ADD15RoundRect,0.150000X-0.512500X-0.150000X0.512500X-0.150000X0.512500X0.150000X-0.512500X0.150000X0*%
%ADD16RoundRect,0.237500X-0.250000X-0.237500X0.250000X-0.237500X0.250000X0.237500X-0.250000X0.237500X0*%
%ADD17RoundRect,0.237500X-0.237500X0.250000X-0.237500X-0.250000X0.237500X-0.250000X0.237500X0.250000X0*%
G04 APERTURE END LIST*
D10*
%TO.C,J1*%
X129958000Y-43764000D03*
D11*
X132498000Y-43764000D03*
X135038000Y-43764000D03*
X137578000Y-43764000D03*
X140118000Y-43764000D03*
X142658000Y-43764000D03*
%TD*%
D12*
%TO.C,SENS1*%
X135333001Y-31683999D03*
X135333001Y-32334000D03*
X135333001Y-32983999D03*
X137282999Y-32983999D03*
X137282999Y-32334000D03*
X137282999Y-31683999D03*
%TD*%
D13*
%TO.C,C1*%
X161250800Y-30238200D03*
X160115800Y-30238200D03*
%TD*%
D14*
%TO.C,D1*%
X154298000Y-41168000D03*
X156048000Y-41168000D03*
%TD*%
D15*
%TO.C,PROT1*%
X159554500Y-39245000D03*
X159554500Y-40195000D03*
X159554500Y-41145000D03*
X161829500Y-41145000D03*
X161829500Y-40195000D03*
X161829500Y-39245000D03*
%TD*%
D16*
%TO.C,R3*%
X153912000Y-57372000D03*
X155737000Y-57372000D03*
%TD*%
D13*
%TO.C,C1*%
X161250800Y-51942200D03*
X160115800Y-51942200D03*
%TD*%
D10*
%TO.C,J1*%
X154342000Y-43764000D03*
D11*
X156882000Y-43764000D03*
X159422000Y-43764000D03*
X161962000Y-43764000D03*
X164502000Y-43764000D03*
X167042000Y-43764000D03*
%TD*%
D12*
%TO.C,SENS1*%
X159717001Y-53387999D03*
X159717001Y-54038000D03*
X159717001Y-54687999D03*
X161666999Y-54687999D03*
X161666999Y-54038000D03*
X161666999Y-53387999D03*
%TD*%
D16*
%TO.C,R4*%
X129528000Y-55772000D03*
X131353000Y-55772000D03*
%TD*%
D13*
%TO.C,C1*%
X136866800Y-51942200D03*
X135731800Y-51942200D03*
%TD*%
D16*
%TO.C,R2*%
X153935500Y-58972000D03*
X155760500Y-58972000D03*
%TD*%
D17*
%TO.C,R1*%
X165721200Y-34454600D03*
X165721200Y-36279600D03*
%TD*%
D12*
%TO.C,SENS1*%
X135333001Y-53387999D03*
X135333001Y-54038000D03*
X135333001Y-54687999D03*
X137282999Y-54687999D03*
X137282999Y-54038000D03*
X137282999Y-53387999D03*
%TD*%
D16*
%TO.C,R3*%
X153912000Y-35668000D03*
X155737000Y-35668000D03*
%TD*%
D17*
%TO.C,R1*%
X165721200Y-56158600D03*
X165721200Y-57983600D03*
%TD*%
D16*
%TO.C,R5*%
X129551500Y-60572000D03*
X131376500Y-60572000D03*
%TD*%
D17*
%TO.C,R1*%
X141337200Y-34454600D03*
X141337200Y-36279600D03*
%TD*%
D12*
%TO.C,SENS1*%
X159717001Y-31683999D03*
X159717001Y-32334000D03*
X159717001Y-32983999D03*
X161666999Y-32983999D03*
X161666999Y-32334000D03*
X161666999Y-31683999D03*
%TD*%
D10*
%TO.C,J1*%
X129958000Y-65468000D03*
D11*
X132498000Y-65468000D03*
X135038000Y-65468000D03*
X137578000Y-65468000D03*
X140118000Y-65468000D03*
X142658000Y-65468000D03*
%TD*%
D16*
%TO.C,R4*%
X153912000Y-55772000D03*
X155737000Y-55772000D03*
%TD*%
D17*
%TO.C,R1*%
X141337200Y-56158600D03*
X141337200Y-57983600D03*
%TD*%
D16*
%TO.C,R5*%
X129551500Y-38868000D03*
X131376500Y-38868000D03*
%TD*%
D14*
%TO.C,D1*%
X154298000Y-62872000D03*
X156048000Y-62872000D03*
%TD*%
D16*
%TO.C,R2*%
X129551500Y-37268000D03*
X131376500Y-37268000D03*
%TD*%
%TO.C,R4*%
X153912000Y-34068000D03*
X155737000Y-34068000D03*
%TD*%
%TO.C,R5*%
X153935500Y-60572000D03*
X155760500Y-60572000D03*
%TD*%
%TO.C,R3*%
X129528000Y-35668000D03*
X131353000Y-35668000D03*
%TD*%
D14*
%TO.C,D1*%
X129914000Y-41168000D03*
X131664000Y-41168000D03*
%TD*%
D10*
%TO.C,J1*%
X154342000Y-65468000D03*
D11*
X156882000Y-65468000D03*
X159422000Y-65468000D03*
X161962000Y-65468000D03*
X164502000Y-65468000D03*
X167042000Y-65468000D03*
%TD*%
D16*
%TO.C,R4*%
X129528000Y-34068000D03*
X131353000Y-34068000D03*
%TD*%
%TO.C,R2*%
X129551500Y-58972000D03*
X131376500Y-58972000D03*
%TD*%
%TO.C,R3*%
X129528000Y-57372000D03*
X131353000Y-57372000D03*
%TD*%
D15*
%TO.C,PROT1*%
X135170500Y-39245000D03*
X135170500Y-40195000D03*
X135170500Y-41145000D03*
X137445500Y-41145000D03*
X137445500Y-40195000D03*
X137445500Y-39245000D03*
%TD*%
D14*
%TO.C,D1*%
X129914000Y-62872000D03*
X131664000Y-62872000D03*
%TD*%
D13*
%TO.C,C1*%
X136866800Y-30238200D03*
X135731800Y-30238200D03*
%TD*%
D15*
%TO.C,PROT1*%
X159554500Y-60949000D03*
X159554500Y-61899000D03*
X159554500Y-62849000D03*
X161829500Y-62849000D03*
X161829500Y-61899000D03*
X161829500Y-60949000D03*
%TD*%
D16*
%TO.C,R5*%
X153935500Y-38868000D03*
X155760500Y-38868000D03*
%TD*%
%TO.C,R2*%
X153935500Y-37268000D03*
X155760500Y-37268000D03*
%TD*%
D15*
%TO.C,PROT1*%
X135170500Y-60949000D03*
X135170500Y-61899000D03*
X135170500Y-62849000D03*
X137445500Y-62849000D03*
X137445500Y-61899000D03*
X137445500Y-60949000D03*
%TD*%
M02*
