%TF.GenerationSoftware,KiCad,Pcbnew,7.0.2-6a45011f42~172~ubuntu22.04.1*%
%TF.CreationDate,2023-07-04T10:01:22-03:00*%
%TF.ProjectId,TMP117_custom_board_panelize,544d5031-3137-45f6-9375-73746f6d5f62,rev?*%
%TF.SameCoordinates,Original*%
%TF.FileFunction,Drillmap*%
%TF.FilePolarity,Positive*%
%FSLAX45Y45*%
G04 Gerber Fmt 4.5, Leading zero omitted, Abs format (unit mm)*
G04 Created by KiCad (PCBNEW 7.0.2-6a45011f42~172~ubuntu22.04.1) date 2023-07-04 10:01:22*
%MOMM*%
%LPD*%
G01*
G04 APERTURE LIST*
%ADD10C,0.100000*%
%ADD11C,0.200000*%
%ADD12C,0.040000*%
G04 APERTURE END LIST*
D10*
X14504617Y-5258510D02*
X14500235Y-5256215D01*
X12806863Y-2964456D02*
X12808426Y-2969150D01*
X16931242Y-3954127D02*
X16935237Y-3951210D01*
X16897326Y-6235407D02*
X16895879Y-6230676D01*
X14646069Y-6165246D02*
X14647863Y-6169856D01*
X17050100Y-3076140D02*
X17046178Y-3079156D01*
X13822800Y-5620698D02*
X13820243Y-5617234D01*
X16887475Y-5176214D02*
X16887231Y-5171273D01*
X17091711Y-4023521D02*
X17092078Y-4028455D01*
X15061953Y-6149925D02*
X15064721Y-6145825D01*
X15051326Y-6172193D02*
X15053005Y-6167540D01*
X15832058Y-5211774D02*
X15834185Y-5211439D01*
X16938635Y-5256215D02*
X16934371Y-5253707D01*
X13424564Y-5218003D02*
X13428042Y-5220540D01*
X14518696Y-4127036D02*
X14514108Y-4125185D01*
X12411600Y-7740800D02*
X17288400Y-7740800D01*
X12789757Y-5104943D02*
X12792820Y-5108827D01*
X17037912Y-5082613D02*
X17042113Y-5085226D01*
X17020265Y-6299781D02*
X17015484Y-6301051D01*
X16889668Y-5146720D02*
X16890879Y-5141924D01*
X17047113Y-4116974D02*
X17042912Y-4119587D01*
X15169484Y-6301051D02*
X15164646Y-6302084D01*
X17038588Y-4121990D02*
X17034150Y-4124175D01*
X17091101Y-6218588D02*
X17090248Y-6223461D01*
X15879891Y-3409411D02*
X15880534Y-3411466D01*
X17015484Y-6106548D02*
X17020265Y-6107819D01*
X12740865Y-3094381D02*
X12736084Y-3095651D01*
X15169646Y-5070516D02*
X15174484Y-5071549D01*
X17034150Y-6294575D02*
X17029610Y-6296539D01*
X13432732Y-5224973D02*
X13435461Y-5228302D01*
X14651848Y-4053061D02*
X14650756Y-4057885D01*
X12631321Y-2940425D02*
X12634287Y-2936466D01*
X15876244Y-5615111D02*
X15873865Y-5618700D01*
X17010646Y-4131684D02*
X17005763Y-4132476D01*
X14457513Y-5127976D02*
X14459643Y-5123511D01*
X14451268Y-5190880D02*
X14450295Y-5186029D01*
X16254599Y-5269509D02*
X16253210Y-5265434D01*
X16887964Y-5156463D02*
X16888695Y-5151571D01*
X12806863Y-3032344D02*
X12805069Y-3036954D01*
X12668108Y-3941615D02*
X12672696Y-3939764D01*
X12806700Y-4048188D02*
X12805848Y-4053061D01*
X14619072Y-2927253D02*
X14622504Y-2930816D01*
X15236450Y-6160730D02*
X15238469Y-6165246D01*
X15238469Y-3994846D02*
X15240263Y-3999456D01*
X14537691Y-3097781D02*
X14532790Y-3097110D01*
X15881822Y-5258808D02*
X15881067Y-5263047D01*
X15154910Y-5268731D02*
X15149963Y-5268792D01*
X13867474Y-5213066D02*
X13871542Y-5214479D01*
X14462513Y-6162976D02*
X14464643Y-6158511D01*
X15106508Y-6295585D02*
X15102017Y-6293510D01*
X14478446Y-6138059D02*
X14481790Y-6134413D01*
X16971328Y-6301597D02*
X16966517Y-6300446D01*
X15873937Y-5568398D02*
X15876305Y-5571994D01*
X12659235Y-3945985D02*
X12663617Y-3943690D01*
X16966517Y-6107154D02*
X16971328Y-6106002D01*
X15880534Y-5581866D02*
X15881503Y-5586061D01*
X15879851Y-5607304D02*
X15878246Y-5611299D01*
X14528117Y-3936754D02*
X14532928Y-3935602D01*
X16894668Y-6225880D02*
X16893695Y-6221029D01*
X12668617Y-5258510D02*
X12664235Y-5256215D01*
X14509617Y-6293510D02*
X14505235Y-6291215D01*
X15236753Y-3050174D02*
X15234088Y-3054342D01*
X16976190Y-6302510D02*
X16971328Y-6301597D01*
X12620992Y-6154157D02*
X12623553Y-6149925D01*
X16903043Y-4078689D02*
X16900913Y-4074224D01*
X15250100Y-2983612D02*
X15250711Y-2988521D01*
X16291200Y-3368400D02*
X16291200Y-3138400D01*
X13420849Y-3460774D02*
X13416930Y-3462558D01*
X13816199Y-3407691D02*
X13817994Y-3403777D01*
X12659235Y-4120815D02*
X12654971Y-4118307D01*
X16264095Y-3053315D02*
X16265660Y-3051836D01*
X15251078Y-5173745D02*
X15250711Y-5178679D01*
X12745210Y-6111061D02*
X12749750Y-6113024D01*
X15125517Y-5072154D02*
X15130328Y-5071002D01*
X12668617Y-5079090D02*
X12673108Y-5077015D01*
X15159847Y-2898774D02*
X15164763Y-2899324D01*
X15130328Y-5266598D02*
X15125517Y-5265446D01*
X14514108Y-6295585D02*
X14509617Y-6293510D01*
X15053005Y-3997140D02*
X15054913Y-3992576D01*
X15880495Y-3071350D02*
X15881039Y-3073434D01*
X14641809Y-6251280D02*
X14639353Y-6255574D01*
X14456268Y-6225880D02*
X14455295Y-6221029D01*
X12749750Y-6294575D02*
X12745210Y-6296539D01*
X16961769Y-6299057D02*
X16957096Y-6297436D01*
X14453926Y-3030007D02*
X14452479Y-3025276D01*
X14641069Y-3036954D02*
X14641069Y-3036954D01*
X15229088Y-3977458D02*
X15231753Y-3981625D01*
X12793353Y-6255574D02*
X12790688Y-6259742D01*
X17020265Y-3937419D02*
X17024978Y-3938924D01*
X12745578Y-5074324D02*
X12750210Y-5076061D01*
X15224904Y-2930816D02*
X15228157Y-2934543D01*
X17019978Y-5074324D02*
X17024610Y-5076061D01*
X13404380Y-3040785D02*
X13408653Y-3041312D01*
X15053005Y-4069660D02*
X15051326Y-4065007D01*
X16255497Y-5236002D02*
X16257499Y-5232191D01*
X12740865Y-2902419D02*
X12745578Y-2903924D01*
X13844091Y-3464233D02*
X13840012Y-3462855D01*
X13408653Y-3464893D02*
X13404380Y-3465420D01*
X15250100Y-5183588D02*
X15249248Y-5188461D01*
X16251599Y-5594937D02*
X16251702Y-5590632D01*
X16943017Y-5079090D02*
X16947508Y-5077015D01*
X16371200Y-3098400D02*
X16371200Y-3408400D01*
X12664235Y-5256215D02*
X12659971Y-5253707D01*
X17090248Y-6223461D02*
X17089156Y-6228285D01*
X13830605Y-3049125D02*
X13834207Y-3046768D01*
X14646069Y-4071954D02*
X14644050Y-4076470D01*
X13819099Y-3061791D02*
X13820243Y-3059966D01*
X14552510Y-5068869D02*
X14557447Y-5069175D01*
X12740865Y-5072819D02*
X12745578Y-5074324D01*
X13875445Y-3045896D02*
X13879144Y-3048099D01*
X15178978Y-4127875D02*
X15174265Y-4129381D01*
X16966328Y-3096197D02*
X16961517Y-3095046D01*
X16990910Y-5268731D02*
X16985963Y-5268792D01*
X13442671Y-5583951D02*
X13443103Y-5586061D01*
X16990910Y-2898469D02*
X16995847Y-2898774D01*
X15115769Y-6108543D02*
X15120517Y-6107154D01*
X15877289Y-5233771D02*
X15879095Y-5237679D01*
X17075088Y-6259742D02*
X17072220Y-6263773D01*
X12623553Y-6149925D02*
X12626321Y-6145825D01*
X16915190Y-5099413D02*
X16918709Y-5095937D01*
X16254644Y-3439221D02*
X16253892Y-3437203D01*
X16282491Y-3464233D02*
X16278412Y-3462855D01*
X15876244Y-3444711D02*
X15873865Y-3448300D01*
X12811700Y-5154012D02*
X12812311Y-5158921D01*
X16315722Y-5630249D02*
X16311916Y-5632262D01*
X13395785Y-3041039D02*
X13400076Y-3040693D01*
X17084469Y-6242354D02*
X17082450Y-6246870D01*
X16895913Y-2957576D02*
X16898043Y-2953111D01*
X13873516Y-5632262D02*
X13869526Y-5633879D01*
X13817994Y-3103023D02*
X13817047Y-3101089D01*
X17087200Y-5168800D02*
X17087078Y-5173745D01*
X14639050Y-5125730D02*
X14641069Y-5130246D01*
X12759188Y-2909810D02*
X12763512Y-2912213D01*
X14562447Y-3933774D02*
X14567363Y-3934324D01*
X16905392Y-6253442D02*
X16903043Y-6249089D01*
X15192588Y-6292390D02*
X15188150Y-6294575D01*
X17042912Y-6117613D02*
X17047113Y-6120226D01*
X12628553Y-2944525D02*
X12631321Y-2940425D01*
X15086396Y-3074561D02*
X15082709Y-3071263D01*
X16916846Y-6269541D02*
X16913687Y-6265734D01*
X12771778Y-5249556D02*
X12767713Y-5252374D01*
X12701691Y-2899019D02*
X12706620Y-2898591D01*
X12701620Y-3933591D02*
X12706563Y-3933408D01*
X12801863Y-3999456D02*
X12803426Y-4004150D01*
X12623643Y-5214089D02*
X12621513Y-5209624D01*
X15094237Y-2916210D02*
X15098371Y-2913493D01*
X17042113Y-2914826D02*
X17046178Y-2917644D01*
X15882144Y-5594637D02*
X15881811Y-5598930D01*
X12696691Y-6104419D02*
X12701620Y-6103991D01*
X14572246Y-6302084D02*
X14567363Y-6302876D01*
X14518696Y-6297436D02*
X14514108Y-6295585D01*
X12812311Y-5178679D02*
X12811700Y-5183588D01*
X12646842Y-6283072D02*
X12642996Y-6279961D01*
X13443426Y-3417790D02*
X13443748Y-3422084D01*
X15231753Y-6255574D02*
X15229088Y-6259742D01*
X15085242Y-3954127D02*
X15089237Y-3951210D01*
X15919200Y-2700000D02*
X14850000Y-2700000D01*
X17015265Y-2902419D02*
X17019978Y-2903924D01*
X12807311Y-6213679D02*
X12806700Y-6218588D01*
X14639050Y-2955330D02*
X14641069Y-2959846D01*
X13932800Y-5268800D02*
X13932800Y-5578800D01*
X17082826Y-5198050D02*
X17082826Y-5198050D01*
X17288400Y-7740800D02*
X17288400Y-7240800D01*
X17062472Y-4104547D02*
X17058868Y-4107935D01*
X14476790Y-2929013D02*
X14480309Y-2925537D01*
X15842544Y-3368099D02*
X15869734Y-3393099D01*
X13814299Y-5603466D02*
X13813532Y-5599229D01*
X17087826Y-6233050D02*
X17086263Y-6237744D01*
X13871542Y-3462721D02*
X13869526Y-3463479D01*
X15224904Y-5236384D02*
X15221472Y-5239947D01*
X13443748Y-3422084D02*
X13443744Y-3424237D01*
X13813199Y-3424537D02*
X13813302Y-3420232D01*
X14636809Y-2950920D02*
X14639050Y-2955330D01*
X14458926Y-6172193D02*
X14460605Y-6167540D01*
X17029150Y-3089175D02*
X17024610Y-3091139D01*
X13443103Y-5586061D02*
X13443641Y-5590333D01*
X15234088Y-5224742D02*
X15231220Y-5228773D01*
X14518369Y-5264057D02*
X14513696Y-5262436D01*
X13383427Y-3044637D02*
X13385402Y-3043779D01*
X13443632Y-5596788D02*
X13443081Y-5601058D01*
X17019978Y-2903924D02*
X17024610Y-2905661D01*
X14460605Y-3997140D02*
X14462513Y-3992576D01*
X12637446Y-5103059D02*
X12640790Y-5099413D01*
X17084156Y-3022885D02*
X17082826Y-3027650D01*
X15107017Y-5079090D02*
X15111508Y-5077015D01*
X16284578Y-3464765D02*
X16282491Y-3464233D01*
X15871136Y-3451630D02*
X15868083Y-3454666D01*
X15093371Y-6118893D02*
X15097635Y-6116385D01*
X14651848Y-4013739D02*
X14652700Y-4018612D01*
X17086263Y-6169856D02*
X17087826Y-6174550D01*
X16257438Y-5275306D02*
X16255447Y-5271489D01*
X12608075Y-4040814D02*
X12607830Y-4035873D01*
X16251596Y-5254817D02*
X16251711Y-5250513D01*
X13389469Y-5212767D02*
X13391551Y-5212217D01*
X12726363Y-2899324D02*
X12731246Y-2900116D01*
X12800069Y-3994846D02*
X12801863Y-3999456D01*
X12672696Y-6297436D02*
X12668108Y-6295585D01*
X13815492Y-3069597D02*
X13817097Y-3065602D01*
X12610268Y-4055480D02*
X12609295Y-4050629D01*
X15107017Y-5258510D02*
X15102635Y-5256215D01*
X14454075Y-6211214D02*
X14453830Y-6206273D01*
X12810848Y-5149139D02*
X12811700Y-5154012D01*
X15855330Y-3462558D02*
X15851251Y-3463936D01*
X16908687Y-3060334D02*
X16905721Y-3056375D01*
X12647996Y-5092639D02*
X12651842Y-5089527D01*
X14607778Y-5249556D02*
X14603713Y-5252374D01*
X15054879Y-5195676D02*
X15053668Y-5190880D01*
X15246200Y-4033400D02*
X15246078Y-4038345D01*
X12783072Y-3069547D02*
X12779467Y-3072935D01*
X15249248Y-5188461D02*
X15248156Y-5193285D01*
X14595750Y-6113024D02*
X14600188Y-6115210D01*
X15221472Y-5239947D02*
X15217867Y-5243335D01*
X17091711Y-4043279D02*
X17091101Y-4048188D01*
X16307926Y-5633879D02*
X16303792Y-5635083D01*
X17086101Y-5183588D02*
X17085248Y-5188461D01*
X16920190Y-6273187D02*
X16916846Y-6269541D01*
X16888695Y-5151571D02*
X16889668Y-5146720D01*
X15077709Y-6130937D02*
X15081396Y-6127639D01*
X13863285Y-3465126D02*
X13859017Y-3465689D01*
X12810848Y-5188461D02*
X12809756Y-5193285D01*
X17058868Y-3958865D02*
X17062472Y-3962253D01*
X14595750Y-3942624D02*
X14600188Y-3944810D01*
X17077450Y-2955330D02*
X17079469Y-2959846D01*
X13442644Y-3432767D02*
X13441451Y-3436904D01*
X12798353Y-2946625D02*
X12800809Y-2950920D01*
X16253892Y-3437203D02*
X16253243Y-3435149D01*
X16935237Y-6285990D02*
X16931242Y-6283072D01*
X16898043Y-5214089D02*
X16895913Y-5209624D01*
X14475287Y-6141866D02*
X14478446Y-6138059D01*
X14581865Y-3937419D02*
X14586578Y-3938924D01*
X12789757Y-2934543D02*
X12792820Y-2938427D01*
X13438893Y-5613230D02*
X13436700Y-5616936D01*
X16943635Y-3945985D02*
X16948017Y-3943690D01*
X15838475Y-5635911D02*
X15834183Y-5635566D01*
X17033588Y-2909810D02*
X17037912Y-2912213D01*
X12610268Y-4011320D02*
X12611479Y-4006524D01*
X12654971Y-6288707D02*
X12650837Y-6285990D01*
X12663617Y-3943690D02*
X12668108Y-3941615D01*
X13813199Y-5594937D02*
X13813302Y-5590632D01*
X12792820Y-2938427D02*
X12795688Y-2942458D01*
X13828898Y-5626762D02*
X13827260Y-5625364D01*
X14475287Y-6265734D02*
X14472321Y-6261775D01*
X15159763Y-3934324D02*
X15164646Y-3935116D01*
X15882144Y-3424237D02*
X15881811Y-3428530D01*
X12621513Y-3039224D02*
X12619605Y-3034660D01*
X13854713Y-3465817D02*
X13852562Y-3465717D01*
X14481790Y-6273187D02*
X14478446Y-6269541D01*
X13416930Y-5632958D02*
X13412851Y-5634336D01*
X13813532Y-5599229D02*
X13813311Y-5597087D01*
X17092078Y-6208745D02*
X17091711Y-6213679D01*
X16887964Y-3010737D02*
X16887475Y-3005814D01*
X16990910Y-3098331D02*
X16985963Y-3098392D01*
X16966517Y-6300446D02*
X16961769Y-6299057D01*
X17070088Y-2942458D02*
X17072754Y-2946625D01*
X13838030Y-5215187D02*
X13842034Y-5213604D01*
X15250711Y-5158921D02*
X15251078Y-5163855D01*
X13817994Y-3403777D02*
X13820177Y-3400066D01*
X15051964Y-5156463D02*
X15052695Y-5151571D01*
X16890879Y-5141924D02*
X16892326Y-5137193D01*
X16976190Y-4132110D02*
X16971328Y-4131197D01*
X14572246Y-3935116D02*
X14577084Y-3936148D01*
X17086711Y-3008279D02*
X17086101Y-3013188D01*
X15125517Y-2901754D02*
X15130328Y-2900602D01*
X13400075Y-3465511D02*
X13395783Y-3465166D01*
X15241450Y-5211870D02*
X15239209Y-5216280D01*
X14567246Y-5070516D02*
X14572084Y-5071549D01*
X16956769Y-5073543D02*
X16961517Y-5072154D01*
X12812311Y-2988521D02*
X12812678Y-2993455D01*
X15089237Y-6121610D02*
X15093371Y-6118893D01*
X15193150Y-5259575D02*
X15188610Y-5261539D01*
X15169484Y-3936148D02*
X15174265Y-3937419D01*
X12673108Y-5077015D02*
X12677696Y-5075164D01*
X12721447Y-5268425D02*
X12716510Y-5268731D01*
X15239209Y-3045880D02*
X15236753Y-3050174D01*
X12805069Y-5130246D02*
X12806863Y-5134856D01*
X17081263Y-3032344D02*
X17079469Y-3036954D01*
X12808426Y-2969150D02*
X12809756Y-2973914D01*
X17080209Y-6251280D02*
X17077754Y-6255574D01*
X12706620Y-2898591D02*
X12711563Y-2898408D01*
X12795809Y-4080880D02*
X12793353Y-4085174D01*
X15149910Y-6303731D02*
X15144963Y-6303792D01*
X14547563Y-3098392D02*
X14542620Y-3098209D01*
X15183610Y-6111061D02*
X15188150Y-6113024D01*
X17047113Y-6120226D02*
X17051178Y-6123044D01*
X14500235Y-2910985D02*
X14504617Y-2908690D01*
X14464553Y-5222675D02*
X14461992Y-5218443D01*
X16264010Y-5283800D02*
X16261124Y-5280605D01*
X15064721Y-6261775D02*
X15061953Y-6257675D01*
X12642996Y-3957239D02*
X12646842Y-3954127D01*
X16899005Y-6240060D02*
X16897326Y-6235407D01*
X15047695Y-4050629D02*
X15046964Y-4045737D01*
X12663617Y-6114090D02*
X12668108Y-6112015D01*
X12625992Y-3048042D02*
X12623643Y-3043689D01*
X16981020Y-2898591D02*
X16985963Y-2898408D01*
X12609295Y-4016170D02*
X12610268Y-4011320D01*
X14505235Y-4120815D02*
X14500971Y-4118307D01*
X12812678Y-5163855D02*
X12812800Y-5168800D01*
X15832056Y-3464830D02*
X15827867Y-3463837D01*
X12812311Y-3008279D02*
X12811700Y-3013188D01*
X15046964Y-6216137D02*
X15046475Y-6211214D01*
X15046230Y-6201326D02*
X15046475Y-6196386D01*
X16252241Y-5261239D02*
X16251702Y-5256968D01*
X12807678Y-4038345D02*
X12807311Y-4043279D01*
X13435534Y-3108198D02*
X13434217Y-3109902D01*
X17079469Y-3036954D02*
X17077450Y-3041470D01*
X14455605Y-5132540D02*
X14457513Y-5127976D01*
X12659235Y-6116385D02*
X12663617Y-6114090D01*
X15221472Y-3069547D02*
X15217867Y-3072935D01*
X14646848Y-5149139D02*
X14647700Y-5154012D01*
X14616700Y-6126059D02*
X14620467Y-6129265D01*
X15821827Y-5215037D02*
X15825817Y-5213421D01*
X15201912Y-5254987D02*
X15197588Y-5257390D01*
X14459643Y-2953111D02*
X14461992Y-2948757D01*
X15216472Y-6274947D02*
X15212867Y-6278335D01*
X17042912Y-3947213D02*
X17047113Y-3949826D01*
X14646848Y-2978739D02*
X14647700Y-2983612D01*
X17087826Y-6174550D02*
X17089156Y-6179314D01*
X14454075Y-6196386D02*
X14454564Y-6191463D01*
X14449564Y-5181137D02*
X14449075Y-5176214D01*
X15869644Y-3053017D02*
X15872539Y-3056203D01*
X15183978Y-3092875D02*
X15179265Y-3094381D01*
X15144963Y-6303792D02*
X15140020Y-6303609D01*
X15169646Y-5267084D02*
X15164763Y-5267876D01*
X14466992Y-4083042D02*
X14464643Y-4078689D01*
X13442129Y-5265132D02*
X13440740Y-5269207D01*
X15164646Y-6105516D02*
X15169484Y-6106548D01*
X14542691Y-6104419D02*
X14547620Y-6103991D01*
X16255447Y-5271489D02*
X16254599Y-5269509D01*
X13848289Y-5635590D02*
X13846178Y-5635165D01*
X13932800Y-3098400D02*
X13932800Y-3408400D01*
X17064157Y-5232657D02*
X17060905Y-5236384D01*
X14542620Y-5068991D02*
X14547563Y-5068808D01*
X13395785Y-5211439D02*
X13400076Y-5211094D01*
X14607778Y-3079156D02*
X14603713Y-3081974D01*
X16985963Y-5068808D02*
X16990910Y-5068869D01*
X15135190Y-5267510D02*
X15130328Y-5266598D01*
X15243469Y-3036954D02*
X15241450Y-3041470D01*
X14639353Y-6255574D02*
X14636688Y-6259742D01*
X14616700Y-6281540D02*
X14612778Y-6284556D01*
X12613075Y-5161386D02*
X12613564Y-5156463D01*
X14461992Y-2948757D02*
X14464553Y-2944525D01*
X15872620Y-3396294D02*
X15873937Y-3397998D01*
X16265660Y-3454964D02*
X16264095Y-3453485D01*
X14476790Y-3067787D02*
X14473446Y-3064141D01*
X14492842Y-3954127D02*
X14496837Y-3951210D01*
X14458926Y-4001793D02*
X14460605Y-3997140D01*
X14577084Y-6301051D02*
X14572246Y-6302084D01*
X16934371Y-2913493D02*
X16938635Y-2910985D01*
X15057043Y-6158511D02*
X15059392Y-6154157D01*
X14646069Y-4071954D02*
X14646069Y-4071954D01*
X15825815Y-5633583D02*
X15821824Y-5631966D01*
X12726363Y-5069724D02*
X12731246Y-5070516D01*
X15183610Y-3940661D02*
X15188150Y-3942624D01*
X15879887Y-5267187D02*
X15878293Y-5271186D01*
X13440744Y-5577791D02*
X13441491Y-5579811D01*
X12745578Y-2903924D02*
X12750210Y-2905661D01*
X15048668Y-4055480D02*
X15047695Y-4050629D01*
X15093371Y-4118307D02*
X15089237Y-4115590D01*
X12620992Y-4083042D02*
X12618643Y-4078689D01*
X14552563Y-4133392D02*
X14547620Y-4133209D01*
X12634287Y-2936466D02*
X12637446Y-2932659D01*
X12635790Y-3964013D02*
X12639309Y-3960537D01*
X16905721Y-5226775D02*
X16902953Y-5222675D01*
X12754750Y-5259575D02*
X12750210Y-5261539D01*
X14449075Y-2990986D02*
X14449564Y-2986063D01*
X12804756Y-6179314D02*
X12805848Y-6184139D01*
X13842034Y-5633996D02*
X13840012Y-5633255D01*
X15053668Y-5190880D02*
X15052695Y-5186029D01*
X14636809Y-3045880D02*
X14634353Y-3050174D01*
X15093371Y-6288707D02*
X15089237Y-6285990D01*
X14591210Y-3940661D02*
X14595750Y-3942624D01*
X14461992Y-5119157D02*
X14464553Y-5114925D01*
X15051230Y-3000873D02*
X15051230Y-2995926D01*
X12812678Y-3003345D02*
X12812311Y-3008279D01*
X16258577Y-3400066D02*
X16261124Y-3396595D01*
X15847053Y-5635293D02*
X15842780Y-5635820D01*
X15070846Y-6269541D02*
X15067687Y-6265734D01*
X15862964Y-3047602D02*
X15866442Y-3050140D01*
X15074190Y-6134413D02*
X15077709Y-6130937D01*
X13393656Y-3464830D02*
X13391549Y-3464387D01*
X17072220Y-6263773D02*
X17069157Y-6267657D01*
X15212867Y-3958865D02*
X15216472Y-3962253D01*
X12808426Y-5139550D02*
X12809756Y-5144315D01*
X16910721Y-6261775D02*
X16907953Y-6257675D01*
X13863285Y-5212074D02*
X13867474Y-5213066D01*
X12619605Y-5132540D02*
X12621513Y-5127976D01*
X14464553Y-2944525D02*
X14467321Y-2940425D01*
X15787544Y-5603499D02*
X15762544Y-5578499D01*
X15249248Y-5149139D02*
X15250100Y-5154012D01*
X12644309Y-5241663D02*
X12640790Y-5238187D01*
X12800809Y-5216280D02*
X12798353Y-5220574D01*
X14622504Y-5236384D02*
X14619072Y-5239947D01*
X17050100Y-5091059D02*
X17053868Y-5094265D01*
X16976190Y-6105090D02*
X16981091Y-6104419D01*
X13412851Y-3463936D02*
X13408653Y-3464893D01*
X15240263Y-6237744D02*
X15238469Y-6242354D01*
X17055100Y-4111140D02*
X17051178Y-4114156D01*
X15847053Y-3041312D02*
X15851250Y-3042269D01*
X12632446Y-6269541D02*
X12629287Y-6265734D01*
X17092078Y-6198855D02*
X17092200Y-6203800D01*
X15762544Y-5578499D02*
X15762544Y-5268499D01*
X16990963Y-3933408D02*
X16995910Y-3933469D01*
X12805848Y-4053061D02*
X12804756Y-4057885D01*
X15859247Y-5215831D02*
X15862964Y-5218003D01*
X16905721Y-5110825D02*
X16908687Y-5106866D01*
X13408653Y-3041312D02*
X13412850Y-3042269D01*
X16290962Y-3465717D02*
X16290962Y-3465717D01*
X13780800Y-2500000D02*
X15919200Y-2500000D01*
X12635790Y-6134413D02*
X12639309Y-6130937D01*
X15106508Y-6112015D02*
X15111096Y-6110164D01*
X12687117Y-5265446D02*
X12682369Y-5264057D01*
X12807678Y-6208745D02*
X12807311Y-6213679D01*
X12795809Y-6251280D02*
X12793353Y-6255574D01*
X13443740Y-5252362D02*
X13443743Y-5254515D01*
X15201912Y-5082613D02*
X15206113Y-5085226D01*
X17055100Y-6126059D02*
X17058868Y-6129265D01*
X16943635Y-6116385D02*
X16948017Y-6114090D01*
X14644050Y-4076470D02*
X14641809Y-4080880D01*
X12740578Y-6109324D02*
X12745210Y-6111061D01*
X15053668Y-5146720D02*
X15054879Y-5141924D01*
X14653311Y-6213679D02*
X14652700Y-6218588D01*
X13842034Y-5213604D02*
X13844091Y-5212967D01*
X15116096Y-2904764D02*
X15120769Y-2903143D01*
X16903043Y-6249089D02*
X16900913Y-6244624D01*
X15851250Y-5212669D02*
X15855329Y-5214047D01*
X15881039Y-5243834D02*
X15881806Y-5248070D01*
X14478446Y-3967659D02*
X14481790Y-3964013D01*
X14500235Y-3085815D02*
X14495971Y-3083307D01*
X16297417Y-5636089D02*
X16297417Y-5636089D01*
X15245711Y-6213679D02*
X15245100Y-6218588D01*
X13441447Y-3069297D02*
X13442639Y-3073434D01*
X15250100Y-3013188D02*
X15249248Y-3018061D01*
X14449075Y-3005814D02*
X14448830Y-3000873D01*
X17067220Y-3058373D02*
X17064157Y-3062257D01*
X15149910Y-6103869D02*
X15154847Y-6104174D01*
X15234088Y-5112858D02*
X15236753Y-5117026D01*
X14449075Y-5161386D02*
X14449564Y-5156463D01*
X14644426Y-5139550D02*
X14645756Y-5144315D01*
X13822724Y-3110205D02*
X13820177Y-3106734D01*
X16272607Y-3046768D02*
X16276430Y-3044787D01*
X12775700Y-5246541D02*
X12771778Y-5249556D01*
X14639353Y-3981625D02*
X14641809Y-3985920D01*
X15054913Y-6162976D02*
X15057043Y-6158511D01*
X13431334Y-5563499D02*
X13434220Y-5566694D01*
X15201113Y-6120226D02*
X15205178Y-6123044D01*
X15842780Y-3040785D02*
X15847053Y-3041312D01*
X16961517Y-2901754D02*
X16966328Y-2900602D01*
X14562363Y-2899324D02*
X14567246Y-2900116D01*
X12654971Y-4118307D02*
X12650837Y-4115590D01*
X15056326Y-5137193D02*
X15058005Y-5132540D01*
X17057472Y-5239947D02*
X17053868Y-5243335D01*
X13879144Y-3048099D02*
X13932800Y-3098400D01*
X12754188Y-3944810D02*
X12758512Y-3947213D01*
X12803050Y-2955330D02*
X12805069Y-2959846D01*
X13424566Y-3458601D02*
X13420849Y-3460774D01*
X16952096Y-2904764D02*
X16956769Y-2903143D01*
X15062043Y-5123511D02*
X15064392Y-5119157D01*
X15201912Y-3084587D02*
X15197588Y-3086990D01*
X14504617Y-3088110D02*
X14500235Y-3085815D01*
X14460605Y-6167540D02*
X14462513Y-6162976D01*
X15241826Y-6174550D02*
X15243156Y-6179314D01*
X14599512Y-5254987D02*
X14595188Y-5257390D01*
X13827260Y-3454964D02*
X13824207Y-3451928D01*
X15862966Y-5629001D02*
X15859249Y-5631174D01*
X12651842Y-5089527D02*
X12655837Y-5086610D01*
X17065905Y-4100984D02*
X17062472Y-4104547D01*
X16290962Y-3041083D02*
X16295266Y-3040992D01*
X16371200Y-3408400D02*
X16317544Y-3458701D01*
X13813517Y-3418090D02*
X13814272Y-3413851D01*
X12726363Y-3097476D02*
X12721447Y-3098025D01*
X12798050Y-6160730D02*
X12800069Y-6165246D01*
X15107017Y-2908690D02*
X15111508Y-2906615D01*
X15206113Y-3081974D02*
X15201912Y-3084587D01*
X13852562Y-3465717D02*
X13852562Y-3465717D01*
X14642863Y-5134856D02*
X14644426Y-5139550D01*
X12686928Y-6106002D02*
X12691790Y-6105090D01*
X13817994Y-5273423D02*
X13817047Y-5271489D01*
X12800809Y-2950920D02*
X12803050Y-2955330D01*
X17077450Y-5125730D02*
X17079469Y-5130246D01*
X16893695Y-4050629D02*
X16892964Y-4045737D01*
X16930237Y-3080590D02*
X16926242Y-3077672D01*
X12691790Y-3934690D02*
X12696691Y-3934019D01*
X12608075Y-4025986D02*
X12608564Y-4021063D01*
X14452479Y-5141924D02*
X14453926Y-5137193D01*
X16930237Y-2916210D02*
X16934371Y-2913493D01*
X15111096Y-6297436D02*
X15106508Y-6295585D01*
X14562447Y-6303425D02*
X14557510Y-6303731D01*
X16251711Y-3080113D02*
X16252262Y-3075843D01*
X15144963Y-3933408D02*
X15149910Y-3933469D01*
X12642996Y-6279961D02*
X12639309Y-6276663D01*
X17091711Y-6213679D02*
X17091101Y-6218588D01*
X14567363Y-3934324D02*
X14572246Y-3935116D01*
X17019978Y-5263276D02*
X17015265Y-5264781D01*
X14567363Y-6302876D02*
X14562447Y-6303425D01*
X12767713Y-2914826D02*
X12771778Y-2917644D01*
X15075846Y-3064141D02*
X15072687Y-3060334D01*
X13443406Y-3077670D02*
X13443740Y-3081962D01*
X15847053Y-3464893D02*
X15842780Y-3465420D01*
X12686928Y-6301597D02*
X12682117Y-6300446D01*
X16282491Y-3042567D02*
X16286689Y-3041610D01*
X14644050Y-6246870D02*
X14641809Y-6251280D01*
X13443743Y-5254515D02*
X13443422Y-5258808D01*
X15196912Y-4119587D02*
X15192588Y-4121990D01*
X14457513Y-2957576D02*
X14459643Y-2953111D01*
X15818018Y-5629954D02*
X15816196Y-5628805D01*
X12711510Y-6303731D02*
X12706563Y-6303792D01*
X15834185Y-5211439D02*
X15838476Y-5211094D01*
X15116096Y-5262436D02*
X15111508Y-5260585D01*
X12608075Y-6211214D02*
X12607830Y-6206273D01*
X12807800Y-6203800D02*
X12807678Y-6208745D01*
X15842544Y-5538499D02*
X15869734Y-5563499D01*
X15214100Y-5091059D02*
X15217867Y-5094265D01*
X12651842Y-3077672D02*
X12647996Y-3074561D01*
X12611479Y-4006524D02*
X12612926Y-4001793D01*
X17015265Y-5264781D02*
X17010484Y-5266051D01*
X12784757Y-6139943D02*
X12787820Y-6143827D01*
X12811700Y-3013188D02*
X12810848Y-3018061D01*
X15046475Y-6196386D02*
X15046964Y-6191463D01*
X12664235Y-2910985D02*
X12668617Y-2908690D01*
X14457479Y-6176924D02*
X14458926Y-6172193D01*
X12766778Y-6123044D02*
X12770700Y-6126059D01*
X12612926Y-6235407D02*
X12611479Y-6230676D01*
X14509108Y-5260585D02*
X14504617Y-5258510D01*
X13442639Y-5243834D02*
X13443406Y-5248070D01*
X15097635Y-6291215D02*
X15093371Y-6288707D01*
X17091101Y-4048188D02*
X17090248Y-4053061D01*
X15827869Y-3042367D02*
X15832058Y-3041374D01*
X16253892Y-5239997D02*
X16255497Y-5236002D01*
X16981091Y-4132781D02*
X16976190Y-4132110D01*
X15217867Y-5094265D02*
X15221472Y-5097653D01*
X12766778Y-6284556D02*
X12762713Y-6287374D01*
X16900913Y-6244624D02*
X16899005Y-6240060D01*
X16981091Y-6303181D02*
X16976190Y-6302510D01*
X14591210Y-6296539D02*
X14586578Y-6298275D01*
X14475287Y-4095334D02*
X14472321Y-4091375D01*
X13324144Y-3098099D02*
X13377800Y-3047798D01*
X14653311Y-4043279D02*
X14652700Y-4048188D01*
X13383424Y-3461566D02*
X13381496Y-3460608D01*
X15872539Y-3056203D02*
X15875096Y-3059667D01*
X14481790Y-4102787D02*
X14478446Y-4099141D01*
X14552510Y-2898469D02*
X14557447Y-2898774D01*
X12629287Y-4095334D02*
X12626321Y-4091375D01*
X14631688Y-5112858D02*
X14634353Y-5117026D01*
X17075209Y-3045880D02*
X17072754Y-3050174D01*
X13816199Y-5269509D02*
X13814810Y-5265434D01*
X16908687Y-5106866D02*
X16911846Y-5103059D01*
X14453830Y-4030926D02*
X14454075Y-4025986D01*
X16286689Y-5635590D02*
X16284578Y-5635165D01*
X14456268Y-4055480D02*
X14455295Y-4050629D01*
X12731084Y-6301051D02*
X12726246Y-6302084D01*
X15164763Y-2899324D02*
X15169646Y-2900116D01*
X15059913Y-5127976D02*
X15062043Y-5123511D01*
X15866442Y-3050140D02*
X15869644Y-3053017D01*
X14576865Y-5072819D02*
X14581578Y-5074324D01*
X17062472Y-3962253D02*
X17065905Y-3965816D01*
X12701620Y-6303609D02*
X12696691Y-6303181D01*
X15052695Y-3015629D02*
X15051964Y-3010737D01*
X14466992Y-3983757D02*
X14469553Y-3979525D01*
X13813517Y-5588490D02*
X13814272Y-5584251D01*
X13393658Y-3041374D02*
X13395785Y-3041039D01*
X14648800Y-5168800D02*
X14648678Y-5173745D01*
X14630757Y-4097257D02*
X14627504Y-4100984D01*
X13443103Y-3415661D02*
X13443426Y-3417790D01*
X14604512Y-6117613D02*
X14608713Y-6120226D01*
X14487842Y-2919127D02*
X14491837Y-2916210D01*
X12795688Y-5224742D02*
X12792820Y-5228773D01*
X16922396Y-2922239D02*
X16926242Y-2919127D01*
X16261124Y-3110205D02*
X16258577Y-3106734D01*
X15097635Y-4120815D02*
X15093371Y-4118307D01*
X15197588Y-3086990D02*
X15193150Y-3089175D01*
X17019978Y-3092875D02*
X17015265Y-3094381D01*
X17038588Y-3944810D02*
X17042912Y-3947213D01*
X16888695Y-3015629D02*
X16887964Y-3010737D01*
X15787544Y-3433099D02*
X15762544Y-3408099D01*
X13377800Y-5218198D02*
X13379621Y-5217050D01*
X14500971Y-3948493D02*
X14505235Y-3945985D01*
X14652700Y-4048188D02*
X14651848Y-4053061D01*
X16934371Y-5083893D02*
X16938635Y-5081385D01*
X15125328Y-3935602D02*
X15130190Y-3934690D01*
X12647996Y-5244961D02*
X12644309Y-5241663D01*
X14513696Y-2904764D02*
X14518369Y-2903143D01*
X14567363Y-6104724D02*
X14572246Y-6105516D01*
X15062043Y-5214089D02*
X15059913Y-5209624D01*
X12614295Y-2981170D02*
X12615268Y-2976320D01*
X15169484Y-4130651D02*
X15164646Y-4131684D01*
X14514108Y-3941615D02*
X14518696Y-3939764D01*
X17046178Y-3079156D02*
X17042113Y-3081974D01*
X17092200Y-6203800D02*
X17092078Y-6208745D01*
X15054879Y-5141924D02*
X15056326Y-5137193D01*
X15046964Y-4045737D02*
X15046475Y-4040814D01*
X12711563Y-5068808D02*
X12716510Y-5068869D01*
X15145020Y-2898591D02*
X15149963Y-2898408D01*
X12786504Y-5101216D02*
X12789757Y-5104943D01*
X16305875Y-3464134D02*
X16301685Y-3465126D01*
X15061953Y-4087275D02*
X15059392Y-4083042D01*
X12616479Y-5195676D02*
X12615268Y-5190880D01*
X15248156Y-5193285D02*
X15246826Y-5198050D01*
X15881806Y-3077670D02*
X15882140Y-3081962D01*
X13428042Y-5220540D02*
X13429679Y-5221938D01*
X13815453Y-3097089D02*
X13814810Y-3095034D01*
X14581865Y-6107819D02*
X14586578Y-6109324D01*
X14523117Y-5072154D02*
X14527928Y-5071002D01*
X16943017Y-5258510D02*
X16938635Y-5256215D01*
X16301685Y-3465126D02*
X16297417Y-3465689D01*
X15879891Y-5579811D02*
X15880534Y-5581866D01*
X15111508Y-3090185D02*
X15107017Y-3088110D01*
X12784757Y-6267657D02*
X12781504Y-6271384D01*
X12770700Y-4111140D02*
X12766778Y-4114156D01*
X16934371Y-5253707D02*
X16930237Y-5250990D01*
X12701691Y-5268181D02*
X12696790Y-5267510D01*
X15878246Y-5611299D02*
X15876244Y-5615111D01*
X17051178Y-4114156D02*
X17047113Y-4116974D01*
X13813841Y-5261239D02*
X13813302Y-5256968D01*
X12810848Y-3018061D02*
X12809756Y-3022885D01*
X13435537Y-5568398D02*
X13436767Y-5570166D01*
X16907953Y-6257675D02*
X16905392Y-6253442D01*
X15196912Y-6289987D02*
X15192588Y-6292390D01*
X16922396Y-5092639D02*
X16926242Y-5089527D01*
X13442100Y-5605251D02*
X13440699Y-5609322D01*
X17015484Y-6301051D02*
X17010646Y-6302084D01*
X16961769Y-3938143D02*
X16966517Y-3936754D01*
X14448830Y-5166327D02*
X14449075Y-5161386D01*
X14514108Y-4125185D02*
X14509617Y-4123110D01*
X16313845Y-3460904D02*
X16309942Y-3462721D01*
X15224904Y-3065984D02*
X15221472Y-3069547D01*
X12642996Y-4109561D02*
X12639309Y-4106263D01*
X12659235Y-6291215D02*
X12654971Y-6288707D01*
X12803050Y-3041470D02*
X12800809Y-3045880D01*
X16907953Y-4087275D02*
X16905392Y-4083042D01*
X14483996Y-5244961D02*
X14480309Y-5241663D01*
X15239209Y-5121320D02*
X15241450Y-5125730D01*
X12626321Y-4091375D02*
X12623553Y-4087275D01*
X12614605Y-4069660D02*
X12612926Y-4065007D01*
X12804756Y-6228285D02*
X12803426Y-6233050D01*
X13815492Y-5607603D02*
X13814299Y-5603466D01*
X13840012Y-5633255D02*
X13836094Y-5631471D01*
X15243156Y-6228285D02*
X15241826Y-6233050D01*
X13439893Y-3100786D02*
X13437902Y-3104603D01*
X13869526Y-3463479D02*
X13867475Y-3464134D01*
X15120517Y-6107154D02*
X15125328Y-6106002D01*
X14630757Y-6267657D02*
X14627504Y-6271384D01*
X13854713Y-5636217D02*
X13852562Y-5636117D01*
X17069157Y-3969543D02*
X17072220Y-3973427D01*
X15234209Y-6251280D02*
X15231753Y-6255574D01*
X15819896Y-3460608D02*
X15816196Y-3458405D01*
X15058005Y-2962140D02*
X15059913Y-2957576D01*
X15059392Y-4083042D02*
X15057043Y-4078689D01*
X12804756Y-4057885D02*
X12803426Y-4062650D01*
X14651848Y-6184139D02*
X14652700Y-6189012D01*
X15197588Y-2909810D02*
X15201912Y-2912213D01*
X12617926Y-2966793D02*
X12619605Y-2962140D01*
X16317544Y-5218499D02*
X16371200Y-5268800D01*
X14467321Y-3056375D02*
X14464553Y-3052275D01*
X16892231Y-6201326D02*
X16892475Y-6196386D01*
X16976091Y-5268181D02*
X16971190Y-5267510D01*
X14639353Y-6152025D02*
X14641809Y-6156320D01*
X12775700Y-3076140D02*
X12771778Y-3079156D01*
X15102017Y-3943690D02*
X15106508Y-3941615D01*
X16961769Y-4128657D02*
X16957096Y-4127036D01*
X17077450Y-3041470D02*
X17075209Y-3045880D01*
X14557510Y-4133331D02*
X14552563Y-4133392D01*
X12411600Y-2700000D02*
X12411600Y-4870400D01*
X12754750Y-3089175D02*
X12750210Y-3091139D01*
X12787820Y-4093373D02*
X12784757Y-4097257D01*
X12735865Y-4129381D02*
X12731084Y-4130651D01*
X17079469Y-5207354D02*
X17077450Y-5211870D01*
X15075846Y-2932659D02*
X15079190Y-2929013D01*
X14481790Y-6134413D02*
X14485309Y-6130937D01*
X17082826Y-2969150D02*
X17084156Y-2973914D01*
X15130328Y-2900602D02*
X15135190Y-2899690D01*
X14653311Y-6193921D02*
X14653678Y-6198855D01*
X15051475Y-3005814D02*
X15051230Y-3000873D01*
X16952096Y-5262436D02*
X16947508Y-5260585D01*
X12612830Y-2995926D02*
X12613075Y-2990986D01*
X15241826Y-4004150D02*
X15243156Y-4008914D01*
X15251078Y-2993455D02*
X15251200Y-2998400D01*
X13869526Y-5633879D02*
X13865392Y-5635083D01*
X12721363Y-6302876D02*
X12716447Y-6303425D01*
X16900913Y-6162976D02*
X16903043Y-6158511D01*
X16253243Y-5605549D02*
X16252262Y-5601357D01*
X13441491Y-5579811D02*
X13441491Y-5579811D01*
X12631321Y-5110825D02*
X12634287Y-5106866D01*
X16895879Y-4006524D02*
X16897326Y-4001793D01*
X15248156Y-2973914D02*
X15249248Y-2978739D01*
X12716447Y-3933774D02*
X12721363Y-3934324D01*
X15234088Y-3054342D02*
X15231220Y-3058373D01*
X15067687Y-6141866D02*
X15070846Y-6138059D01*
X14644426Y-5198050D02*
X14642863Y-5202744D01*
X17024610Y-2905661D02*
X17029150Y-2907624D01*
X12646842Y-6124527D02*
X12650837Y-6121610D01*
X17084469Y-4071954D02*
X17082450Y-4076470D01*
X17084156Y-5144315D02*
X17085248Y-5149139D01*
X16995910Y-3933469D02*
X17000847Y-3933774D01*
X12754188Y-4121990D02*
X12749750Y-4124175D01*
X12608564Y-4021063D02*
X12609295Y-4016170D01*
X14586210Y-3091139D02*
X14581578Y-3092875D01*
X14648311Y-2988521D02*
X14648678Y-2993455D01*
X12745210Y-4126139D02*
X12740578Y-4127875D01*
X13438893Y-3442830D02*
X13436700Y-3446536D01*
X14595750Y-4124175D02*
X14591210Y-4126139D01*
X13821477Y-3448598D02*
X13820243Y-3446834D01*
X13819038Y-5572294D02*
X13820177Y-5570466D01*
X12790688Y-6147858D02*
X12793353Y-6152025D01*
X14645756Y-2973914D02*
X14646848Y-2978739D01*
X15872539Y-5226603D02*
X15875096Y-5230067D01*
X12801863Y-4067344D02*
X12800069Y-4071954D01*
X12619605Y-2962140D02*
X12621513Y-2957576D01*
X15058005Y-5205060D02*
X15056326Y-5200407D01*
X14480309Y-2925537D02*
X14483996Y-2922239D01*
X17064157Y-2934543D02*
X17067220Y-2938427D01*
X15056326Y-5200407D02*
X15054879Y-5195676D01*
X12762713Y-4116974D02*
X12758512Y-4119587D01*
X14457479Y-4006524D02*
X14458926Y-4001793D01*
X15067687Y-6265734D02*
X15064721Y-6261775D01*
X16286689Y-5212010D02*
X16290962Y-5211483D01*
X12792820Y-5108827D02*
X12795688Y-5112858D01*
X13416929Y-3043647D02*
X13418910Y-3044489D01*
X16892964Y-6191463D02*
X16893695Y-6186570D01*
X15125517Y-3095046D02*
X15120769Y-3093657D01*
X16278412Y-5633255D02*
X16274494Y-5631471D01*
X12623553Y-6257675D02*
X12620992Y-6253442D01*
X14604512Y-4119587D02*
X14600188Y-4121990D01*
X14586210Y-2905661D02*
X14590750Y-2907624D01*
X14505235Y-6291215D02*
X14500971Y-6288707D01*
X13434143Y-5620400D02*
X13431248Y-5623587D01*
X16219200Y-2700000D02*
X16219200Y-2500000D01*
X16905721Y-3056375D02*
X16902953Y-3052275D01*
X13852562Y-5211483D02*
X13854713Y-5211383D01*
X15079190Y-3067787D02*
X15075846Y-3064141D01*
X16265660Y-5222236D02*
X16269005Y-5219526D01*
X15250711Y-3008279D02*
X15250100Y-3013188D01*
X13867475Y-3464134D02*
X13863285Y-3465126D01*
X12617926Y-5200407D02*
X12616479Y-5195676D01*
X14599512Y-3084587D02*
X14595188Y-3086990D01*
X17064157Y-5104943D02*
X17067220Y-5108827D01*
X14630757Y-6139943D02*
X14633820Y-6143827D01*
X15245263Y-2964456D02*
X15246826Y-2969150D01*
X12762713Y-3949826D02*
X12766778Y-3952644D01*
X15243156Y-6179314D02*
X15244248Y-6184139D01*
X12779467Y-5094265D02*
X12783072Y-5097653D01*
X14603713Y-2914826D02*
X14607778Y-2917644D01*
X16971190Y-5070090D02*
X16976091Y-5069419D01*
X12677696Y-2904764D02*
X12682369Y-2903143D01*
X14628820Y-5108827D02*
X14631688Y-5112858D01*
X13834207Y-3046768D02*
X13838030Y-3044787D01*
X12767713Y-5252374D02*
X12763512Y-5254987D01*
X12621513Y-5127976D02*
X12623643Y-5123511D01*
X17046178Y-5249556D02*
X17042113Y-5252374D01*
X15816196Y-3458405D02*
X15787544Y-3433099D01*
X13850419Y-3465508D02*
X13846178Y-3464765D01*
X12805069Y-2959846D02*
X12806863Y-2964456D01*
X14636688Y-4089342D02*
X14633820Y-4093373D01*
X15223157Y-6267657D02*
X15219904Y-6271384D01*
X16252241Y-3090839D02*
X16251702Y-3086568D01*
X16261124Y-5566995D02*
X16264010Y-5563800D01*
X15210178Y-5249556D02*
X15206113Y-5252374D01*
X15244248Y-4053061D02*
X15243156Y-4057885D01*
X14557447Y-2898774D02*
X14562363Y-2899324D01*
X15164763Y-5069724D02*
X15169646Y-5070516D01*
X17072754Y-2946625D02*
X17075209Y-2950920D01*
X12789757Y-3062257D02*
X12786504Y-3065984D01*
X12609295Y-6186570D02*
X12610268Y-6181720D01*
X17000847Y-6104174D02*
X17005763Y-6104724D01*
X12611479Y-6230676D02*
X12610268Y-6225880D01*
X12736084Y-2901148D02*
X12740865Y-2902419D01*
X17082450Y-3990330D02*
X17084469Y-3994846D01*
X14547620Y-6103991D02*
X14552563Y-6103808D01*
X16986020Y-6103991D02*
X16990963Y-6103808D01*
X12721447Y-5069175D02*
X12726363Y-5069724D01*
X12677369Y-3938143D02*
X12682117Y-3936754D01*
X17055100Y-3955659D02*
X17058868Y-3958865D01*
X17057472Y-5097653D02*
X17060905Y-5101216D01*
X14619072Y-3069547D02*
X14615467Y-3072935D01*
X13813311Y-3426687D02*
X13813199Y-3424537D01*
X15051964Y-2986063D02*
X15052695Y-2981170D01*
X12628553Y-3052275D02*
X12625992Y-3048042D01*
X15209100Y-6281540D02*
X15205178Y-6284556D01*
X16911846Y-5234541D02*
X16908687Y-5230734D01*
X15102635Y-2910985D02*
X15107017Y-2908690D01*
X17085248Y-5188461D02*
X17084156Y-5193285D01*
X14612778Y-6284556D02*
X14608713Y-6287374D01*
X17090248Y-4013739D02*
X17091101Y-4018612D01*
X13836094Y-5631471D02*
X13832376Y-5629299D01*
X16892964Y-4021063D02*
X16893695Y-4016170D01*
X13480800Y-2500000D02*
X13480800Y-2700000D01*
X14457479Y-4060276D02*
X14456268Y-4055480D01*
X16899005Y-4069660D02*
X16897326Y-4065007D01*
X16272607Y-5217168D02*
X16276430Y-5215187D01*
X13429679Y-3051538D02*
X13432732Y-3054573D01*
X15231753Y-4085174D02*
X15229088Y-4089342D01*
X12778072Y-3962253D02*
X12781504Y-3965816D01*
X15059392Y-6253442D02*
X15057043Y-6249089D01*
X14633820Y-3973427D02*
X14636688Y-3977458D01*
X12644309Y-2925537D02*
X12647996Y-2922239D01*
X17067220Y-5108827D02*
X17070088Y-5112858D01*
X16892964Y-6216137D02*
X16892475Y-6211214D01*
X13424566Y-5629001D02*
X13420849Y-5631174D01*
X12682117Y-6107154D02*
X12686928Y-6106002D01*
X14469553Y-6257675D02*
X14466992Y-6253442D01*
X17057472Y-3069547D02*
X17053868Y-3072935D01*
X15102017Y-6293510D02*
X15097635Y-6291215D01*
X16887475Y-5161386D02*
X16887964Y-5156463D01*
X14628820Y-2938427D02*
X14631688Y-2942458D01*
X15245100Y-4018612D02*
X15245711Y-4023521D01*
X15234088Y-2942458D02*
X15236753Y-2946625D01*
X13443422Y-3088408D02*
X13442667Y-3092647D01*
X16295266Y-3040992D02*
X16297417Y-3041111D01*
X16317544Y-3458701D02*
X16313845Y-3460904D01*
X13324144Y-5268499D02*
X13377800Y-5218198D01*
X12795809Y-3985920D02*
X12798050Y-3990330D01*
X15231220Y-2938427D02*
X15234088Y-2942458D01*
X17010484Y-5071549D02*
X17015265Y-5072819D01*
X12663617Y-4123110D02*
X12659235Y-4120815D01*
X12758512Y-4119587D02*
X12754188Y-4121990D01*
X12783072Y-2927253D02*
X12786504Y-2930816D01*
X16261200Y-5620698D02*
X16258643Y-5617234D01*
X16952508Y-3941615D02*
X16957096Y-3939764D01*
X12749750Y-4124175D02*
X12745210Y-4126139D01*
X15246078Y-6198855D02*
X15246200Y-6203800D01*
X14448830Y-3000873D02*
X14448830Y-2995926D01*
X17086711Y-2988521D02*
X17087078Y-2993455D01*
X12774467Y-6129265D02*
X12778072Y-6132653D01*
X15869734Y-5283499D02*
X15842544Y-5308499D01*
X12637446Y-2932659D02*
X12640790Y-2929013D01*
X13875445Y-5216296D02*
X13879144Y-5218499D01*
X14523369Y-4128657D02*
X14518696Y-4127036D01*
X13437902Y-3104603D02*
X13435534Y-3108198D01*
X14457479Y-6230676D02*
X14456268Y-6225880D01*
X14850000Y-7040800D02*
X14850000Y-7040800D01*
X13404380Y-3465420D02*
X13400075Y-3465511D01*
X16956769Y-2903143D02*
X16961517Y-2901754D01*
X15246826Y-5198050D02*
X15246826Y-5198050D01*
X15878297Y-3405411D02*
X15879891Y-3409411D01*
X15201912Y-2912213D02*
X15206113Y-2914826D01*
X13431334Y-3393099D02*
X13434220Y-3396294D01*
X14455295Y-4016170D02*
X14456268Y-4011320D01*
X15246200Y-6203800D02*
X15246078Y-6208745D01*
X14542620Y-3098209D02*
X14537691Y-3097781D01*
X13838030Y-3044787D02*
X13842034Y-3043204D01*
X14487842Y-5248073D02*
X14483996Y-5244961D01*
X16269005Y-3457674D02*
X16265660Y-3454964D01*
X17075209Y-5216280D02*
X17072754Y-5220574D01*
X14620467Y-6129265D02*
X14624072Y-6132653D01*
X13879144Y-5218499D02*
X13932800Y-5268800D01*
X15077709Y-3960537D02*
X15081396Y-3957239D01*
X15051230Y-5171273D02*
X15051230Y-5166327D01*
X16905721Y-2940425D02*
X16908687Y-2936466D01*
X14488996Y-3957239D02*
X14492842Y-3954127D01*
X17075088Y-4089342D02*
X17072220Y-4093373D01*
X12781504Y-4100984D02*
X12778072Y-4104547D01*
X13441451Y-3436904D02*
X13439846Y-3440899D01*
X12677696Y-5075164D02*
X12682369Y-5073543D01*
X15154910Y-5068869D02*
X15159847Y-5069175D01*
X15159763Y-6302876D02*
X15154847Y-6303425D01*
X15064721Y-3975425D02*
X15067687Y-3971466D01*
X13436767Y-3399766D02*
X13438949Y-3403477D01*
X16311916Y-5632262D02*
X16307926Y-5633879D01*
X14518369Y-3093657D02*
X14513696Y-3092036D01*
X16913687Y-3971466D02*
X16916846Y-3967659D01*
X13852800Y-5308800D02*
X13825610Y-5283800D01*
X15842780Y-5211185D02*
X15847053Y-5211712D01*
X15877289Y-3063371D02*
X15879095Y-3067279D01*
X14466992Y-6253442D02*
X14464643Y-6249089D01*
X13400076Y-3040693D02*
X13404380Y-3040785D01*
X16288819Y-3465508D02*
X16284578Y-3464765D01*
X17037912Y-3084587D02*
X17033588Y-3086990D01*
X17029150Y-5259575D02*
X17024610Y-5261539D01*
X14648311Y-5158921D02*
X14648678Y-5163855D01*
X14653678Y-6198855D02*
X14653800Y-6203800D01*
X17038588Y-6115210D02*
X17042912Y-6117613D01*
X14608713Y-6287374D02*
X14604512Y-6289987D01*
X16966328Y-5266598D02*
X16961517Y-5265446D01*
X17087826Y-4062650D02*
X17086263Y-4067344D01*
X15209100Y-6126059D02*
X15212867Y-6129265D01*
X16892326Y-3030007D02*
X16890879Y-3025276D01*
X12629287Y-6141866D02*
X12632446Y-6138059D01*
X12801863Y-6237744D02*
X12801863Y-6237744D01*
X13814299Y-5244134D02*
X13815492Y-5239997D01*
X16905392Y-3983757D02*
X16907953Y-3979525D01*
X15120769Y-3093657D02*
X15116096Y-3092036D01*
X15072687Y-3060334D02*
X15069721Y-3056375D01*
X17084156Y-2973914D02*
X17085248Y-2978739D01*
X14624072Y-6274947D02*
X14620467Y-6278335D01*
X15069721Y-3056375D02*
X15066953Y-3052275D01*
X16299558Y-5635862D02*
X16297417Y-5636089D01*
X12807678Y-6198855D02*
X12807800Y-6203800D01*
X14590750Y-3089175D02*
X14586210Y-3091139D01*
X15057043Y-3988111D02*
X15059392Y-3983757D01*
X15130328Y-5071002D02*
X15135190Y-5070090D01*
X12612830Y-3000873D02*
X12612830Y-2995926D01*
X16278412Y-5214345D02*
X16282491Y-5212967D01*
X16947508Y-5260585D02*
X16943017Y-5258510D01*
X14500971Y-6288707D02*
X14496837Y-6285990D01*
X17064157Y-3062257D02*
X17060905Y-3065984D01*
X12806863Y-5202744D02*
X12805069Y-5207354D01*
X14624072Y-3962253D02*
X14627504Y-3965816D01*
X12809756Y-5193285D02*
X12808426Y-5198050D01*
X17082450Y-4076470D02*
X17080209Y-4080880D01*
X16257438Y-3104906D02*
X16255447Y-3101089D01*
X16900392Y-2948757D02*
X16902953Y-2944525D01*
X15135190Y-2899690D02*
X15140091Y-2899019D01*
X15082709Y-2925537D02*
X15086396Y-2922239D01*
X12783072Y-5239947D02*
X12779467Y-5243335D01*
X16971190Y-3097110D02*
X16966328Y-3096197D01*
X12807311Y-6193921D02*
X12807678Y-6198855D01*
X13848289Y-3041610D02*
X13852562Y-3041083D01*
X17084469Y-6165246D02*
X17086263Y-6169856D01*
X15762544Y-3408099D02*
X15762544Y-3098099D01*
X13871542Y-5214479D02*
X13873516Y-5215338D01*
X15081396Y-4109561D02*
X15077709Y-4106263D01*
X13856866Y-3040992D02*
X13859017Y-3041111D01*
X12800809Y-3045880D02*
X12798353Y-3050174D01*
X12637446Y-3064141D02*
X12634287Y-3060334D01*
X13832376Y-5629299D02*
X13828898Y-5626762D01*
X13852562Y-5636117D02*
X13848289Y-5635590D01*
X12721363Y-6104724D02*
X12726246Y-6105516D01*
X12800069Y-4071954D02*
X12798050Y-4076470D01*
X14647863Y-6237744D02*
X14646069Y-6242354D01*
X15086396Y-5244961D02*
X15082709Y-5241663D01*
X15834183Y-3465166D02*
X15832056Y-3464830D01*
X16902953Y-2944525D02*
X16905721Y-2940425D01*
X15825817Y-3043021D02*
X15827869Y-3042367D01*
X16911846Y-5103059D02*
X16915190Y-5099413D01*
X12706620Y-5268609D02*
X12701691Y-5268181D01*
X14562447Y-4133025D02*
X14557510Y-4133331D01*
X12650837Y-4115590D02*
X12646842Y-4112672D01*
X16895913Y-5127976D02*
X16898043Y-5123511D01*
X17077754Y-6152025D02*
X17080209Y-6156320D01*
X14537790Y-4132110D02*
X14532928Y-4131197D01*
X15051964Y-5181137D02*
X15051475Y-5176214D01*
X17024978Y-6298275D02*
X17020265Y-6299781D01*
X13436700Y-3446536D02*
X13434143Y-3450000D01*
X17015484Y-4130651D02*
X17010646Y-4131684D01*
X15245263Y-3032344D02*
X15243469Y-3036954D01*
X12691790Y-6105090D02*
X12696691Y-6104419D01*
X15077709Y-6276663D02*
X15074190Y-6273187D01*
X17089156Y-6179314D02*
X17090248Y-6184139D01*
X12610268Y-6181720D02*
X12611479Y-6176924D01*
X13873516Y-3044938D02*
X13875445Y-3045896D01*
X12623643Y-2953111D02*
X12625992Y-2948757D01*
X12612926Y-4001793D02*
X12614605Y-3997140D01*
X15879891Y-5579811D02*
X15879891Y-5579811D01*
X12716510Y-5268731D02*
X12711563Y-5268792D01*
X12803426Y-4004150D02*
X12804756Y-4008914D01*
X12663617Y-6293510D02*
X12659235Y-6291215D01*
X16317544Y-5629101D02*
X16315722Y-5630249D01*
X13395783Y-5635566D02*
X13393656Y-5635230D01*
X16957096Y-6110164D02*
X16961769Y-6108543D01*
X14631688Y-2942458D02*
X14634353Y-2946625D01*
X15231753Y-3981625D02*
X15234209Y-3985920D01*
X16947508Y-5077015D02*
X16952096Y-5075164D01*
X12807800Y-4033400D02*
X12807678Y-4038345D01*
X12771778Y-3079156D02*
X12767713Y-3081974D01*
X13932800Y-3408400D02*
X13879144Y-3458701D01*
X16892326Y-2966793D02*
X16894005Y-2962140D01*
X16943017Y-2908690D02*
X16947508Y-2906615D01*
X12787820Y-6263773D02*
X12784757Y-6267657D01*
X15116096Y-3092036D02*
X15111508Y-3090185D01*
X13420849Y-5631174D02*
X13416930Y-5632958D01*
X16258643Y-5617234D02*
X16256450Y-5613529D01*
X13859017Y-3465689D02*
X13854713Y-3465817D01*
X12716447Y-4133025D02*
X12711510Y-4133331D01*
X12750210Y-5261539D02*
X12745578Y-5263276D01*
X12803426Y-6233050D02*
X12801863Y-6237744D01*
X13815492Y-5239997D02*
X13817097Y-5236002D01*
X15159763Y-6104724D02*
X15164646Y-6105516D01*
X15082709Y-5095937D02*
X15086396Y-5092639D01*
X16284578Y-5635165D02*
X16280434Y-5633996D01*
X14500971Y-4118307D02*
X14496837Y-4115590D01*
X13389469Y-3042367D02*
X13393658Y-3041374D01*
X14633820Y-4093373D02*
X14630757Y-4097257D01*
X12803426Y-4062650D02*
X12801863Y-4067344D01*
X15057043Y-6249089D02*
X15054913Y-6244624D01*
X12634287Y-3060334D02*
X12631321Y-3056375D01*
X16894668Y-4055480D02*
X16893695Y-4050629D01*
X12616513Y-6244624D02*
X12614605Y-6240060D01*
X16898043Y-5123511D02*
X16900392Y-5119157D01*
X15878246Y-3440899D02*
X15876244Y-3444711D01*
X15231753Y-6152025D02*
X15234209Y-6156320D01*
X14532928Y-3935602D02*
X14537790Y-3934690D01*
X13385402Y-3043779D02*
X13389469Y-3042367D01*
X12687117Y-3095046D02*
X12682369Y-3093657D01*
X17079469Y-3036954D02*
X17079469Y-3036954D01*
X15188610Y-3091139D02*
X15183978Y-3092875D01*
X13428045Y-5626464D02*
X13424566Y-5629001D01*
X14532928Y-6301597D02*
X14528117Y-6300446D01*
X12687117Y-2901754D02*
X12691928Y-2900602D01*
X12612830Y-5166327D02*
X12613075Y-5161386D01*
X17075088Y-3977458D02*
X17077754Y-3981625D01*
X15881503Y-3415661D02*
X15881826Y-3417790D01*
X16892326Y-5137193D02*
X16894005Y-5132540D01*
X13813302Y-3086568D02*
X13813199Y-3082263D01*
X17086263Y-6237744D02*
X17084469Y-6242354D01*
X14552510Y-3098331D02*
X14547563Y-3098392D01*
X12614605Y-3997140D02*
X12616513Y-3992576D01*
X12781504Y-6136216D02*
X12784757Y-6139943D01*
X17086263Y-3999456D02*
X17087826Y-4004150D01*
X12620992Y-6253442D02*
X12618643Y-6249089D01*
X13814810Y-3095034D02*
X13813841Y-3090839D01*
X15245263Y-5134856D02*
X15246826Y-5139550D01*
X15097635Y-3945985D02*
X15102017Y-3943690D01*
X13813862Y-5246243D02*
X13814299Y-5244134D01*
X17060905Y-3065984D02*
X17057472Y-3069547D01*
X15212867Y-4107935D02*
X15209100Y-4111140D01*
X13412850Y-3042269D02*
X13416929Y-3043647D01*
X16251711Y-3426687D02*
X16251599Y-3424537D01*
X15226220Y-6143827D02*
X15229088Y-6147858D01*
X17047113Y-6287374D02*
X17042912Y-6289987D01*
X14620467Y-4107935D02*
X14616700Y-4111140D01*
X16907953Y-6149925D02*
X16910721Y-6145825D01*
X12771778Y-5088044D02*
X12775700Y-5091059D01*
X16971190Y-5267510D02*
X16966328Y-5266598D01*
X12805848Y-4013739D02*
X12806700Y-4018612D01*
X13817097Y-3065602D02*
X13819099Y-3061791D01*
X15250100Y-5154012D02*
X15250711Y-5158921D01*
X13443103Y-3415661D02*
X13443103Y-3415661D01*
X12625992Y-5119157D02*
X12628553Y-5114925D01*
X17005646Y-5267084D02*
X17000763Y-5267876D01*
X14461992Y-5218443D02*
X14459643Y-5214089D01*
X14603713Y-5085226D02*
X14607778Y-5088044D01*
X12682117Y-4130046D02*
X12677369Y-4128657D01*
X12613075Y-3005814D02*
X12612830Y-3000873D01*
X16892475Y-4025986D02*
X16892964Y-4021063D01*
X17067220Y-2938427D02*
X17070088Y-2942458D01*
X12767713Y-5085226D02*
X12771778Y-5088044D01*
X12770700Y-3955659D02*
X12774467Y-3958865D01*
X15245263Y-5202744D02*
X15243469Y-5207354D01*
X17081263Y-5134856D02*
X17082826Y-5139550D01*
X15145020Y-3098209D02*
X15140091Y-3097781D01*
X15234209Y-6156320D02*
X15236450Y-6160730D01*
X12793353Y-4085174D02*
X12790688Y-4089342D01*
X13852800Y-3368400D02*
X13852800Y-3138400D01*
X12664235Y-5081385D02*
X12668617Y-5079090D01*
X14528117Y-6107154D02*
X14532928Y-6106002D01*
X15125328Y-6106002D02*
X15130190Y-6105090D01*
X15880529Y-5265132D02*
X15879887Y-5267187D01*
X15243469Y-2959846D02*
X15245263Y-2964456D01*
X14642863Y-3032344D02*
X14641069Y-3036954D01*
X12612926Y-4065007D02*
X12611479Y-4060276D01*
X13418910Y-3044489D02*
X13422733Y-3046469D01*
X14622504Y-5101216D02*
X14625757Y-5104943D01*
X17000847Y-3933774D02*
X17005763Y-3934324D01*
X14513696Y-3092036D02*
X14509108Y-3090185D01*
X16952508Y-6295585D02*
X16948017Y-6293510D01*
X16915190Y-5238187D02*
X16911846Y-5234541D01*
X17005763Y-6302876D02*
X17000847Y-6303425D01*
X15838476Y-3040693D02*
X15842780Y-3040785D01*
X12754750Y-2907624D02*
X12759188Y-2909810D01*
X15217867Y-2923865D02*
X15221472Y-2927253D01*
X15098371Y-5083893D02*
X15102635Y-5081385D01*
X13434217Y-5280302D02*
X13431334Y-5283499D01*
X15086396Y-2922239D02*
X15090242Y-2919127D01*
X12635790Y-4102787D02*
X12632446Y-4099141D01*
X12735865Y-6299781D02*
X12731084Y-6301051D01*
X17288400Y-2000000D02*
X17288400Y-2000000D01*
X16265660Y-5625364D02*
X16264095Y-5623885D01*
X12615268Y-3020480D02*
X12614295Y-3015629D01*
X14500971Y-6118893D02*
X14505235Y-6116385D01*
X16251596Y-3084417D02*
X16251711Y-3080113D01*
X12623553Y-4087275D02*
X12620992Y-4083042D01*
X15241826Y-4062650D02*
X15240263Y-4067344D01*
X15228157Y-5104943D02*
X15231220Y-5108827D01*
X15762544Y-5268499D02*
X15816200Y-5218198D01*
X15246078Y-4038345D02*
X15245711Y-4043279D01*
X16892326Y-5200407D02*
X16890879Y-5195676D01*
X14641809Y-6156320D02*
X14644050Y-6160730D01*
X14586578Y-6298275D02*
X14581865Y-6299781D01*
X12631321Y-5226775D02*
X12628553Y-5222675D01*
X16889668Y-2976320D02*
X16890879Y-2971524D01*
X14532928Y-4131197D02*
X14528117Y-4130046D01*
X16309942Y-3462721D02*
X16307926Y-3463479D01*
X17086101Y-3013188D02*
X17085248Y-3018061D01*
X15876302Y-5275003D02*
X15873934Y-5278599D01*
X15169646Y-3096684D02*
X15164763Y-3097476D01*
X14648678Y-3003345D02*
X14648311Y-3008279D01*
X15881822Y-3088408D02*
X15881067Y-3092647D01*
X15857312Y-3461715D02*
X15855330Y-3462558D01*
X15224904Y-5101216D02*
X15228157Y-5104943D01*
X16894005Y-3034660D02*
X16892326Y-3030007D01*
X17042113Y-3081974D02*
X17037912Y-3084587D01*
X15205178Y-6284556D02*
X15201113Y-6287374D01*
X14600188Y-6115210D02*
X14604512Y-6117613D01*
X17075209Y-2950920D02*
X17077450Y-2955330D01*
X14634353Y-5220574D02*
X14631688Y-5224742D01*
X15140020Y-6303609D02*
X15135091Y-6303181D01*
X13440740Y-3098806D02*
X13439893Y-3100786D01*
X13440699Y-5609322D02*
X13438893Y-5613230D01*
X14454564Y-4021063D02*
X14455295Y-4016170D01*
X17089156Y-6228285D02*
X17087826Y-6233050D01*
X16253243Y-3071651D02*
X16253892Y-3069597D01*
X17005646Y-2900116D02*
X17010484Y-2901148D01*
X15120769Y-5264057D02*
X15116096Y-5262436D01*
X13441491Y-5579811D02*
X13442671Y-5583951D01*
X16900392Y-5218443D02*
X16898043Y-5214089D01*
X14639353Y-4085174D02*
X14636688Y-4089342D01*
X14645756Y-5144315D02*
X14646848Y-5149139D01*
X14472321Y-6145825D02*
X14475287Y-6141866D01*
X17053868Y-5243335D02*
X17050100Y-5246541D01*
X13385402Y-5214179D02*
X13389469Y-5212767D01*
X12806700Y-6189012D02*
X12807311Y-6193921D01*
X14581578Y-5263276D02*
X14576865Y-5264781D01*
X16269005Y-5219526D02*
X16272607Y-5217168D01*
X15246826Y-5139550D02*
X15248156Y-5144315D01*
X15144963Y-4133392D02*
X15140020Y-4133209D01*
X14452479Y-5195676D02*
X14451268Y-5190880D01*
X13395783Y-3465166D02*
X13393656Y-3464830D01*
X15053668Y-2976320D02*
X15054879Y-2971524D01*
X15111508Y-5260585D02*
X15107017Y-5258510D01*
X13816244Y-5609621D02*
X13815492Y-5607603D01*
X12629287Y-3971466D02*
X12632446Y-3967659D01*
X14653800Y-6203800D02*
X14653678Y-6208745D01*
X12716447Y-6104174D02*
X12721363Y-6104724D01*
X15842780Y-5635820D02*
X15838475Y-5635911D01*
X13842034Y-3043204D02*
X13844091Y-3042567D01*
X15236450Y-6246870D02*
X15234209Y-6251280D01*
X17062472Y-6274947D02*
X17058868Y-6278335D01*
X16290962Y-5636117D02*
X16286689Y-5635590D01*
X15125517Y-5265446D02*
X15120769Y-5264057D01*
X14518369Y-5073543D02*
X14523117Y-5072154D01*
X15816200Y-5218198D02*
X15818021Y-5217050D01*
X12806700Y-6218588D02*
X12805848Y-6223461D01*
X15140020Y-3933591D02*
X15144963Y-3933408D01*
X12779467Y-5243335D02*
X12775700Y-5246541D01*
X16894005Y-2962140D02*
X16895913Y-2957576D01*
X15882143Y-5254515D02*
X15881822Y-5258808D01*
X14572246Y-4131684D02*
X14567363Y-4132476D01*
X14451268Y-5146720D02*
X14452479Y-5141924D01*
X14567363Y-4132476D02*
X14562447Y-4133025D01*
X16895879Y-6230676D02*
X16894668Y-6225880D01*
X12758512Y-3947213D02*
X12762713Y-3949826D01*
X14495971Y-5253707D02*
X14491837Y-5250990D01*
X14542691Y-3934019D02*
X14547620Y-3933591D01*
X16990963Y-6103808D02*
X16995910Y-6103869D01*
X14619072Y-5097653D02*
X14622504Y-5101216D01*
X12711510Y-6103869D02*
X12716447Y-6104174D01*
X15838476Y-5211094D02*
X15842780Y-5211185D01*
X15115769Y-3938143D02*
X15120517Y-3936754D01*
X12749750Y-6113024D02*
X12754188Y-6115210D01*
X14615467Y-3072935D02*
X14611700Y-3076140D01*
X13859017Y-5211511D02*
X13863285Y-5212074D01*
X16887231Y-3000873D02*
X16887231Y-2995926D01*
X15174265Y-3937419D02*
X15178978Y-3938924D01*
X12706563Y-6103808D02*
X12711510Y-6103869D01*
X14487842Y-5089527D02*
X14491837Y-5086610D01*
X12616513Y-4074224D02*
X12614605Y-4069660D01*
X13480800Y-7240800D02*
X12411600Y-7240800D01*
X12808426Y-5198050D02*
X12806863Y-5202744D01*
X12792820Y-5228773D02*
X12789757Y-5232657D01*
X14653311Y-4023521D02*
X14653678Y-4028455D01*
X14586578Y-3938924D02*
X14591210Y-3940661D01*
X15226220Y-4093373D02*
X15223157Y-4097257D01*
X15179265Y-2902419D02*
X15183978Y-2903924D01*
X13434143Y-3450000D02*
X13431248Y-3453187D01*
X16894005Y-5205060D02*
X16892326Y-5200407D01*
X13820177Y-5277134D02*
X13817994Y-5273423D01*
X16926242Y-3077672D02*
X16922396Y-3074561D01*
X14647863Y-3999456D02*
X14649426Y-4004150D01*
X15236450Y-3990330D02*
X15238469Y-3994846D01*
X13822724Y-5566995D02*
X13825610Y-5563800D01*
X14491837Y-5250990D02*
X14487842Y-5248073D01*
X14523117Y-5265446D02*
X14518369Y-5264057D01*
X12726246Y-6105516D02*
X12731084Y-6106548D01*
X12807311Y-4043279D02*
X12806700Y-4048188D01*
X15049879Y-6176924D02*
X15051326Y-6172193D01*
X17288400Y-7240800D02*
X16219200Y-7240800D01*
X16293113Y-5636217D02*
X16290962Y-5636117D01*
X16892231Y-6206273D02*
X16892231Y-6201326D01*
X14644426Y-2969150D02*
X14645756Y-2973914D01*
X13813311Y-3080113D02*
X13813862Y-3075843D01*
X16264095Y-3453485D02*
X16261200Y-3450298D01*
X15197588Y-5080210D02*
X15201912Y-5082613D01*
X14591210Y-4126139D02*
X14586578Y-4127875D01*
X14449075Y-5176214D02*
X14448830Y-5171273D01*
X16995847Y-5069175D02*
X17000763Y-5069724D01*
X14527928Y-2900602D02*
X14532790Y-2899690D01*
X14454564Y-6216137D02*
X14454075Y-6211214D01*
X15229088Y-6147858D02*
X15231753Y-6152025D01*
X16948017Y-3943690D02*
X16952508Y-3941615D01*
X15209100Y-3955659D02*
X15212867Y-3958865D01*
X15881826Y-5588190D02*
X15882148Y-5592484D01*
X14462513Y-4074224D02*
X14460605Y-4069660D01*
X15069721Y-2940425D02*
X15072687Y-2936466D01*
X14625757Y-3062257D02*
X14622504Y-3065984D01*
X12798353Y-3050174D02*
X12795688Y-3054342D01*
X15120769Y-2903143D02*
X15125517Y-2901754D01*
X16900392Y-3048042D02*
X16898043Y-3043689D01*
X12610268Y-6225880D02*
X12609295Y-6221029D01*
X14456268Y-6181720D02*
X14457479Y-6176924D01*
X14628820Y-3058373D02*
X14625757Y-3062257D01*
X15231220Y-3058373D02*
X15228157Y-3062257D01*
X15249248Y-3018061D02*
X15248156Y-3022885D01*
X12811700Y-5183588D02*
X12810848Y-5188461D01*
X15111096Y-3939764D02*
X15115769Y-3938143D01*
X14577084Y-3936148D02*
X14581865Y-3937419D01*
X13825610Y-5563800D02*
X13852800Y-5538800D01*
X13879144Y-5629101D02*
X13877322Y-5630249D01*
X12632446Y-3967659D02*
X12635790Y-3964013D01*
X14454075Y-4025986D02*
X14454564Y-4021063D01*
X14647863Y-6237744D02*
X14647863Y-6237744D01*
X15120769Y-5073543D02*
X15125517Y-5072154D01*
X16905392Y-4083042D02*
X16903043Y-4078689D01*
X13859017Y-3041111D02*
X13863285Y-3041674D01*
X15243156Y-4057885D02*
X15241826Y-4062650D01*
X17057472Y-2927253D02*
X17060905Y-2930816D01*
X16311916Y-3044938D02*
X16313845Y-3045896D01*
X12672696Y-6110164D02*
X12677369Y-6108543D01*
X15183978Y-5263276D02*
X15179265Y-5264781D01*
X12792820Y-3058373D02*
X12789757Y-3062257D01*
X14467321Y-5110825D02*
X14470287Y-5106866D01*
X15919200Y-2500000D02*
X15919200Y-2500000D01*
X16889668Y-5190880D02*
X16888695Y-5186029D01*
X14641069Y-2959846D02*
X14642863Y-2964456D01*
X15214100Y-2920659D02*
X15217867Y-2923865D01*
X16892964Y-4045737D02*
X16892475Y-4040814D01*
X15188150Y-3942624D02*
X15192588Y-3944810D01*
X15206113Y-2914826D02*
X15210178Y-2917644D01*
X14527928Y-3096197D02*
X14523117Y-3095046D01*
X17082450Y-6246870D02*
X17080209Y-6251280D01*
X14464643Y-3988111D02*
X14466992Y-3983757D01*
X14557447Y-5069175D02*
X14562363Y-5069724D01*
X16990910Y-5068869D02*
X16995847Y-5069175D01*
X14488996Y-6127639D02*
X14492842Y-6124527D01*
X13443422Y-5258808D02*
X13442667Y-5263047D01*
X14523369Y-3938143D02*
X14528117Y-3936754D01*
X15243469Y-3036954D02*
X15243469Y-3036954D01*
X12805069Y-3036954D02*
X12803050Y-3041470D01*
X17024978Y-3938924D02*
X17029610Y-3940661D01*
X16961517Y-3095046D02*
X16956769Y-3093657D01*
X15246078Y-6208745D02*
X15245711Y-6213679D01*
X15135091Y-6303181D02*
X15130190Y-6302510D01*
X13443744Y-5594637D02*
X13443632Y-5596788D01*
X17072220Y-3973427D02*
X17075088Y-3977458D01*
X16900913Y-3992576D02*
X16903043Y-3988111D01*
X12612830Y-5171273D02*
X12612830Y-5166327D01*
X12706563Y-6303792D02*
X12701620Y-6303609D01*
X17081263Y-2964456D02*
X17082826Y-2969150D01*
X12682117Y-6300446D02*
X12677369Y-6299057D01*
X15866442Y-5220540D02*
X15869644Y-5223417D01*
X13442667Y-3092647D02*
X13442129Y-3094732D01*
X12740578Y-4127875D02*
X12735865Y-4129381D01*
X16892475Y-6196386D02*
X16892964Y-6191463D01*
X15251200Y-5168800D02*
X15251078Y-5173745D01*
X12677369Y-6299057D02*
X12672696Y-6297436D01*
X12625992Y-5218443D02*
X12623643Y-5214089D01*
X14473446Y-5103059D02*
X14476790Y-5099413D01*
X16258643Y-3446834D02*
X16256450Y-3443129D01*
X16966517Y-3936754D02*
X16971328Y-3935602D01*
X17033588Y-5080210D02*
X17037912Y-5082613D01*
X15228157Y-5232657D02*
X15224904Y-5236384D01*
X14567246Y-3096684D02*
X14562363Y-3097476D01*
X16257438Y-5572294D02*
X16258577Y-5570466D01*
X14450295Y-5186029D02*
X14449564Y-5181137D01*
X13426335Y-3048827D02*
X13429679Y-3051538D01*
X12803050Y-5211870D02*
X12800809Y-5216280D01*
X13440744Y-3407391D02*
X13442134Y-3411466D01*
X14612778Y-6123044D02*
X14616700Y-6126059D01*
X17288400Y-2000000D02*
X12411600Y-2000000D01*
X14470287Y-3060334D02*
X14467321Y-3056375D01*
X14653678Y-4038345D02*
X14653311Y-4043279D01*
X12646842Y-3954127D02*
X12650837Y-3951210D01*
X15762544Y-3098099D02*
X15816200Y-3047798D01*
X16995910Y-4133331D02*
X16990963Y-4133392D01*
X14496837Y-3951210D02*
X14500971Y-3948493D01*
X12616479Y-2971524D02*
X12617926Y-2966793D01*
X15081396Y-3957239D02*
X15085242Y-3954127D01*
X14647700Y-3013188D02*
X14646848Y-3018061D01*
X16926242Y-5089527D02*
X16930237Y-5086610D01*
X15212867Y-6278335D02*
X15209100Y-6281540D01*
X17092200Y-4033400D02*
X17092078Y-4038345D01*
X16902953Y-3052275D02*
X16900392Y-3048042D01*
X15086396Y-5092639D02*
X15090242Y-5089527D01*
X16261200Y-5226902D02*
X16264095Y-5223715D01*
X17024610Y-3091139D02*
X17019978Y-3092875D01*
X14456268Y-4011320D02*
X14457479Y-4006524D01*
X15159847Y-3098025D02*
X15154910Y-3098331D01*
X17046178Y-2917644D02*
X17050100Y-2920659D01*
X14552563Y-6103808D02*
X14557510Y-6103869D01*
X16253210Y-3411766D02*
X16254599Y-3407691D01*
X15881806Y-5248070D02*
X15882140Y-5252362D01*
X12621513Y-2957576D02*
X12623643Y-2953111D01*
X16966328Y-2900602D02*
X16971190Y-2899690D01*
X12809756Y-3022885D02*
X12808426Y-3027650D01*
X12607830Y-4035873D02*
X12607830Y-4030926D01*
X16254599Y-5578091D02*
X16255447Y-5576111D01*
X12620992Y-3983757D02*
X12623553Y-3979525D01*
X14472321Y-3975425D02*
X14475287Y-3971466D01*
X15881811Y-5598930D02*
X15881044Y-5603167D01*
X16887231Y-5171273D02*
X16887231Y-5166327D01*
X15149963Y-5068808D02*
X15154910Y-5068869D01*
X12745578Y-3092875D02*
X12740865Y-3094381D01*
X15059392Y-6154157D02*
X15061953Y-6149925D01*
X12654971Y-3948493D02*
X12659235Y-3945985D01*
X12608564Y-6191463D02*
X12609295Y-6186570D01*
X14636688Y-6259742D02*
X14633820Y-6263773D01*
X13383427Y-5215037D02*
X13385402Y-5214179D01*
X15875096Y-3059667D02*
X15877289Y-3063371D01*
X17015265Y-5072819D02*
X17019978Y-5074324D01*
X12726246Y-6302084D02*
X12721363Y-6302876D01*
X14599512Y-5082613D02*
X14603713Y-5085226D01*
X15054879Y-3025276D02*
X15053668Y-3020480D01*
X16943635Y-4120815D02*
X16939371Y-4118307D01*
X12790688Y-3977458D02*
X12793353Y-3981625D01*
X15089237Y-3951210D02*
X15093371Y-3948493D01*
X16911846Y-2932659D02*
X16915190Y-2929013D01*
X16293113Y-5211383D02*
X16297417Y-5211511D01*
X13836094Y-3461071D02*
X13832376Y-3458899D01*
X12696790Y-2899690D02*
X12701691Y-2899019D01*
X17051178Y-3952644D02*
X17055100Y-3955659D01*
X12790688Y-4089342D02*
X12787820Y-4093373D01*
X13381499Y-3045595D02*
X13383427Y-3044637D01*
X12616479Y-5141924D02*
X12617926Y-5137193D01*
X16943017Y-3088110D02*
X16938635Y-3085815D01*
X14631688Y-3054342D02*
X14628820Y-3058373D01*
X15164646Y-4131684D02*
X15159763Y-4132476D01*
X14595188Y-5257390D02*
X14590750Y-5259575D01*
X16900392Y-5119157D02*
X16902953Y-5114925D01*
X13825610Y-3393400D02*
X13852800Y-3368400D01*
X12790688Y-6259742D02*
X12787820Y-6263773D01*
X16957096Y-4127036D02*
X16952508Y-4125185D01*
X12686928Y-3935602D02*
X12691790Y-3934690D01*
X14532790Y-5267510D02*
X14527928Y-5266598D01*
X13435461Y-3057902D02*
X13437839Y-3061491D01*
X12754750Y-5078025D02*
X12759188Y-5080210D01*
X12668617Y-3088110D02*
X12664235Y-3085815D01*
X17070088Y-5224742D02*
X17067220Y-5228773D01*
X15159847Y-5268425D02*
X15154910Y-5268731D01*
X16255447Y-3405711D02*
X16257438Y-3401894D01*
X14532790Y-5070090D02*
X14537691Y-5069419D01*
X13814299Y-3433066D02*
X13813862Y-3430957D01*
X14595750Y-6294575D02*
X14591210Y-6296539D01*
X16892475Y-4040814D02*
X16892231Y-4035873D01*
X14562363Y-3097476D02*
X14557447Y-3098025D01*
X15250711Y-2988521D02*
X15251078Y-2993455D01*
X16305874Y-5213066D02*
X16309942Y-5214479D01*
X15241826Y-6233050D02*
X15240263Y-6237744D01*
X15064392Y-5218443D02*
X15062043Y-5214089D01*
X17085248Y-2978739D02*
X17086101Y-2983612D01*
X15216472Y-4104547D02*
X15212867Y-4107935D01*
X17053868Y-3072935D02*
X17050100Y-3076140D01*
X14476790Y-5099413D02*
X14480309Y-5095937D01*
X15882148Y-3422084D02*
X15882144Y-3424237D01*
X15878297Y-5575811D02*
X15879891Y-5579811D01*
X14620467Y-6278335D02*
X14616700Y-6281540D01*
X15832056Y-5635230D02*
X15827867Y-5634237D01*
X16935237Y-4115590D02*
X16931242Y-4112672D01*
X12801863Y-6237744D02*
X12800069Y-6242354D01*
X12613564Y-5156463D02*
X12614295Y-5151571D01*
X12759188Y-3086990D02*
X12754750Y-3089175D01*
X14470287Y-2936466D02*
X14473446Y-2932659D01*
X16935237Y-6121610D02*
X16939371Y-6118893D01*
X13438949Y-5573877D02*
X13440744Y-5577791D01*
X12696790Y-5070090D02*
X12701691Y-5069419D01*
X14480309Y-5241663D02*
X14476790Y-5238187D01*
X12706563Y-3933408D02*
X12711510Y-3933469D01*
X12628553Y-5222675D02*
X12625992Y-5218443D01*
X14496837Y-6285990D02*
X14492842Y-6283072D01*
X14452479Y-2971524D02*
X14453926Y-2966793D01*
X13437902Y-5275003D02*
X13435534Y-5278599D01*
X13825695Y-3053315D02*
X13827260Y-3051836D01*
X15058005Y-3034660D02*
X15056326Y-3030007D01*
X13377796Y-5628805D02*
X13349144Y-5603499D01*
X12778072Y-4104547D02*
X12774467Y-4107935D01*
X16986020Y-3933591D02*
X16990963Y-3933408D01*
X15174484Y-5266051D02*
X15169646Y-5267084D01*
X12798050Y-6246870D02*
X12795809Y-6251280D01*
X13377796Y-3458405D02*
X13349144Y-3433099D01*
X16892475Y-6211214D02*
X16892231Y-6206273D01*
X16251711Y-5597087D02*
X16251599Y-5594937D01*
X15059392Y-3983757D02*
X15061953Y-3979525D01*
X12673108Y-3090185D02*
X12668617Y-3088110D01*
X14464643Y-6158511D02*
X14466992Y-6154157D01*
X16252262Y-3430957D02*
X16251711Y-3426687D01*
X12726246Y-4131684D02*
X12721363Y-4132476D01*
X15192588Y-6115210D02*
X15196912Y-6117613D01*
X14622504Y-3065984D02*
X14619072Y-3069547D01*
X15135091Y-6104419D02*
X15140020Y-6103991D01*
X15174265Y-4129381D02*
X15169484Y-4130651D01*
X14557510Y-6303731D02*
X14552563Y-6303792D01*
X13780800Y-2700000D02*
X13780800Y-2500000D01*
X12770700Y-6281540D02*
X12766778Y-6284556D01*
X12632446Y-4099141D02*
X12629287Y-4095334D01*
X15834185Y-3041039D02*
X15838476Y-3040693D01*
X12804756Y-4008914D02*
X12805848Y-4013739D01*
X15140020Y-6103991D02*
X15144963Y-6103808D01*
X12668617Y-2908690D02*
X12673108Y-2906615D01*
X14642863Y-5202744D02*
X14642863Y-5202744D01*
X13434220Y-5566694D02*
X13435537Y-5568398D01*
X12806863Y-5202744D02*
X12806863Y-5202744D01*
X16927396Y-6127639D02*
X16931242Y-6124527D01*
X14552563Y-6303792D02*
X14547620Y-6303609D01*
X16986020Y-6303609D02*
X16981091Y-6303181D01*
X15125328Y-4131197D02*
X15120517Y-4130046D01*
X12411600Y-4870400D02*
X12411600Y-7040800D01*
X12640790Y-5099413D02*
X12644309Y-5095937D01*
X13852562Y-3041083D02*
X13856866Y-3040992D01*
X17046178Y-5088044D02*
X17050100Y-5091059D01*
X14586210Y-5076061D02*
X14590750Y-5078025D01*
X17010484Y-3095651D02*
X17005646Y-3096684D01*
X12651842Y-5248073D02*
X12647996Y-5244961D01*
X15231220Y-5228773D02*
X15228157Y-5232657D01*
X14452479Y-3025276D02*
X14451268Y-3020480D01*
X15872620Y-5566694D02*
X15873937Y-5568398D01*
X15089237Y-6285990D02*
X15085242Y-6283072D01*
X13813302Y-5256968D02*
X13813199Y-5252663D01*
X12682369Y-2903143D02*
X12687117Y-2901754D01*
X14572084Y-5266051D02*
X14567246Y-5267084D01*
X12716510Y-3098331D02*
X12711563Y-3098392D01*
X12655837Y-2916210D02*
X12659971Y-2913493D01*
X14644050Y-3990330D02*
X14646069Y-3994846D01*
X14647863Y-4067344D02*
X14646069Y-4071954D01*
X14453926Y-2966793D02*
X14455605Y-2962140D01*
X13832376Y-3458899D02*
X13830605Y-3457674D01*
X15064392Y-5119157D02*
X15066953Y-5114925D01*
X15234209Y-3985920D02*
X15236450Y-3990330D01*
X17042113Y-5252374D02*
X17037912Y-5254987D01*
X16971328Y-4131197D02*
X16966517Y-4130046D01*
X12659971Y-3083307D02*
X12655837Y-3080590D01*
X12639309Y-4106263D02*
X12635790Y-4102787D01*
X16923709Y-4106263D02*
X16920190Y-4102787D01*
X16251702Y-3086568D02*
X16251596Y-3084417D01*
X14461992Y-3048042D02*
X14459643Y-3043689D01*
X12615268Y-5190880D02*
X12614295Y-5186029D01*
X14460605Y-6240060D02*
X14458926Y-6235407D01*
X13830605Y-3457674D02*
X13827260Y-3454964D01*
X14616700Y-4111140D02*
X14612778Y-4114156D01*
X12775700Y-5091059D02*
X12779467Y-5094265D01*
X12726246Y-3935116D02*
X12731084Y-3936148D01*
X12762713Y-6120226D02*
X12766778Y-6123044D01*
X14528117Y-6300446D02*
X14523369Y-6299057D01*
X13379618Y-5629954D02*
X13377796Y-5628805D01*
X16887231Y-5166327D02*
X16887475Y-5161386D01*
X16371200Y-5578800D02*
X16317544Y-5629101D01*
X17079469Y-5130246D02*
X17081263Y-5134856D01*
X12763512Y-2912213D02*
X12767713Y-2914826D01*
X16889668Y-3020480D02*
X16888695Y-3015629D01*
X12611479Y-4060276D02*
X12610268Y-4055480D01*
X14542620Y-5268609D02*
X14537691Y-5268181D01*
X16910721Y-6145825D02*
X16913687Y-6141866D01*
X15046475Y-4025986D02*
X15046964Y-4021063D01*
X17084469Y-3994846D02*
X17086263Y-3999456D01*
X15074190Y-6273187D02*
X15070846Y-6269541D01*
X12696790Y-5267510D02*
X12691928Y-5266598D01*
X14458926Y-6235407D02*
X14457479Y-6230676D01*
X12411600Y-7240800D02*
X12411600Y-7740800D01*
X16251599Y-3424537D02*
X16251702Y-3420232D01*
X12696790Y-3097110D02*
X12691928Y-3096197D01*
X13428045Y-3456064D02*
X13424566Y-3458601D01*
X13412850Y-5212669D02*
X13416929Y-5214047D01*
X14478446Y-4099141D02*
X14475287Y-4095334D01*
X12411600Y-2500000D02*
X13480800Y-2500000D01*
X14650756Y-4008914D02*
X14651848Y-4013739D01*
X12721363Y-4132476D02*
X12716447Y-4133025D01*
X12655837Y-3080590D02*
X12651842Y-3077672D01*
X16948017Y-6293510D02*
X16943635Y-6291215D01*
X15102017Y-4123110D02*
X15097635Y-4120815D01*
X12763512Y-3084587D02*
X12759188Y-3086990D01*
X17034150Y-4124175D02*
X17029610Y-4126139D01*
X13820243Y-3446834D02*
X13819099Y-3445009D01*
X15219904Y-4100984D02*
X15216472Y-4104547D01*
X14496837Y-6121610D02*
X14500971Y-6118893D01*
X15093371Y-3948493D02*
X15097635Y-3945985D01*
X12750210Y-2905661D02*
X12754750Y-2907624D01*
X12735865Y-6107819D02*
X12740578Y-6109324D01*
X15135190Y-3097110D02*
X15130328Y-3096197D01*
X16897326Y-4065007D02*
X16895879Y-4060276D01*
X12617926Y-3030007D02*
X12616479Y-3025276D01*
X14480309Y-3071263D02*
X14476790Y-3067787D01*
X14449564Y-3010737D02*
X14449075Y-3005814D01*
X14619072Y-5239947D02*
X14615467Y-5243335D01*
X15251078Y-3003345D02*
X15250711Y-3008279D01*
X15818021Y-5217050D02*
X15821827Y-5215037D01*
X15876305Y-5571994D02*
X15878297Y-5575811D01*
X12686928Y-4131197D02*
X12682117Y-4130046D01*
X14528117Y-4130046D02*
X14523369Y-4128657D01*
X13439846Y-3440899D02*
X13438893Y-3442830D01*
X14577084Y-6106548D02*
X14581865Y-6107819D01*
X17080209Y-6156320D02*
X17082450Y-6160730D01*
X13439841Y-5235702D02*
X13441447Y-5239697D01*
X15130190Y-6105090D02*
X15135091Y-6104419D01*
X14476790Y-5238187D02*
X14473446Y-5234541D01*
X16303792Y-3042117D02*
X16307926Y-3043321D01*
X16254599Y-3099109D02*
X16253210Y-3095034D01*
X15212867Y-6129265D02*
X15216472Y-6132653D01*
X14581578Y-5074324D02*
X14586210Y-5076061D01*
X15243469Y-5207354D02*
X15241450Y-5211870D01*
X14487842Y-3077672D02*
X14483996Y-3074561D01*
X15246826Y-3027650D02*
X15245263Y-3032344D01*
X12668108Y-6112015D02*
X12672696Y-6110164D01*
X14590750Y-5259575D02*
X14586210Y-5261539D01*
X15214100Y-5246541D02*
X15210178Y-5249556D01*
X16939371Y-3948493D02*
X16943635Y-3945985D01*
X14459643Y-5123511D02*
X14461992Y-5119157D01*
X13439893Y-5271186D02*
X13437902Y-5275003D01*
X16948017Y-4123110D02*
X16943635Y-4120815D01*
X14586578Y-4127875D02*
X14581865Y-4129381D01*
X12650837Y-6285990D02*
X12646842Y-6283072D01*
X17065905Y-6136216D02*
X17069157Y-6139943D01*
X15240263Y-4067344D02*
X15238469Y-4071954D01*
X17072220Y-6143827D02*
X17075088Y-6147858D01*
X12759188Y-5080210D02*
X12763512Y-5082613D01*
X16261124Y-3396595D02*
X16264010Y-3393400D01*
X17077754Y-3981625D02*
X17080209Y-3985920D01*
X12783072Y-5097653D02*
X12786504Y-5101216D01*
X17010484Y-2901148D02*
X17015265Y-2902419D01*
X14483996Y-3074561D02*
X14480309Y-3071263D01*
X12677696Y-5262436D02*
X12673108Y-5260585D01*
X14491837Y-5086610D02*
X14495971Y-5083893D01*
X13416929Y-5214047D02*
X13420847Y-5215831D01*
X12682369Y-5073543D02*
X12687117Y-5072154D01*
X12807678Y-4028455D02*
X12807800Y-4033400D01*
X15054913Y-6244624D02*
X15053005Y-6240060D01*
X15057043Y-4078689D02*
X15054913Y-4074224D01*
X12616479Y-3025276D02*
X12615268Y-3020480D01*
X17038588Y-6292390D02*
X17034150Y-6294575D01*
X15238469Y-4071954D02*
X15236450Y-4076470D01*
X12634287Y-5230734D02*
X12631321Y-5226775D01*
X13404144Y-3368099D02*
X13431334Y-3393099D01*
X16262607Y-3054872D02*
X16264095Y-3053315D01*
X12736084Y-3095651D02*
X12731246Y-3096684D01*
X12795688Y-3054342D02*
X12792820Y-3058373D01*
X14467321Y-2940425D02*
X14470287Y-2936466D01*
X16981020Y-5268609D02*
X16976091Y-5268181D01*
X13435537Y-3397998D02*
X13436767Y-3399766D01*
X17042912Y-6289987D02*
X17038588Y-6292390D01*
X15221472Y-2927253D02*
X15224904Y-2930816D01*
X15245711Y-6193921D02*
X15246078Y-6198855D01*
X14532790Y-3097110D02*
X14527928Y-3096197D01*
X15140091Y-5069419D02*
X15145020Y-5068991D01*
X15223157Y-6139943D02*
X15226220Y-6143827D01*
X14557447Y-5268425D02*
X14552510Y-5268731D01*
X12614295Y-3015629D02*
X12613564Y-3010737D01*
X12659971Y-2913493D02*
X12664235Y-2910985D01*
X16897326Y-6172193D02*
X16899005Y-6167540D01*
X17015484Y-3936148D02*
X17020265Y-3937419D01*
X14513696Y-5262436D02*
X14509108Y-5260585D01*
X15051475Y-2990986D02*
X15051964Y-2986063D01*
X16291200Y-5308800D02*
X16264010Y-5283800D01*
X14509617Y-4123110D02*
X14505235Y-4120815D01*
X13377800Y-3047798D02*
X13381499Y-3045595D01*
X14586578Y-6109324D02*
X14591210Y-6111061D01*
X16934371Y-3083307D02*
X16930237Y-3080590D01*
X14603713Y-3081974D02*
X14599512Y-3084587D01*
X15145020Y-5268609D02*
X15140091Y-5268181D01*
X14518696Y-6110164D02*
X14523369Y-6108543D01*
X16264095Y-5223715D02*
X16265660Y-5222236D01*
X17087826Y-6233050D02*
X17087826Y-6233050D01*
X12691928Y-3096197D02*
X12687117Y-3095046D01*
X12655837Y-5086610D02*
X12659971Y-5083893D01*
X15873934Y-5278599D02*
X15872617Y-5280302D01*
X12677369Y-4128657D02*
X12672696Y-4127036D01*
X17005763Y-3934324D02*
X17010646Y-3935116D01*
X15149910Y-3933469D02*
X15154847Y-3933774D01*
X15193150Y-5078025D02*
X15197588Y-5080210D01*
X12634287Y-5106866D02*
X12637446Y-5103059D01*
X14622504Y-2930816D02*
X14625757Y-2934543D01*
X16930237Y-5086610D02*
X16934371Y-5083893D01*
X14647700Y-2983612D02*
X14648311Y-2988521D01*
X12784757Y-3969543D02*
X12787820Y-3973427D01*
X14562363Y-5267876D02*
X14557447Y-5268425D01*
X12778072Y-6274947D02*
X12774467Y-6278335D01*
X15246826Y-5198050D02*
X15245263Y-5202744D01*
X15067687Y-3971466D02*
X15070846Y-3967659D01*
X16888695Y-5186029D02*
X16887964Y-5181137D01*
X17042113Y-5085226D02*
X17046178Y-5088044D01*
X14509108Y-3090185D02*
X14504617Y-3088110D01*
X15827867Y-3463837D02*
X15825815Y-3463183D01*
X12639309Y-6130937D02*
X12642996Y-6127639D01*
X16961517Y-5072154D02*
X16966328Y-5071002D01*
X15197588Y-5257390D02*
X15193150Y-5259575D01*
X12677369Y-6108543D02*
X12682117Y-6107154D01*
X13815492Y-3437203D02*
X13814299Y-3433066D01*
X12647996Y-3074561D02*
X12644309Y-3071263D01*
X12781504Y-3965816D02*
X12784757Y-3969543D01*
X12639309Y-3960537D02*
X12642996Y-3957239D01*
X16255447Y-3101089D02*
X16254599Y-3099109D01*
X12629287Y-6265734D02*
X12626321Y-6261775D01*
X12762713Y-6287374D02*
X12758512Y-6289987D01*
X15051475Y-5176214D02*
X15051230Y-5171273D01*
X16257499Y-3061791D02*
X16259877Y-3058202D01*
X15090242Y-5089527D02*
X15094237Y-5086610D01*
X14466992Y-6154157D02*
X14469553Y-6149925D01*
X15188610Y-5261539D02*
X15183978Y-5263276D01*
X14636688Y-3977458D02*
X14639353Y-3981625D01*
X12749750Y-3942624D02*
X12754188Y-3944810D01*
X15205178Y-6123044D02*
X15209100Y-6126059D01*
X17058868Y-4107935D02*
X17055100Y-4111140D01*
X12786504Y-3065984D02*
X12783072Y-3069547D01*
X13404144Y-3138099D02*
X13404144Y-3368099D01*
X13825610Y-3113400D02*
X13822724Y-3110205D01*
X16898043Y-2953111D02*
X16900392Y-2948757D01*
X14611700Y-3076140D02*
X14607778Y-3079156D01*
X12754188Y-6292390D02*
X12749750Y-6294575D01*
X16922396Y-3074561D02*
X16918709Y-3071263D01*
X15866445Y-5626464D02*
X15862966Y-5629001D01*
X15226220Y-3973427D02*
X15229088Y-3977458D01*
X12745578Y-5263276D02*
X12740865Y-5264781D01*
X13875445Y-3460904D02*
X13871542Y-3462721D01*
X12716447Y-6303425D02*
X12711510Y-6303731D01*
X17000763Y-3097476D02*
X16995847Y-3098025D01*
X16907953Y-3979525D02*
X16910721Y-3975425D01*
X16939371Y-6118893D02*
X16943635Y-6116385D01*
X13852562Y-3465717D02*
X13850419Y-3465508D01*
X12623643Y-5123511D02*
X12625992Y-5119157D01*
X14495971Y-2913493D02*
X14500235Y-2910985D01*
X15864738Y-3457377D02*
X15861135Y-3459735D01*
X12696691Y-3934019D02*
X12701620Y-3933591D01*
X16916846Y-6138059D02*
X16920190Y-6134413D01*
X16269005Y-5628074D02*
X16265660Y-5625364D01*
X16908687Y-2936466D02*
X16911846Y-2932659D01*
X15149963Y-2898408D02*
X15154910Y-2898469D01*
X15067687Y-4095334D02*
X15064721Y-4091375D01*
X16264010Y-3113400D02*
X16261124Y-3110205D01*
X12810848Y-2978739D02*
X12811700Y-2983612D01*
X15231220Y-5108827D02*
X15234088Y-5112858D01*
X14608713Y-6120226D02*
X14612778Y-6123044D01*
X16895913Y-3039224D02*
X16894005Y-3034660D01*
X15090242Y-2919127D02*
X15094237Y-2916210D01*
X15241450Y-3041470D02*
X15239209Y-3045880D01*
X14581578Y-2903924D02*
X14586210Y-2905661D01*
X14590750Y-2907624D02*
X14595188Y-2909810D01*
X16930237Y-5250990D02*
X16926242Y-5248073D01*
X14455605Y-3034660D02*
X14453926Y-3030007D01*
X15081396Y-6127639D02*
X15085242Y-6124527D01*
X15881044Y-3432767D02*
X15879851Y-3436904D01*
X15223157Y-3969543D02*
X15226220Y-3973427D01*
X13439841Y-3065302D02*
X13441447Y-3069297D01*
X15881826Y-3417790D02*
X15882148Y-3422084D01*
X17010484Y-5266051D02*
X17005646Y-5267084D01*
X14649426Y-6233050D02*
X14647863Y-6237744D01*
X17084156Y-5193285D02*
X17082826Y-5198050D01*
X14505235Y-3945985D02*
X14509617Y-3943690D01*
X14611700Y-2920659D02*
X14615467Y-2923865D01*
X12798050Y-3990330D02*
X12800069Y-3994846D01*
X15238469Y-4071954D02*
X15238469Y-4071954D01*
X17072220Y-4093373D02*
X17069157Y-4097257D01*
X14641069Y-5130246D02*
X14642863Y-5134856D01*
X13324144Y-5578499D02*
X13324144Y-5268499D01*
X13844091Y-5212967D02*
X13848289Y-5212010D01*
X12640790Y-3067787D02*
X12637446Y-3064141D01*
X14850000Y-7040800D02*
X15919200Y-7040800D01*
X16252241Y-5586361D02*
X16253210Y-5582166D01*
X14628820Y-5228773D02*
X14625757Y-5232657D01*
X13383424Y-5631966D02*
X13379618Y-5629954D01*
X17085248Y-5149139D02*
X17086101Y-5154012D01*
X14450295Y-5151571D02*
X14451268Y-5146720D01*
X17086711Y-5178679D02*
X17086101Y-5183588D01*
X12745210Y-6296539D02*
X12740578Y-6298275D01*
X15872617Y-3109902D02*
X15869734Y-3113099D01*
X13813841Y-3090839D02*
X13813302Y-3086568D01*
X12613564Y-3010737D02*
X12613075Y-3005814D01*
X15219904Y-6271384D02*
X15216472Y-6274947D01*
X15875096Y-5230067D02*
X15877289Y-5233771D01*
X15174484Y-3095651D02*
X15169646Y-3096684D01*
X16995847Y-2898774D02*
X17000763Y-2899324D01*
X15209100Y-4111140D02*
X15205178Y-4114156D01*
X16303792Y-5635083D02*
X16299558Y-5635862D01*
X12623553Y-3979525D02*
X12626321Y-3975425D01*
X17087078Y-5163855D02*
X17087200Y-5168800D01*
X16903043Y-6158511D02*
X16905392Y-6154157D01*
X16947508Y-3090185D02*
X16943017Y-3088110D01*
X12798353Y-5117026D02*
X12800809Y-5121320D01*
X16290962Y-5211483D02*
X16293113Y-5211383D01*
X15116096Y-5075164D02*
X15120769Y-5073543D01*
X16269005Y-3049125D02*
X16272607Y-3046768D01*
X16276430Y-5215187D02*
X16278412Y-5214345D01*
X14458926Y-4065007D02*
X14457479Y-4060276D01*
X13822724Y-5280605D02*
X13820177Y-5277134D01*
X14647700Y-5154012D02*
X14648311Y-5158921D01*
X17000763Y-2899324D02*
X17005646Y-2900116D01*
X15861135Y-3459735D02*
X15857312Y-3461715D01*
X13854713Y-5211383D02*
X13859017Y-5211511D01*
X15871136Y-5622030D02*
X15868083Y-5625066D01*
X13813311Y-5597087D02*
X13813199Y-5594937D01*
X12803050Y-5125730D02*
X12805069Y-5130246D01*
X12716510Y-5068869D02*
X12721447Y-5069175D01*
X15085242Y-4112672D02*
X15081396Y-4109561D01*
X12614295Y-5186029D02*
X12613564Y-5181137D01*
X16270776Y-3458899D02*
X16269005Y-3457674D01*
X13443743Y-3084115D02*
X13443422Y-3088408D01*
X13432732Y-3054573D02*
X13435461Y-3057902D01*
X17069157Y-6139943D02*
X17072220Y-6143827D01*
X14567246Y-2900116D02*
X14572084Y-2901148D01*
X17075088Y-6147858D02*
X17077754Y-6152025D01*
X13834207Y-5217168D02*
X13838030Y-5215187D01*
X14642863Y-5202744D02*
X14641069Y-5207354D01*
X15881067Y-3092647D02*
X15880529Y-3094732D01*
X12731246Y-5070516D02*
X12736084Y-5071549D01*
X16219200Y-7040800D02*
X17288400Y-7040800D01*
X13825610Y-5283800D02*
X13822724Y-5280605D01*
X14552563Y-3933408D02*
X14557510Y-3933469D01*
X12626321Y-6261775D02*
X12623553Y-6257675D01*
X15106508Y-3941615D02*
X15111096Y-3939764D01*
X13815453Y-3409710D02*
X13816199Y-3407691D01*
X16258577Y-5277134D02*
X16257438Y-5275306D01*
X12774467Y-6278335D02*
X12770700Y-6281540D01*
X12811700Y-2983612D02*
X12812311Y-2988521D01*
X13813199Y-5252663D02*
X13813311Y-5250513D01*
X14542691Y-6303181D02*
X14537790Y-6302510D01*
X15056326Y-2966793D02*
X15058005Y-2962140D01*
X14649426Y-4062650D02*
X14647863Y-4067344D01*
X14455295Y-6221029D02*
X14454564Y-6216137D01*
X14616700Y-3955659D02*
X14620467Y-3958865D01*
X17080209Y-4080880D02*
X17077754Y-4085174D01*
X14645756Y-3022885D02*
X14644426Y-3027650D01*
X14572084Y-3095651D02*
X14567246Y-3096684D01*
X16893695Y-4016170D02*
X16894668Y-4011320D01*
X13480800Y-2700000D02*
X12411600Y-2700000D01*
X15834183Y-5635566D02*
X15832056Y-5635230D01*
X14552510Y-5268731D02*
X14547563Y-5268792D01*
X14523369Y-6299057D02*
X14518696Y-6297436D01*
X15881067Y-5263047D02*
X15880529Y-5265132D01*
X13820177Y-5570466D02*
X13822724Y-5566995D01*
X17000847Y-4133025D02*
X16995910Y-4133331D01*
X16887475Y-3005814D02*
X16887231Y-3000873D01*
X17015265Y-3094381D02*
X17010484Y-3095651D01*
X15880529Y-3094732D02*
X15879887Y-3096787D01*
X16259877Y-3058202D02*
X16262607Y-3054872D01*
X14455605Y-5205060D02*
X14453926Y-5200407D01*
X14625757Y-5232657D02*
X14622504Y-5236384D01*
X14523369Y-6108543D02*
X14528117Y-6107154D01*
X14641809Y-4080880D02*
X14639353Y-4085174D01*
X17037912Y-5254987D02*
X17033588Y-5257390D01*
X16935237Y-3951210D02*
X16939371Y-3948493D01*
X12619605Y-5205060D02*
X12617926Y-5200407D01*
X13846178Y-3464765D02*
X13844091Y-3464233D01*
X15879887Y-3096787D02*
X15878293Y-3100786D01*
X15239209Y-2950920D02*
X15241450Y-2955330D01*
X16913687Y-6265734D02*
X16910721Y-6261775D01*
X17091101Y-6189012D02*
X17091711Y-6193921D01*
X15236753Y-2946625D02*
X15239209Y-2950920D01*
X15062043Y-2953111D02*
X15064392Y-2948757D01*
X14620467Y-3958865D02*
X14624072Y-3962253D01*
X17010646Y-6105516D02*
X17015484Y-6106548D01*
X15154847Y-6303425D02*
X15149910Y-6303731D01*
X17033588Y-3086990D02*
X17029150Y-3089175D01*
X16899005Y-6167540D02*
X16900913Y-6162976D01*
X15869734Y-5563499D02*
X15872620Y-5566694D01*
X13879144Y-3458701D02*
X13875445Y-3460904D01*
X13442129Y-3094732D02*
X13440740Y-3098806D01*
X13820243Y-5617234D02*
X13818050Y-5613529D01*
X15054913Y-4074224D02*
X15053005Y-4069660D01*
X12613075Y-5176214D02*
X12612830Y-5171273D01*
X14586210Y-5261539D02*
X14581578Y-5263276D01*
X15052695Y-2981170D02*
X15053668Y-2976320D01*
X15064392Y-3048042D02*
X15062043Y-3043689D01*
X16990963Y-4133392D02*
X16986020Y-4133209D01*
X15842544Y-5308499D02*
X15842544Y-5538499D01*
X12613564Y-5181137D02*
X12613075Y-5176214D01*
X14604512Y-6289987D02*
X14600188Y-6292390D01*
X15241450Y-2955330D02*
X15243469Y-2959846D01*
X17000763Y-5069724D02*
X17005646Y-5070516D01*
X12682117Y-3936754D02*
X12686928Y-3935602D01*
X15074190Y-4102787D02*
X15070846Y-4099141D01*
X14451268Y-2976320D02*
X14452479Y-2971524D01*
X12711510Y-4133331D02*
X12706563Y-4133392D01*
X15120517Y-6300446D02*
X15115769Y-6299057D01*
X15829951Y-5212217D02*
X15832058Y-5211774D01*
X17050100Y-5246541D02*
X17046178Y-5249556D01*
X15234209Y-4080880D02*
X15231753Y-4085174D01*
X12701691Y-5069419D02*
X12706620Y-5068991D01*
X15183978Y-5074324D02*
X15188610Y-5076061D01*
X13393656Y-5635230D02*
X13391549Y-5634787D01*
X15243156Y-4008914D02*
X15244248Y-4013739D01*
X13844091Y-3042567D02*
X13848289Y-3041610D01*
X15169484Y-6106548D02*
X15174265Y-6107819D01*
X12795809Y-6156320D02*
X12798050Y-6160730D01*
X16286689Y-3041610D02*
X16290962Y-3041083D01*
X12691790Y-6302510D02*
X12686928Y-6301597D01*
X14537691Y-5069419D02*
X14542620Y-5068991D01*
X16976091Y-5069419D02*
X16981020Y-5068991D01*
X15102635Y-5081385D02*
X15107017Y-5079090D01*
X17000847Y-6303425D02*
X16995910Y-6303731D01*
X14650756Y-6179314D02*
X14651848Y-6184139D01*
X15140091Y-3097781D02*
X15135190Y-3097110D01*
X13387415Y-5633583D02*
X13383424Y-5631966D01*
X15879851Y-3436904D02*
X15878246Y-3440899D01*
X15872617Y-5280302D02*
X15869734Y-5283499D01*
X15054879Y-2971524D02*
X15056326Y-2966793D01*
X12779467Y-2923865D02*
X12783072Y-2927253D01*
X12672696Y-4127036D02*
X12668108Y-4125185D01*
X14467321Y-5226775D02*
X14464553Y-5222675D01*
X15056326Y-3030007D02*
X15054879Y-3025276D01*
X14485309Y-6130937D02*
X14488996Y-6127639D01*
X12806863Y-5134856D02*
X12808426Y-5139550D01*
X15074190Y-3964013D02*
X15077709Y-3960537D01*
X14652700Y-4018612D02*
X14653311Y-4023521D01*
X12812678Y-2993455D02*
X12812800Y-2998400D01*
X12682369Y-3093657D02*
X12677696Y-3092036D01*
X15825817Y-5213421D02*
X15829951Y-5212217D01*
X14644050Y-6160730D02*
X14646069Y-6165246D01*
X16990963Y-6303792D02*
X16986020Y-6303609D01*
X17000763Y-5267876D02*
X16995847Y-5268425D01*
X13391549Y-3464387D02*
X13387415Y-3463183D01*
X13431334Y-3113099D02*
X13404144Y-3138099D01*
X12721447Y-2898774D02*
X12726363Y-2899324D01*
X15873865Y-5618700D02*
X15871136Y-5622030D01*
X15842780Y-3465420D02*
X15838475Y-3465511D01*
X16265660Y-3051836D02*
X16269005Y-3049125D01*
X17288400Y-7040800D02*
X17288400Y-4870400D01*
X16254599Y-3407691D02*
X16255447Y-3405711D01*
X15070846Y-4099141D02*
X15067687Y-4095334D01*
X16251932Y-5248371D02*
X16252699Y-5244134D01*
X13825695Y-5223715D02*
X13828898Y-5220838D01*
X16938635Y-2910985D02*
X16943017Y-2908690D01*
X15052695Y-5186029D02*
X15051964Y-5181137D01*
X15089237Y-4115590D02*
X15085242Y-4112672D01*
X17077754Y-6255574D02*
X17075088Y-6259742D01*
X12711563Y-2898408D02*
X12716510Y-2898469D01*
X12807311Y-4023521D02*
X12807678Y-4028455D01*
X17082826Y-3027650D02*
X17081263Y-3032344D01*
X15130190Y-3934690D02*
X15135091Y-3934019D01*
X12759188Y-5257390D02*
X12754750Y-5259575D01*
X12800069Y-4071954D02*
X12800069Y-4071954D01*
X17070088Y-5112858D02*
X17072754Y-5117026D01*
X16981091Y-6104419D02*
X16986020Y-6103991D01*
X15140091Y-2899019D02*
X15145020Y-2898591D01*
X16926242Y-2919127D02*
X16930237Y-2916210D01*
X15051475Y-5161386D02*
X15051964Y-5156463D01*
X16947508Y-2906615D02*
X16952096Y-2904764D01*
X15881039Y-3073434D02*
X15881806Y-3077670D01*
X12640790Y-2929013D02*
X12644309Y-2925537D01*
X13817097Y-3441198D02*
X13815492Y-3437203D01*
X14636809Y-5121320D02*
X14639050Y-5125730D01*
X14464553Y-5114925D02*
X14467321Y-5110825D01*
X16981020Y-5068991D02*
X16985963Y-5068808D01*
X15245711Y-4043279D02*
X15245100Y-4048188D01*
X12659971Y-5083893D02*
X12664235Y-5081385D01*
X14504617Y-2908690D02*
X14509108Y-2906615D01*
X15881503Y-5586061D02*
X15881826Y-5588190D01*
X17029610Y-6111061D02*
X17034150Y-6113024D01*
X16297417Y-5636089D02*
X16293113Y-5636217D01*
X15077709Y-4106263D02*
X15074190Y-4102787D01*
X14636809Y-5216280D02*
X14634353Y-5220574D01*
X17082450Y-6160730D02*
X17084469Y-6165246D01*
X14850000Y-2700000D02*
X13780800Y-2700000D01*
X12691928Y-5071002D02*
X12696790Y-5070090D01*
X14652700Y-6189012D02*
X14653311Y-6193921D01*
X14547620Y-6303609D02*
X14542691Y-6303181D01*
X12608075Y-6196386D02*
X12608564Y-6191463D01*
X16915190Y-2929013D02*
X16918709Y-2925537D01*
X14453830Y-6206273D02*
X14453830Y-6201326D01*
X12613564Y-2986063D02*
X12614295Y-2981170D01*
X14625757Y-2934543D02*
X14628820Y-2938427D01*
X15111096Y-4127036D02*
X15106508Y-4125185D01*
X15855329Y-3043647D02*
X15859247Y-3045431D01*
X15061953Y-6257675D02*
X15059392Y-6253442D01*
X13443081Y-5601058D02*
X13442100Y-5605251D01*
X15046964Y-6191463D02*
X15047695Y-6186570D01*
X12664235Y-3085815D02*
X12659971Y-3083307D01*
X15869734Y-3113099D02*
X15842544Y-3138099D01*
X14642863Y-2964456D02*
X14644426Y-2969150D01*
X12411600Y-7040800D02*
X13480800Y-7040800D01*
X15046475Y-6211214D02*
X15046230Y-6206273D01*
X15159847Y-5069175D02*
X15164763Y-5069724D01*
X13381496Y-3460608D02*
X13377796Y-3458405D01*
X14615467Y-5094265D02*
X14619072Y-5097653D01*
X16938635Y-3085815D02*
X16934371Y-3083307D01*
X15064392Y-2948757D02*
X15066953Y-2944525D01*
X16253210Y-5265434D02*
X16252241Y-5261239D01*
X17288400Y-2700000D02*
X16219200Y-2700000D01*
X14603713Y-5252374D02*
X14599512Y-5254987D01*
X12618643Y-6158511D02*
X12620992Y-6154157D01*
X12640790Y-5238187D02*
X12637446Y-5234541D01*
X14473446Y-3064141D02*
X14470287Y-3060334D01*
X12687117Y-5072154D02*
X12691928Y-5071002D01*
X16895879Y-6176924D02*
X16897326Y-6172193D01*
X14641069Y-5207354D02*
X14639050Y-5211870D01*
X15880495Y-5241750D02*
X15881039Y-5243834D01*
X16923709Y-3960537D02*
X16927396Y-3957239D01*
X17024978Y-4127875D02*
X17020265Y-4129381D01*
X16927396Y-6279961D02*
X16923709Y-6276663D01*
X13780800Y-7040800D02*
X14850000Y-7040800D01*
X16956769Y-3093657D02*
X16952096Y-3092036D01*
X16952096Y-3092036D02*
X16947508Y-3090185D01*
X13437839Y-3061491D02*
X13439841Y-3065302D01*
X13408653Y-5635293D02*
X13404380Y-5635820D01*
X17060905Y-5236384D02*
X17057472Y-5239947D01*
X15188150Y-6294575D02*
X15183610Y-6296539D01*
X12637446Y-5234541D02*
X12634287Y-5230734D01*
X16890879Y-3025276D02*
X16889668Y-3020480D01*
X13818050Y-5613529D02*
X13816244Y-5609621D01*
X12793353Y-6152025D02*
X12795809Y-6156320D01*
X17085248Y-3018061D02*
X17084156Y-3022885D01*
X17087078Y-3003345D02*
X17086711Y-3008279D01*
X16900913Y-4074224D02*
X16899005Y-4069660D01*
X12721363Y-3934324D02*
X12726246Y-3935116D01*
X14459643Y-5214089D02*
X14457513Y-5209624D01*
X14532928Y-6106002D02*
X14537790Y-6105090D01*
X15244248Y-6184139D02*
X15245100Y-6189012D01*
X16893695Y-6186570D02*
X16894668Y-6181720D01*
X16931242Y-4112672D02*
X16927396Y-4109561D01*
X12607830Y-6201326D02*
X12608075Y-6196386D01*
X13408653Y-5211712D02*
X13412850Y-5212669D01*
X15051326Y-6235407D02*
X15049879Y-6230676D01*
X14518696Y-3939764D02*
X14523369Y-3938143D01*
X14634353Y-2946625D02*
X14636809Y-2950920D01*
X14547563Y-5068808D02*
X14552510Y-5068869D01*
X13438949Y-3403477D02*
X13440744Y-3407391D01*
X12691790Y-4132110D02*
X12686928Y-4131197D01*
X13832376Y-5218301D02*
X13834207Y-5217168D01*
X16257499Y-5232191D02*
X16259877Y-5228602D01*
X14473446Y-5234541D02*
X14470287Y-5230734D01*
X15216472Y-6132653D02*
X15219904Y-6136216D01*
X12809756Y-2973914D02*
X12810848Y-2978739D01*
X14547563Y-2898408D02*
X14552510Y-2898469D01*
X15873937Y-3397998D02*
X15876305Y-3401594D01*
X15214100Y-3076140D02*
X15210178Y-3079156D01*
X15821827Y-3044637D02*
X15825817Y-3043021D01*
X15196912Y-6117613D02*
X15201113Y-6120226D01*
X17087826Y-4004150D02*
X17089156Y-4008914D01*
X14648678Y-5163855D02*
X14648800Y-5168800D01*
X15154910Y-3098331D02*
X15149963Y-3098392D01*
X14449564Y-2986063D02*
X14450295Y-2981170D01*
X14527928Y-5071002D02*
X14532790Y-5070090D01*
X15081396Y-6279961D02*
X15077709Y-6276663D01*
X12672696Y-3939764D02*
X12677369Y-3938143D01*
X16274494Y-5631471D02*
X16270776Y-5629299D01*
X14505235Y-6116385D02*
X14509617Y-6114090D01*
X15062043Y-3043689D02*
X15059913Y-3039224D01*
X12668108Y-6295585D02*
X12663617Y-6293510D01*
X15821824Y-5631966D02*
X15818018Y-5629954D01*
X14464553Y-3052275D02*
X14461992Y-3048042D01*
X15217867Y-3072935D02*
X15214100Y-3076140D01*
X12787820Y-6143827D02*
X12790688Y-6147858D01*
X16923709Y-6130937D02*
X16927396Y-6127639D01*
X14641069Y-3036954D02*
X14639050Y-3041470D01*
X15881811Y-3428530D02*
X15881044Y-3432767D01*
X15072687Y-5230734D02*
X15069721Y-5226775D01*
X14581578Y-3092875D02*
X14576865Y-3094381D01*
X12614605Y-6240060D02*
X12612926Y-6235407D01*
X14518369Y-2903143D02*
X14523117Y-2901754D01*
X15183610Y-4126139D02*
X15178978Y-4127875D01*
X17029150Y-2907624D02*
X17033588Y-2909810D01*
X15205178Y-3952644D02*
X15209100Y-3955659D01*
X15236753Y-5117026D02*
X15239209Y-5121320D01*
X16276430Y-3044787D02*
X16278412Y-3043945D01*
X16971190Y-2899690D02*
X16976091Y-2899019D01*
X14633820Y-6143827D02*
X14636688Y-6147858D01*
X13442667Y-5263047D02*
X13442129Y-5265132D01*
X12805069Y-5207354D02*
X12803050Y-5211870D01*
X14470287Y-5230734D02*
X14467321Y-5226775D01*
X16256450Y-3443129D02*
X16254644Y-3439221D01*
X15140091Y-5268181D02*
X15135190Y-5267510D01*
X14581865Y-4129381D02*
X14577084Y-4130651D01*
X15236753Y-5220574D02*
X15234088Y-5224742D01*
X15120517Y-3936754D02*
X15125328Y-3935602D01*
X12731084Y-4130651D02*
X12726246Y-4131684D01*
X17051178Y-6284556D02*
X17047113Y-6287374D01*
X15049879Y-4006524D02*
X15051326Y-4001793D01*
X15193150Y-3089175D02*
X15188610Y-3091139D01*
X17051178Y-6123044D02*
X17055100Y-6126059D01*
X13814843Y-3071651D02*
X13815492Y-3069597D01*
X15193150Y-2907624D02*
X15197588Y-2909810D01*
X15051230Y-5166327D02*
X15051475Y-5161386D01*
X14514108Y-6112015D02*
X14518696Y-6110164D01*
X17034150Y-3942624D02*
X17038588Y-3944810D01*
X16313845Y-3045896D02*
X16317544Y-3048099D01*
X16957096Y-6297436D02*
X16952508Y-6295585D01*
X14567246Y-5267084D02*
X14562363Y-5267876D01*
X12711563Y-5268792D02*
X12706620Y-5268609D01*
X12731246Y-2900116D02*
X12736084Y-2901148D01*
X12701691Y-3097781D02*
X12696790Y-3097110D01*
X14557447Y-3098025D02*
X14552510Y-3098331D01*
X13852800Y-5538800D02*
X13852800Y-5308800D01*
X13813862Y-3075843D02*
X13814843Y-3071651D01*
X16902953Y-5222675D02*
X16900392Y-5218443D01*
X15188610Y-5076061D02*
X15193150Y-5078025D01*
X17089156Y-4008914D02*
X17090248Y-4013739D01*
X12808426Y-3027650D02*
X12806863Y-3032344D01*
X17005763Y-4132476D02*
X17000847Y-4133025D01*
X15816200Y-3047798D02*
X15818021Y-3046650D01*
X17042912Y-4119587D02*
X17038588Y-4121990D01*
X15228157Y-3062257D02*
X15224904Y-3065984D01*
X16252262Y-3075843D02*
X16253243Y-3071651D01*
X14562363Y-5069724D02*
X14567246Y-5070516D01*
X12696691Y-6303181D02*
X12691790Y-6302510D01*
X14454564Y-4045737D02*
X14454075Y-4040814D01*
X14644426Y-3027650D02*
X14642863Y-3032344D01*
X12644309Y-5095937D02*
X12647996Y-5092639D01*
X17029610Y-4126139D02*
X17024978Y-4127875D01*
X14537790Y-6105090D02*
X14542691Y-6104419D01*
X13780800Y-7240800D02*
X13780800Y-7040800D01*
X15154847Y-6104174D02*
X15159763Y-6104724D01*
X16887964Y-2986063D02*
X16888695Y-2981170D01*
X14625757Y-5104943D02*
X14628820Y-5108827D01*
X14480309Y-5095937D02*
X14483996Y-5092639D01*
X16291200Y-3138400D02*
X16264010Y-3113400D01*
X15046964Y-4021063D02*
X15047695Y-4016170D01*
X15879095Y-5237679D02*
X15880495Y-5241750D01*
X15210178Y-3079156D02*
X15206113Y-3081974D01*
X14615467Y-2923865D02*
X14619072Y-2927253D01*
X13443744Y-3424237D02*
X13443411Y-3428530D01*
X17080209Y-3985920D02*
X17082450Y-3990330D01*
X14485309Y-4106263D02*
X14481790Y-4102787D01*
X14577084Y-4130651D02*
X14572246Y-4131684D01*
X16291200Y-5538800D02*
X16291200Y-5308800D01*
X14612778Y-4114156D02*
X14608713Y-4116974D01*
X16948017Y-6114090D02*
X16952508Y-6112015D01*
X12745210Y-3940661D02*
X12749750Y-3942624D01*
X16256450Y-5613529D02*
X16254644Y-5609621D01*
X12766778Y-4114156D02*
X12762713Y-4116974D01*
X16251702Y-5256968D02*
X16251596Y-5254817D01*
X15240263Y-3999456D02*
X15241826Y-4004150D01*
X13387415Y-3463183D02*
X13383424Y-3461566D01*
X15229088Y-6259742D02*
X15226220Y-6263773D01*
X16251702Y-3420232D02*
X16252241Y-3415961D01*
X15058005Y-5132540D02*
X15059913Y-5127976D01*
X15049879Y-6230676D02*
X15048668Y-6225880D01*
X16253243Y-3435149D02*
X16252262Y-3430957D01*
X14572246Y-6105516D02*
X14577084Y-6106548D01*
X13820243Y-3059966D02*
X13822800Y-3056502D01*
X12758512Y-6117613D02*
X12762713Y-6120226D01*
X17089156Y-4057885D02*
X17087826Y-4062650D01*
X16910721Y-3975425D02*
X16913687Y-3971466D01*
X17087078Y-2993455D02*
X17087200Y-2998400D01*
X15154847Y-3933774D02*
X15159763Y-3934324D01*
X12731246Y-5267084D02*
X12726363Y-5267876D01*
X17082826Y-5198050D02*
X17081263Y-5202744D01*
X14472321Y-6261775D02*
X14469553Y-6257675D01*
X17087200Y-2998400D02*
X17087078Y-3003345D01*
X14451268Y-3020480D02*
X14450295Y-3015629D01*
X16927396Y-4109561D02*
X16923709Y-4106263D01*
X14485309Y-6276663D02*
X14481790Y-6273187D01*
X15130190Y-6302510D02*
X15125328Y-6301597D01*
X14542691Y-4132781D02*
X14537790Y-4132110D01*
X14607778Y-5088044D02*
X14611700Y-5091059D01*
X12786504Y-2930816D02*
X12789757Y-2934543D01*
X12614605Y-6167540D02*
X12616513Y-6162976D01*
X13817047Y-3101089D02*
X13815453Y-3097089D01*
X12706620Y-5068991D02*
X12711563Y-5068808D01*
X12798353Y-5220574D02*
X12795688Y-5224742D01*
X15245100Y-4048188D02*
X15244248Y-4053061D01*
X16985963Y-2898408D02*
X16990910Y-2898469D01*
X14576865Y-3094381D02*
X14572084Y-3095651D01*
X15070846Y-3967659D02*
X15074190Y-3964013D01*
X13869526Y-3043321D02*
X13873516Y-3044938D01*
X12654971Y-6118893D02*
X12659235Y-6116385D01*
X13434220Y-3396294D02*
X13435537Y-3397998D01*
X13815453Y-5580111D02*
X13817047Y-5576111D01*
X12632446Y-6138059D02*
X12635790Y-6134413D01*
X14604512Y-3947213D02*
X14608713Y-3949826D01*
X15862964Y-5218003D02*
X15866442Y-5220540D01*
X12691928Y-5266598D02*
X12687117Y-5265446D01*
X15851250Y-3042269D02*
X15855329Y-3043647D01*
X17090248Y-6184139D02*
X17091101Y-6189012D01*
X16255497Y-3065602D02*
X16257499Y-3061791D01*
X16252241Y-3415961D02*
X16253210Y-3411766D01*
X14478446Y-6269541D02*
X14475287Y-6265734D01*
X16253210Y-3095034D02*
X16252241Y-3090839D01*
X16293113Y-3465817D02*
X16290962Y-3465717D01*
X15144963Y-6103808D02*
X15149910Y-6103869D01*
X15164763Y-5267876D02*
X15159847Y-5268425D01*
X15174265Y-6299781D02*
X15169484Y-6301051D01*
X15880534Y-3411466D02*
X15881503Y-3415661D01*
X15052695Y-5151571D02*
X15053668Y-5146720D01*
X14630757Y-3969543D02*
X14633820Y-3973427D01*
X15832058Y-3041374D02*
X15834185Y-3041039D01*
X14557510Y-6103869D02*
X14562447Y-6104174D01*
X14547620Y-3933591D02*
X14552563Y-3933408D01*
X12812800Y-5168800D02*
X12812678Y-5173745D01*
X14649426Y-6174550D02*
X14650756Y-6179314D01*
X15192588Y-4121990D02*
X15188150Y-4124175D01*
X14653678Y-6208745D02*
X14653311Y-6213679D01*
X14500235Y-5081385D02*
X14504617Y-5079090D01*
X15174484Y-2901148D02*
X15179265Y-2902419D01*
X14634353Y-3050174D02*
X14631688Y-3054342D01*
X15106508Y-4125185D02*
X15102017Y-4123110D01*
X12800069Y-6242354D02*
X12798050Y-6246870D01*
X14481790Y-3964013D02*
X14485309Y-3960537D01*
X13441447Y-5239697D02*
X13442639Y-5243834D01*
X14627504Y-4100984D02*
X14624072Y-4104547D01*
X14599512Y-2912213D02*
X14603713Y-2914826D01*
X15115769Y-6299057D02*
X15111096Y-6297436D01*
X15098371Y-3083307D02*
X15094237Y-3080590D01*
X17084469Y-4071954D02*
X17084469Y-4071954D01*
X14509617Y-3943690D02*
X14514108Y-3941615D01*
X16922396Y-5244961D02*
X16918709Y-5241663D01*
X13443411Y-3428530D02*
X13442644Y-3432767D01*
X15882140Y-5252362D02*
X15882143Y-5254515D01*
X12775700Y-2920659D02*
X12779467Y-2923865D01*
X16966328Y-5071002D02*
X16971190Y-5070090D01*
X15174484Y-5071549D02*
X15179265Y-5072819D01*
X13814810Y-5265434D02*
X13813841Y-5261239D01*
X14453830Y-4035873D02*
X14453830Y-4030926D01*
X12696691Y-4132781D02*
X12691790Y-4132110D01*
X14450295Y-3015629D02*
X14449564Y-3010737D01*
X13814272Y-3413851D02*
X13815453Y-3409710D01*
X16257438Y-3401894D02*
X16258577Y-3400066D01*
X15882143Y-3084115D02*
X15881822Y-3088408D01*
X15229088Y-4089342D02*
X15226220Y-4093373D01*
X14595188Y-5080210D02*
X14599512Y-5082613D01*
X16264010Y-3393400D02*
X16291200Y-3368400D01*
X15244248Y-4013739D02*
X15245100Y-4018612D01*
X16894005Y-5132540D02*
X16895913Y-5127976D01*
X14509617Y-6114090D02*
X14514108Y-6112015D01*
X15064721Y-4091375D02*
X15061953Y-4087275D01*
X16313845Y-5216296D02*
X16317544Y-5218499D01*
X15094237Y-5250990D02*
X15090242Y-5248073D01*
X12789757Y-5232657D02*
X12786504Y-5236384D01*
X16307926Y-3043321D02*
X16311916Y-3044938D01*
X13435461Y-5228302D02*
X13437839Y-5231891D01*
X15154847Y-4133025D02*
X15149910Y-4133331D01*
X13873516Y-5215338D02*
X13875445Y-5216296D01*
X15246078Y-4028455D02*
X15246200Y-4033400D01*
X15838475Y-3465511D02*
X15834183Y-3465166D01*
X13820177Y-3106734D02*
X13817994Y-3103023D01*
X13400076Y-5211094D02*
X13404380Y-5211185D01*
X12750210Y-5076061D02*
X12754750Y-5078025D01*
X12721447Y-3098025D02*
X12716510Y-3098331D01*
X14509108Y-2906615D02*
X14513696Y-2904764D01*
X15079190Y-5238187D02*
X15075846Y-5234541D01*
X16258577Y-3106734D02*
X16257438Y-3104906D01*
X12673108Y-2906615D02*
X12677696Y-2904764D01*
X15107017Y-3088110D02*
X15102635Y-3085815D01*
X14652700Y-6218588D02*
X14651848Y-6223461D01*
X14633820Y-6263773D02*
X14630757Y-6267657D01*
X15047695Y-6221029D02*
X15046964Y-6216137D01*
X15239209Y-5216280D02*
X15236753Y-5220574D01*
X17067220Y-5228773D02*
X17064157Y-5232657D01*
X15046230Y-6206273D02*
X15046230Y-6201326D01*
X15919200Y-7040800D02*
X15919200Y-7240800D01*
X14472321Y-4091375D02*
X14469553Y-4087275D01*
X14537790Y-3934690D02*
X14542691Y-3934019D01*
X12646842Y-4112672D02*
X12642996Y-4109561D01*
X15869734Y-3393099D02*
X15872620Y-3396294D01*
X15075846Y-5234541D02*
X15072687Y-5230734D01*
X16219200Y-7240800D02*
X16219200Y-7040800D01*
X16976091Y-2899019D02*
X16981020Y-2898591D01*
X15048668Y-6181720D02*
X15049879Y-6176924D01*
X17034150Y-6113024D02*
X17038588Y-6115210D01*
X16918709Y-5095937D02*
X16922396Y-5092639D01*
X14450295Y-2981170D02*
X14451268Y-2976320D01*
X14475287Y-3971466D02*
X14478446Y-3967659D01*
X16297417Y-3041111D02*
X16299558Y-3041338D01*
X14495971Y-3083307D02*
X14491837Y-3080590D01*
X16301685Y-5212074D02*
X16305874Y-5213066D01*
X12650837Y-3951210D02*
X12654971Y-3948493D01*
X14634353Y-5117026D02*
X14636809Y-5121320D01*
X16887964Y-5181137D02*
X16887475Y-5176214D01*
X12786504Y-5236384D02*
X12783072Y-5239947D01*
X12812311Y-5158921D02*
X12812678Y-5163855D01*
X16299558Y-3041338D02*
X16303792Y-3042117D01*
X15228157Y-2934543D02*
X15231220Y-2938427D01*
X13813302Y-5590632D02*
X13813517Y-5588490D01*
X16902953Y-5114925D02*
X16905721Y-5110825D01*
X17060905Y-5101216D02*
X17064157Y-5104943D01*
X12613075Y-2990986D02*
X12613564Y-2986063D01*
X15066953Y-5114925D02*
X15069721Y-5110825D01*
X15061953Y-3979525D02*
X15064721Y-3975425D01*
X14611700Y-5246541D02*
X14607778Y-5249556D01*
X15111508Y-5077015D02*
X15116096Y-5075164D01*
X13404380Y-5211185D02*
X13408653Y-5211712D01*
X16920190Y-3964013D02*
X16923709Y-3960537D01*
X16926242Y-5248073D02*
X16922396Y-5244961D01*
X16913687Y-6141866D02*
X16916846Y-6138059D01*
X15919200Y-2500000D02*
X15919200Y-2700000D01*
X16892231Y-4030926D02*
X16892475Y-4025986D01*
X12795688Y-5112858D02*
X12798353Y-5117026D01*
X16957096Y-3939764D02*
X16961769Y-3938143D01*
X16985963Y-3098392D02*
X16981020Y-3098209D01*
X13813862Y-3430957D02*
X13813311Y-3426687D01*
X12711510Y-3933469D02*
X12716447Y-3933774D01*
X12731246Y-3096684D02*
X12726363Y-3097476D01*
X16270776Y-5629299D02*
X16269005Y-5628074D01*
X16261124Y-5280605D02*
X16258577Y-5277134D01*
X15201113Y-3949826D02*
X15205178Y-3952644D01*
X14631688Y-5224742D02*
X14628820Y-5228773D01*
X14636688Y-6147858D02*
X14639353Y-6152025D01*
X16905392Y-6154157D02*
X16907953Y-6149925D01*
X15164646Y-6302084D02*
X15159763Y-6302876D01*
X16976190Y-3934690D02*
X16981091Y-3934019D01*
X14457513Y-3039224D02*
X14455605Y-3034660D01*
X17065905Y-3965816D02*
X17069157Y-3969543D01*
X12642996Y-6127639D02*
X12646842Y-6124527D01*
X16255447Y-5576111D02*
X16257438Y-5572294D01*
X17010646Y-6302084D02*
X17005763Y-6302876D01*
X17020265Y-4129381D02*
X17015484Y-4130651D01*
X12798050Y-4076470D02*
X12795809Y-4080880D01*
X16253210Y-5582166D02*
X16254599Y-5578091D01*
X17065905Y-6271384D02*
X17062472Y-6274947D01*
X15120517Y-4130046D02*
X15115769Y-4128657D01*
X12774467Y-4107935D02*
X12770700Y-4111140D01*
X16995910Y-6303731D02*
X16990963Y-6303792D01*
X14485309Y-3960537D02*
X14488996Y-3957239D01*
X16966517Y-4130046D02*
X16961769Y-4128657D01*
X14611700Y-5091059D02*
X14615467Y-5094265D01*
X13932800Y-5578800D02*
X13879144Y-5629101D01*
X12682369Y-5264057D02*
X12677696Y-5262436D01*
X17029610Y-3940661D02*
X17034150Y-3942624D01*
X16307926Y-3463479D02*
X16305875Y-3464134D01*
X15149910Y-4133331D02*
X15144963Y-4133392D01*
X16899005Y-3997140D02*
X16900913Y-3992576D01*
X12800809Y-5121320D02*
X12803050Y-5125730D01*
X15149963Y-3098392D02*
X15145020Y-3098209D01*
X12655837Y-5250990D02*
X12651842Y-5248073D01*
X17072754Y-5220574D02*
X17070088Y-5224742D01*
X14500235Y-5256215D02*
X14495971Y-5253707D01*
X15169646Y-2900116D02*
X15174484Y-2901148D01*
X16261200Y-3450298D02*
X16258643Y-3446834D01*
X17070088Y-3054342D02*
X17067220Y-3058373D01*
X14650756Y-4057885D02*
X14649426Y-4062650D01*
X16253892Y-5607603D02*
X16253243Y-5605549D01*
X15876302Y-3104603D02*
X15873934Y-3108198D01*
X15219904Y-6136216D02*
X15223157Y-6139943D01*
X15192588Y-3944810D02*
X15196912Y-3947213D01*
X16264095Y-5623885D02*
X16261200Y-5620698D01*
X12731084Y-6106548D02*
X12735865Y-6107819D01*
X12668108Y-4125185D02*
X12663617Y-4123110D01*
X15223157Y-4097257D02*
X15219904Y-4100984D01*
X16939371Y-4118307D02*
X16935237Y-4115590D01*
X17086263Y-4067344D02*
X17084469Y-4071954D01*
X16938635Y-5081385D02*
X16943017Y-5079090D01*
X14537691Y-5268181D02*
X14532790Y-5267510D01*
X12735865Y-3937419D02*
X12740578Y-3938924D01*
X15047695Y-6186570D02*
X15048668Y-6181720D01*
X12812678Y-5173745D02*
X12812311Y-5178679D01*
X14612778Y-3952644D02*
X14616700Y-3955659D01*
X16278412Y-3043945D02*
X16282491Y-3042567D01*
X14600188Y-6292390D02*
X14595750Y-6294575D01*
X16892231Y-4035873D02*
X16892231Y-4030926D01*
X15226220Y-6263773D02*
X15223157Y-6267657D01*
X16931242Y-6283072D02*
X16927396Y-6279961D01*
X13349144Y-3433099D02*
X13324144Y-3408099D01*
X13822724Y-3396595D02*
X13825610Y-3393400D01*
X15053668Y-3020480D02*
X15052695Y-3015629D01*
X16311916Y-5215338D02*
X16313845Y-5216296D01*
X15066953Y-3052275D02*
X15064392Y-3048042D01*
X14523117Y-2901754D02*
X14527928Y-2900602D01*
X12750210Y-3091139D02*
X12745578Y-3092875D01*
X14646069Y-6242354D02*
X14644050Y-6246870D01*
X15873934Y-3108198D02*
X15872617Y-3109902D01*
X12647996Y-2922239D02*
X12651842Y-2919127D01*
X16898043Y-3043689D02*
X16895913Y-3039224D01*
X15082709Y-5241663D02*
X15079190Y-5238187D01*
X16918709Y-2925537D02*
X16922396Y-2922239D01*
X14464643Y-4078689D02*
X14462513Y-4074224D01*
X14460605Y-4069660D02*
X14458926Y-4065007D01*
X15201113Y-6287374D02*
X15196912Y-6289987D01*
X12635790Y-6273187D02*
X12632446Y-6269541D01*
X17079469Y-2959846D02*
X17081263Y-2964456D01*
X16939371Y-6288707D02*
X16935237Y-6285990D01*
X14453926Y-5200407D02*
X14452479Y-5195676D01*
X12650837Y-6121610D02*
X12654971Y-6118893D01*
X14576865Y-5264781D02*
X14572084Y-5266051D01*
X15047695Y-4016170D02*
X15048668Y-4011320D01*
X12781504Y-6271384D02*
X12778072Y-6274947D01*
X15245100Y-6218588D02*
X15244248Y-6223461D01*
X14646848Y-5188461D02*
X14645756Y-5193285D01*
X12608564Y-4045737D02*
X12608075Y-4040814D01*
X16913687Y-4095334D02*
X16910721Y-4091375D01*
X17053868Y-5094265D02*
X17057472Y-5097653D01*
X14491837Y-3080590D02*
X14487842Y-3077672D01*
X14647863Y-6169856D02*
X14649426Y-6174550D01*
X16916846Y-3967659D02*
X16920190Y-3964013D01*
X15238469Y-6165246D02*
X15240263Y-6169856D01*
X14455295Y-6186570D02*
X14456268Y-6181720D01*
X14600188Y-3944810D02*
X14604512Y-3947213D01*
X13820177Y-3400066D02*
X13822724Y-3396595D01*
X14627504Y-6271384D02*
X14624072Y-6274947D01*
X13404380Y-5635820D02*
X13400075Y-5635911D01*
X13412851Y-5634336D02*
X13408653Y-5635293D01*
X13404144Y-5308499D02*
X13404144Y-5538499D01*
X13865392Y-5635083D02*
X13861158Y-5635862D01*
X17024610Y-5261539D02*
X17019978Y-5263276D01*
X14653800Y-4033400D02*
X14653678Y-4038345D01*
X15097635Y-6116385D02*
X15102017Y-6114090D01*
X12805848Y-6223461D02*
X12804756Y-6228285D01*
X13822800Y-3056502D02*
X13825695Y-3053315D01*
X14469553Y-4087275D02*
X14466992Y-4083042D01*
X14557510Y-3933469D02*
X14562447Y-3933774D01*
X13422733Y-3046469D02*
X13426335Y-3048827D01*
X12770700Y-6126059D02*
X12774467Y-6129265D01*
X17288400Y-2500000D02*
X17288400Y-2000000D01*
X14448830Y-5171273D02*
X14448830Y-5166327D01*
X16251711Y-5250513D02*
X16251932Y-5248371D01*
X15090242Y-3077672D02*
X15086396Y-3074561D01*
X17024610Y-5076061D02*
X17029150Y-5078025D01*
X12631321Y-3056375D02*
X12628553Y-3052275D01*
X13814272Y-5584251D02*
X13815453Y-5580111D01*
X14650756Y-6228285D02*
X14649426Y-6233050D01*
X14547563Y-5268792D02*
X14542620Y-5268609D01*
X14469553Y-6149925D02*
X14472321Y-6145825D01*
X14532790Y-2899690D02*
X14537691Y-2899019D01*
X15051326Y-4065007D02*
X15049879Y-4060276D01*
X13404144Y-5538499D02*
X13431334Y-5563499D01*
X12806700Y-4018612D02*
X12807311Y-4023521D01*
X14453830Y-6201326D02*
X14454075Y-6196386D01*
X14504617Y-5079090D02*
X14509108Y-5077015D01*
X14462513Y-3992576D02*
X14464643Y-3988111D01*
X15059913Y-5209624D02*
X15058005Y-5205060D01*
X14448830Y-2995926D02*
X14449075Y-2990986D01*
X14469553Y-3979525D02*
X14472321Y-3975425D01*
X15174265Y-6107819D02*
X15178978Y-6109324D01*
X13429679Y-5221938D02*
X13432732Y-5224973D01*
X13435534Y-5278599D02*
X13434217Y-5280302D01*
X12754188Y-6115210D02*
X12758512Y-6117613D01*
X15111508Y-2906615D02*
X15116096Y-2904764D01*
X13813199Y-3082263D02*
X13813311Y-3080113D01*
X16887475Y-2990986D02*
X16887964Y-2986063D01*
X15188150Y-6113024D02*
X15192588Y-6115210D01*
X16971328Y-3935602D02*
X16976190Y-3934690D01*
X14648678Y-5173745D02*
X14648311Y-5178679D01*
X16956769Y-5264057D02*
X16952096Y-5262436D01*
X12809756Y-5144315D02*
X12810848Y-5149139D01*
X14537691Y-2899019D02*
X14542620Y-2898591D01*
X13817047Y-5271489D02*
X13816199Y-5269509D01*
X14647700Y-5183588D02*
X14646848Y-5188461D01*
X14455295Y-4050629D02*
X14454564Y-4045737D01*
X14488996Y-6279961D02*
X14485309Y-6276663D01*
X16927396Y-3957239D02*
X16931242Y-3954127D01*
X14645756Y-5193285D02*
X14644426Y-5198050D01*
X12651842Y-2919127D02*
X12655837Y-2916210D01*
X14600188Y-4121990D02*
X14595750Y-4124175D01*
X15046230Y-4035873D02*
X15046230Y-4030926D01*
X14513696Y-5075164D02*
X14518369Y-5073543D01*
X13824207Y-3451928D02*
X13821477Y-3448598D01*
X13817047Y-5576111D02*
X13819038Y-5572294D01*
X17010646Y-3935116D02*
X17015484Y-3936148D01*
X14627504Y-3965816D02*
X14630757Y-3969543D01*
X14495971Y-5083893D02*
X14500235Y-5081385D01*
X15238469Y-6242354D02*
X15236450Y-6246870D01*
X15219904Y-3965816D02*
X15223157Y-3969543D01*
X15053005Y-6167540D02*
X15054913Y-6162976D01*
X17024978Y-6109324D02*
X17029610Y-6111061D01*
X15051326Y-4001793D02*
X15053005Y-3997140D01*
X16911846Y-3064141D02*
X16908687Y-3060334D01*
X13480800Y-7040800D02*
X13480800Y-7240800D01*
X15130190Y-4132110D02*
X15125328Y-4131197D01*
X14523117Y-3095046D02*
X14518369Y-3093657D01*
X16890879Y-2971524D02*
X16892326Y-2966793D01*
X15241450Y-5125730D02*
X15243469Y-5130246D01*
X15115769Y-4128657D02*
X15111096Y-4127036D01*
X15206113Y-5252374D02*
X15201912Y-5254987D01*
X16981020Y-3098209D02*
X16976091Y-3097781D01*
X15816196Y-5628805D02*
X15787544Y-5603499D01*
X15827867Y-5634237D02*
X15825815Y-5633583D01*
X16943635Y-6291215D02*
X16939371Y-6288707D01*
X13813302Y-3420232D02*
X13813517Y-3418090D01*
X13820243Y-5230366D02*
X13822800Y-5226902D01*
X17081263Y-5202744D02*
X17079469Y-5207354D01*
X17288400Y-4870400D02*
X17288400Y-2700000D01*
X17077450Y-5211870D02*
X17075209Y-5216280D01*
X13442134Y-3411466D02*
X13443103Y-3415661D01*
X13848289Y-5212010D02*
X13852562Y-5211483D01*
X16923709Y-6276663D02*
X16920190Y-6273187D01*
X15878293Y-3100786D02*
X15876302Y-3104603D01*
X16894668Y-6181720D02*
X16895879Y-6176924D01*
X17058868Y-6278335D02*
X17055100Y-6281540D01*
X17091711Y-6193921D02*
X17092078Y-6198855D01*
X16961517Y-5265446D02*
X16956769Y-5264057D01*
X15178978Y-6109324D02*
X15183610Y-6111061D01*
X13827260Y-5625364D02*
X13824207Y-5622328D01*
X17077754Y-4085174D02*
X17075088Y-4089342D01*
X16985963Y-5268792D02*
X16981020Y-5268609D01*
X15201113Y-4116974D02*
X15196912Y-4119587D01*
X14572084Y-2901148D02*
X14576865Y-2902419D01*
X14454075Y-4040814D02*
X14453830Y-4035873D01*
X17050100Y-2920659D02*
X17053868Y-2923865D01*
X12793353Y-3981625D02*
X12795809Y-3985920D01*
X12774467Y-3958865D02*
X12778072Y-3962253D01*
X15094237Y-3080590D02*
X15090242Y-3077672D01*
X16952096Y-5075164D02*
X16956769Y-5073543D01*
X15064721Y-6145825D02*
X15067687Y-6141866D01*
X12726363Y-5267876D02*
X12721447Y-5268425D01*
X12740865Y-5264781D02*
X12736084Y-5266051D01*
X12626321Y-3975425D02*
X12629287Y-3971466D01*
X14562447Y-6104174D02*
X14567363Y-6104724D01*
X15079190Y-2929013D02*
X15082709Y-2925537D01*
X15072687Y-5106866D02*
X15075846Y-5103059D01*
X16961769Y-6108543D02*
X16966517Y-6107154D01*
X15135091Y-4132781D02*
X15130190Y-4132110D01*
X16981091Y-3934019D02*
X16986020Y-3933591D01*
X15859247Y-3045431D02*
X15862964Y-3047602D01*
X12615268Y-2976320D02*
X12616479Y-2971524D01*
X13824207Y-5622328D02*
X13822800Y-5620698D01*
X17092078Y-4028455D02*
X17092200Y-4033400D01*
X12607830Y-6206273D02*
X12607830Y-6201326D01*
X14651848Y-6223461D02*
X14650756Y-6228285D01*
X12766778Y-3952644D02*
X12770700Y-3955659D01*
X15210178Y-5088044D02*
X15214100Y-5091059D01*
X16264010Y-5563800D02*
X16291200Y-5538800D01*
X15159763Y-4132476D02*
X15154847Y-4133025D01*
X13400075Y-5635911D02*
X13395783Y-5635566D01*
X15246826Y-2969150D02*
X15248156Y-2973914D01*
X15881503Y-3415661D02*
X15881503Y-3415661D01*
X12615268Y-5146720D02*
X12616479Y-5141924D01*
X12778072Y-6132653D02*
X12781504Y-6136216D01*
X17086101Y-2983612D02*
X17086711Y-2988521D01*
X15251078Y-5163855D02*
X15251200Y-5168800D01*
X12740578Y-3938924D02*
X12745210Y-3940661D01*
X14462513Y-6244624D02*
X14460605Y-6240060D01*
X14457513Y-5209624D02*
X14455605Y-5205060D01*
X16920190Y-4102787D02*
X16916846Y-4099141D01*
X13443406Y-5248070D02*
X13443740Y-5252362D01*
X16887231Y-2995926D02*
X16887475Y-2990986D01*
X16903043Y-3988111D02*
X16905392Y-3983757D01*
X12795688Y-2942458D02*
X12798353Y-2946625D01*
X13324144Y-3408099D02*
X13324144Y-3098099D01*
X15140020Y-4133209D02*
X15135091Y-4132781D01*
X14615467Y-5243335D02*
X14611700Y-5246541D01*
X14453926Y-5137193D02*
X14455605Y-5132540D01*
X12659971Y-5253707D02*
X12655837Y-5250990D01*
X14509108Y-5077015D02*
X14513696Y-5075164D01*
X15869644Y-5223417D02*
X15872539Y-5226603D01*
X16278412Y-3462855D02*
X16274494Y-3461071D01*
X17020265Y-6107819D02*
X17024978Y-6109324D01*
X17092078Y-4038345D02*
X17091711Y-4043279D01*
X12614295Y-5151571D02*
X12615268Y-5146720D01*
X15049879Y-4060276D02*
X15048668Y-4055480D01*
X15821824Y-3461566D02*
X15819896Y-3460608D01*
X15217867Y-5243335D02*
X15214100Y-5246541D01*
X12812800Y-2998400D02*
X12812678Y-3003345D01*
X15825815Y-3463183D02*
X15821824Y-3461566D01*
X14624072Y-6132653D02*
X14627504Y-6136216D01*
X16252699Y-5244134D02*
X16253892Y-5239997D01*
X16274494Y-3461071D02*
X16270776Y-3458899D01*
X16253892Y-3069597D02*
X16255497Y-3065602D01*
X15919200Y-7240800D02*
X13780800Y-7240800D01*
X14492842Y-4112672D02*
X14488996Y-4109561D01*
X13434217Y-3109902D02*
X13431334Y-3113099D01*
X16908687Y-5230734D02*
X16905721Y-5226775D01*
X16916846Y-4099141D02*
X16913687Y-4095334D01*
X13436767Y-5570166D02*
X13438949Y-5573877D01*
X17069157Y-6267657D02*
X17065905Y-6271384D01*
X15248156Y-3022885D02*
X15246826Y-3027650D01*
X17072754Y-3050174D02*
X17070088Y-3054342D01*
X17082826Y-5139550D02*
X17084156Y-5144315D01*
X12607830Y-4030926D02*
X12608075Y-4025986D01*
X14488996Y-4109561D02*
X14485309Y-4106263D01*
X15216472Y-3962253D02*
X15219904Y-3965816D01*
X12617926Y-5137193D02*
X12619605Y-5132540D01*
X12758512Y-6289987D02*
X12754188Y-6292390D01*
X14576865Y-2902419D02*
X14581578Y-2903924D01*
X15179265Y-5072819D02*
X15183978Y-5074324D01*
X14470287Y-5106866D02*
X14473446Y-5103059D01*
X15245100Y-6189012D02*
X15245711Y-6193921D01*
X15130328Y-3096197D02*
X15125517Y-3095046D01*
X12740578Y-6298275D02*
X12735865Y-6299781D01*
X15205178Y-4114156D02*
X15201113Y-4116974D01*
X17069157Y-4097257D02*
X17065905Y-4100984D01*
X17037912Y-2912213D02*
X17042113Y-2914826D01*
X13440740Y-5269207D02*
X13439893Y-5271186D01*
X12706620Y-3098209D02*
X12701691Y-3097781D01*
X15251200Y-2998400D02*
X15251078Y-3003345D01*
X15188150Y-4124175D02*
X15183610Y-4126139D01*
X13391551Y-5212217D02*
X13395785Y-5211439D01*
X12609295Y-4050629D02*
X12608564Y-4045737D01*
X15066953Y-2944525D02*
X15069721Y-2940425D01*
X12779467Y-3072935D02*
X12775700Y-3076140D01*
X14648678Y-2993455D02*
X14648800Y-2998400D01*
X14454564Y-6191463D02*
X14455295Y-6186570D01*
X12805848Y-6184139D02*
X12806700Y-6189012D01*
X12691928Y-2900602D02*
X12696790Y-2899690D01*
X14648311Y-5178679D02*
X14647700Y-5183588D01*
X14649426Y-4004150D02*
X14650756Y-4008914D01*
X15135091Y-3934019D02*
X15140020Y-3933591D01*
X13846178Y-5635165D02*
X13842034Y-5633996D01*
X12805069Y-3036954D02*
X12805069Y-3036954D01*
X15145020Y-5068991D02*
X15149963Y-5068808D01*
X15249248Y-2978739D02*
X15250100Y-2983612D01*
X16317544Y-3048099D02*
X16371200Y-3098400D01*
X16995910Y-6103869D02*
X17000847Y-6104174D01*
X13443740Y-3081962D02*
X13443743Y-3084115D01*
X14608713Y-3949826D02*
X14612778Y-3952644D01*
X16371200Y-5268800D02*
X16371200Y-5578800D01*
X13819099Y-3445009D02*
X13817097Y-3441198D01*
X14581865Y-6299781D02*
X14577084Y-6301051D01*
X15868083Y-3454666D02*
X15864738Y-3457377D01*
X12616513Y-6162976D02*
X12618643Y-6158511D01*
X13854713Y-5636217D02*
X13854713Y-5636217D01*
X15855330Y-5632958D02*
X15851251Y-5634336D01*
X16297417Y-3465689D02*
X16293113Y-3465817D01*
X12787820Y-3973427D02*
X12790688Y-3977458D01*
X12677696Y-3092036D02*
X12673108Y-3090185D01*
X16309942Y-5214479D02*
X16311916Y-5215338D01*
X17086711Y-5158921D02*
X17087078Y-5163855D01*
X12625992Y-2948757D02*
X12628553Y-2944525D01*
X15079190Y-5099413D02*
X15082709Y-5095937D01*
X13822800Y-5226902D02*
X13825695Y-5223715D01*
X16910721Y-4091375D02*
X16907953Y-4087275D01*
X16976091Y-3097781D02*
X16971190Y-3097110D01*
X12411600Y-2000000D02*
X12411600Y-2500000D01*
X15868083Y-5625066D02*
X15866445Y-5626464D01*
X17087078Y-5173745D02*
X17086711Y-5178679D01*
X14459643Y-3043689D02*
X14457513Y-3039224D01*
X15179265Y-5264781D02*
X15174484Y-5266051D01*
X12706563Y-4133392D02*
X12701620Y-4133209D01*
X16897326Y-4001793D02*
X16899005Y-3997140D01*
X15048668Y-4011320D02*
X15049879Y-4006524D01*
X15188610Y-2905661D02*
X15193150Y-2907624D01*
X12612926Y-6172193D02*
X12614605Y-6167540D01*
X17090248Y-4053061D02*
X17089156Y-4057885D01*
X13442639Y-3073434D02*
X13443406Y-3077670D01*
X15135190Y-5070090D02*
X15140091Y-5069419D01*
X14639050Y-3041470D02*
X14636809Y-3045880D01*
X15851251Y-5634336D02*
X15847053Y-5635293D01*
X14572084Y-5071549D02*
X14576865Y-5072819D01*
X14648800Y-2998400D02*
X14648678Y-3003345D01*
X14624072Y-4104547D02*
X14620467Y-4107935D01*
X13877322Y-5630249D02*
X13873516Y-5632262D01*
X15236450Y-4076470D02*
X15234209Y-4080880D01*
X16258577Y-5570466D02*
X16261124Y-5566995D01*
X12711563Y-3098392D02*
X12706620Y-3098209D01*
X16893695Y-6221029D02*
X16892964Y-6216137D01*
X16971328Y-6106002D02*
X16976190Y-6105090D01*
X16890879Y-5195676D02*
X16889668Y-5190880D01*
X15111096Y-6110164D02*
X15115769Y-6108543D01*
X14491837Y-2916210D02*
X14495971Y-2913493D01*
X17058868Y-6129265D02*
X17062472Y-6132653D01*
X15243469Y-5130246D02*
X15245263Y-5134856D01*
X12716510Y-2898469D02*
X12721447Y-2898774D01*
X14608713Y-4116974D02*
X14604512Y-4119587D01*
X15070846Y-6138059D02*
X15074190Y-6134413D01*
X17005646Y-5070516D02*
X17010484Y-5071549D01*
X14648311Y-3008279D02*
X14647700Y-3013188D01*
X17075209Y-5121320D02*
X17077450Y-5125730D01*
X15882148Y-5592484D02*
X15882144Y-5594637D01*
X17072754Y-5117026D02*
X17075209Y-5121320D01*
X15248156Y-5144315D02*
X15249248Y-5149139D01*
X16254644Y-5609621D02*
X16253892Y-5607603D01*
X13828898Y-5220838D02*
X13832376Y-5218301D01*
X16895913Y-5209624D02*
X16894005Y-5205060D01*
X12801863Y-6169856D02*
X12803426Y-6174550D01*
X15196912Y-3947213D02*
X15201113Y-3949826D01*
X12618643Y-6249089D02*
X12616513Y-6244624D01*
X15179265Y-3094381D02*
X15174484Y-3095651D01*
X16895879Y-4060276D02*
X16894668Y-4055480D01*
X12628553Y-5114925D02*
X12631321Y-5110825D01*
X16894668Y-4011320D02*
X16895879Y-4006524D01*
X15051230Y-2995926D02*
X15051475Y-2990986D01*
X15069721Y-5226775D02*
X15066953Y-5222675D01*
X13420847Y-5215831D02*
X13424564Y-5218003D01*
X15046475Y-4040814D02*
X15046230Y-4035873D01*
X14590750Y-5078025D02*
X14595188Y-5080210D01*
X14641809Y-3985920D02*
X14644050Y-3990330D01*
X15046230Y-4030926D02*
X15046475Y-4025986D01*
X13431248Y-5623587D02*
X13428045Y-5626464D01*
X13431334Y-5283499D02*
X13404144Y-5308499D01*
X12609295Y-6221029D02*
X12608564Y-6216137D01*
X12736084Y-5071549D02*
X12740865Y-5072819D01*
X14547620Y-4133209D02*
X14542691Y-4132781D01*
X15878293Y-5271186D02*
X15876302Y-5275003D01*
X16251702Y-5590632D02*
X16252241Y-5586361D01*
X13827260Y-3051836D02*
X13830605Y-3049125D01*
X14496837Y-4115590D02*
X14492842Y-4112672D01*
X14595188Y-2909810D02*
X14599512Y-2912213D01*
X16952508Y-6112015D02*
X16957096Y-6110164D01*
X16995847Y-3098025D02*
X16990910Y-3098331D01*
X13436700Y-5616936D02*
X13434143Y-5620400D01*
X15842544Y-3138099D02*
X15842544Y-3368099D01*
X12623643Y-3043689D02*
X12621513Y-3039224D01*
X14627504Y-6136216D02*
X14630757Y-6139943D01*
X13379621Y-5217050D02*
X13383427Y-5215037D01*
X12618643Y-4078689D02*
X12616513Y-4074224D01*
X15048668Y-6225880D02*
X15047695Y-6221029D01*
X16888695Y-2981170D02*
X16889668Y-2976320D01*
X16290962Y-3465717D02*
X16288819Y-3465508D01*
X15051964Y-3010737D02*
X15051475Y-3005814D01*
X13852800Y-3138400D02*
X13825610Y-3113400D01*
X16952508Y-4125185D02*
X16948017Y-4123110D01*
X17060905Y-2930816D02*
X17064157Y-2934543D01*
X15178978Y-3938924D02*
X15183610Y-3940661D01*
X15085242Y-6283072D02*
X15081396Y-6279961D01*
X15879095Y-3067279D02*
X15880495Y-3071350D01*
X13443641Y-5590333D02*
X13443744Y-5594637D01*
X14455605Y-2962140D02*
X14457513Y-2957576D01*
X17029150Y-5078025D02*
X17033588Y-5080210D01*
X14492842Y-6124527D02*
X14496837Y-6121610D01*
X14639050Y-5211870D02*
X14636809Y-5216280D01*
X15059913Y-2957576D02*
X15062043Y-2953111D01*
X15210178Y-2917644D02*
X15214100Y-2920659D01*
X15125328Y-6301597D02*
X15120517Y-6300446D01*
X16931242Y-6124527D02*
X16935237Y-6121610D01*
X14595188Y-3086990D02*
X14590750Y-3089175D01*
X16219200Y-2500000D02*
X17288400Y-2500000D01*
X12763512Y-5082613D02*
X12767713Y-5085226D01*
X12784757Y-4097257D02*
X12781504Y-4100984D01*
X13813311Y-5250513D02*
X13813862Y-5246243D01*
X12736084Y-5266051D02*
X12731246Y-5267084D01*
X15847053Y-5211712D02*
X15851250Y-5212669D01*
X13349144Y-5603499D02*
X13324144Y-5578499D01*
X13861158Y-5635862D02*
X13859017Y-5636089D01*
X15851251Y-3463936D02*
X15847053Y-3464893D01*
X16920190Y-6134413D02*
X16923709Y-6130937D01*
X16918709Y-5241663D02*
X16915190Y-5238187D01*
X17091101Y-4018612D02*
X17091711Y-4023521D01*
X14542620Y-2898591D02*
X14547563Y-2898408D01*
X17055100Y-6281540D02*
X17051178Y-6284556D01*
X13840012Y-3462855D02*
X13836094Y-3461071D01*
X16280434Y-5633996D02*
X16278412Y-5633255D01*
X15102017Y-6114090D02*
X15106508Y-6112015D01*
X15072687Y-2936466D02*
X15075846Y-2932659D01*
X15206113Y-5085226D02*
X15210178Y-5088044D01*
X17053868Y-2923865D02*
X17057472Y-2927253D01*
X12763512Y-5254987D02*
X12759188Y-5257390D01*
X15818021Y-3046650D02*
X15821827Y-3044637D01*
X17005646Y-3096684D02*
X17000763Y-3097476D01*
X15183978Y-2903924D02*
X15188610Y-2905661D01*
X14483996Y-2922239D02*
X14487842Y-2919127D01*
X16915190Y-3067787D02*
X16911846Y-3064141D01*
X13865392Y-3042117D02*
X13869526Y-3043321D01*
X12621513Y-5209624D02*
X12619605Y-5205060D01*
X12701620Y-4133209D02*
X12696691Y-4132781D01*
X15881044Y-5603167D02*
X15879851Y-5607304D01*
X15164763Y-3097476D02*
X15159847Y-3098025D01*
X15082709Y-3071263D02*
X15079190Y-3067787D01*
X15241826Y-6233050D02*
X15241826Y-6233050D01*
X14483996Y-5092639D02*
X14487842Y-5089527D01*
X15154910Y-2898469D02*
X15159847Y-2898774D01*
X14473446Y-2932659D02*
X14476790Y-2929013D01*
X13817097Y-5236002D02*
X13819099Y-5232191D01*
X13859017Y-5636089D02*
X13854713Y-5636217D01*
X13431248Y-3453187D02*
X13428045Y-3456064D01*
X12639309Y-6276663D02*
X12635790Y-6273187D01*
X17033588Y-5257390D02*
X17029150Y-5259575D01*
X14464643Y-6249089D02*
X14462513Y-6244624D01*
X15250711Y-5178679D02*
X15250100Y-5183588D01*
X16282491Y-5212967D02*
X16286689Y-5212010D01*
X14537790Y-6302510D02*
X14532928Y-6301597D01*
X15075846Y-5103059D02*
X15079190Y-5099413D01*
X14607778Y-2917644D02*
X14611700Y-2920659D01*
X15240263Y-6169856D02*
X15241826Y-6174550D01*
X12611479Y-6176924D02*
X12612926Y-6172193D01*
X15053005Y-6240060D02*
X15051326Y-6235407D01*
X12800069Y-6165246D02*
X12801863Y-6169856D01*
X12771778Y-2917644D02*
X12775700Y-2920659D01*
X13437839Y-5231891D02*
X13439841Y-5235702D01*
X16259877Y-5228602D02*
X16261200Y-5226902D01*
X15059913Y-3039224D02*
X15058005Y-3034660D01*
X13819099Y-5232191D02*
X13820243Y-5230366D01*
X15102635Y-5256215D02*
X15098371Y-5253707D01*
X15873865Y-3448300D02*
X15871136Y-3451630D01*
X14591210Y-6111061D02*
X14595750Y-6113024D01*
X12616513Y-3992576D02*
X12618643Y-3988111D01*
X15245711Y-4023521D02*
X15246078Y-4028455D01*
X17062472Y-6132653D02*
X17065905Y-6136216D01*
X15855329Y-5214047D02*
X15859247Y-5215831D01*
X12644309Y-3071263D02*
X12640790Y-3067787D01*
X15149963Y-5268792D02*
X15145020Y-5268609D01*
X16297417Y-5211511D02*
X16301685Y-5212074D01*
X15090242Y-5248073D02*
X15086396Y-5244961D01*
X15102635Y-3085815D02*
X15098371Y-3083307D01*
X13391549Y-5634787D02*
X13387415Y-5633583D01*
X15054913Y-3992576D02*
X15057043Y-3988111D01*
X15876305Y-3401594D02*
X15878297Y-3405411D01*
X15066953Y-5222675D02*
X15064392Y-5218443D01*
X13416930Y-3462558D02*
X13412851Y-3463936D01*
X12618643Y-3988111D02*
X12620992Y-3983757D01*
X12701620Y-6103991D02*
X12706563Y-6103808D01*
X14646848Y-3018061D02*
X14645756Y-3022885D01*
X16995847Y-5268425D02*
X16990910Y-5268731D01*
X14492842Y-6283072D02*
X14488996Y-6279961D01*
X12608564Y-6216137D02*
X12608075Y-6211214D01*
X14653678Y-4028455D02*
X14653800Y-4033400D01*
X12803426Y-6174550D02*
X12804756Y-6179314D01*
X15085242Y-6124527D02*
X15089237Y-6121610D01*
X15094237Y-5086610D02*
X15098371Y-5083893D01*
X15069721Y-5110825D02*
X15072687Y-5106866D01*
X12767713Y-3081974D02*
X12763512Y-3084587D01*
X17029610Y-6296539D02*
X17024978Y-6298275D01*
X15183610Y-6296539D02*
X15178978Y-6298275D01*
X15098371Y-2913493D02*
X15102635Y-2910985D01*
X12626321Y-6145825D02*
X12629287Y-6141866D01*
X15221472Y-5097653D02*
X15224904Y-5101216D01*
X14646069Y-3994846D02*
X14647863Y-3999456D01*
X16252262Y-5601357D02*
X16251711Y-5597087D01*
X14449564Y-5156463D02*
X14450295Y-5151571D01*
X16918709Y-3071263D02*
X16915190Y-3067787D01*
X12731084Y-3936148D02*
X12735865Y-3937419D01*
X12619605Y-3034660D02*
X12617926Y-3030007D01*
X15244248Y-6223461D02*
X15243156Y-6228285D01*
X15859249Y-5631174D02*
X15855330Y-5632958D01*
X15882140Y-3081962D02*
X15882143Y-3084115D01*
X15178978Y-6298275D02*
X15174265Y-6299781D01*
X15164646Y-3935116D02*
X15169484Y-3936148D01*
X15098371Y-5253707D02*
X15094237Y-5250990D01*
X16986020Y-4133209D02*
X16981091Y-4132781D01*
X17086101Y-5154012D02*
X17086711Y-5158921D01*
X17005763Y-6104724D02*
X17010646Y-6105516D01*
X14527928Y-5266598D02*
X14523117Y-5265446D01*
X17047113Y-3949826D02*
X17051178Y-3952644D01*
X12673108Y-5260585D02*
X12668617Y-5258510D01*
X13863285Y-3041674D02*
X13865392Y-3042117D01*
D11*
D12*
X12656400Y-3746800D02*
X12696400Y-3786800D01*
X12696400Y-3746800D02*
X12656400Y-3786800D01*
X12656400Y-5917200D02*
X12696400Y-5957200D01*
X12696400Y-5917200D02*
X12656400Y-5957200D01*
X12916400Y-3246800D02*
X12956400Y-3286800D01*
X12956400Y-3246800D02*
X12916400Y-3286800D01*
X12916400Y-5417200D02*
X12956400Y-5457200D01*
X12956400Y-5417200D02*
X12916400Y-5457200D01*
X13027800Y-3246800D02*
X13067800Y-3286800D01*
X13067800Y-3246800D02*
X13027800Y-3286800D01*
X13027800Y-5417200D02*
X13067800Y-5457200D01*
X13067800Y-5417200D02*
X13027800Y-5457200D01*
X13036400Y-3976800D02*
X13076400Y-4016800D01*
X13076400Y-3976800D02*
X13036400Y-4016800D01*
X13036400Y-6147200D02*
X13076400Y-6187200D01*
X13076400Y-6147200D02*
X13036400Y-6187200D01*
X13227260Y-3316240D02*
X13267260Y-3356240D01*
X13267260Y-3316240D02*
X13227260Y-3356240D01*
X13227260Y-5486640D02*
X13267260Y-5526640D01*
X13267260Y-5486640D02*
X13227260Y-5526640D01*
X13260280Y-3725180D02*
X13300280Y-3765180D01*
X13300280Y-3725180D02*
X13260280Y-3765180D01*
X13260280Y-5895580D02*
X13300280Y-5935580D01*
X13300280Y-5895580D02*
X13260280Y-5935580D01*
X13263680Y-3619320D02*
X13303680Y-3659320D01*
X13303680Y-3619320D02*
X13263680Y-3659320D01*
X13263680Y-5789720D02*
X13303680Y-5829720D01*
X13303680Y-5789720D02*
X13263680Y-5829720D01*
X13337569Y-3919255D02*
X13377569Y-3959255D01*
X13377569Y-3919255D02*
X13337569Y-3959255D01*
X13337569Y-6089655D02*
X13377569Y-6129655D01*
X13377569Y-6089655D02*
X13337569Y-6129655D01*
X13353265Y-4017965D02*
X13393265Y-4057965D01*
X13393265Y-4017965D02*
X13353265Y-4057965D01*
X13353265Y-6188365D02*
X13393265Y-6228365D01*
X13393265Y-6188365D02*
X13353265Y-6228365D01*
X13379600Y-3774305D02*
X13419600Y-3814305D01*
X13419600Y-3774305D02*
X13379600Y-3814305D01*
X13379600Y-5944705D02*
X13419600Y-5984705D01*
X13419600Y-5944705D02*
X13379600Y-5984705D01*
X13548977Y-3750583D02*
X13588977Y-3790583D01*
X13588977Y-3750583D02*
X13548977Y-3790583D01*
X13548977Y-5920983D02*
X13588977Y-5960983D01*
X13588977Y-5920983D02*
X13548977Y-5960983D01*
X13653980Y-3748040D02*
X13693980Y-3788040D01*
X13693980Y-3748040D02*
X13653980Y-3788040D01*
X13653980Y-5918440D02*
X13693980Y-5958440D01*
X13693980Y-5918440D02*
X13653980Y-5958440D01*
X13864800Y-4537980D02*
X13904800Y-4577980D01*
X13904800Y-4537980D02*
X13864800Y-4577980D01*
X13864800Y-6708380D02*
X13904800Y-6748380D01*
X13904800Y-6708380D02*
X13864800Y-6748380D01*
X13885120Y-3981720D02*
X13925120Y-4021720D01*
X13925120Y-3981720D02*
X13885120Y-4021720D01*
X13885120Y-6152120D02*
X13925120Y-6192120D01*
X13925120Y-6152120D02*
X13885120Y-6192120D01*
X13891257Y-3816772D02*
X13931257Y-3856772D01*
X13931257Y-3816772D02*
X13891257Y-3856772D01*
X13891257Y-5987172D02*
X13931257Y-6027172D01*
X13931257Y-5987172D02*
X13891257Y-6027172D01*
X13957570Y-3895360D02*
X13997570Y-3935360D01*
X13997570Y-3895360D02*
X13957570Y-3935360D01*
X13957570Y-6065760D02*
X13997570Y-6105760D01*
X13997570Y-6065760D02*
X13957570Y-6105760D01*
X13958780Y-3534680D02*
X13998780Y-3574680D01*
X13998780Y-3534680D02*
X13958780Y-3574680D01*
X13958780Y-5705080D02*
X13998780Y-5745080D01*
X13998780Y-5705080D02*
X13958780Y-5745080D01*
X14118370Y-4182380D02*
X14158370Y-4222380D01*
X14158370Y-4182380D02*
X14118370Y-4222380D01*
X14118370Y-6352780D02*
X14158370Y-6392780D01*
X14158370Y-6352780D02*
X14118370Y-6392780D01*
X14309300Y-4136660D02*
X14349300Y-4176660D01*
X14349300Y-4136660D02*
X14309300Y-4176660D01*
X14309300Y-6307060D02*
X14349300Y-6347060D01*
X14349300Y-6307060D02*
X14309300Y-6347060D01*
X14346400Y-3296800D02*
X14386400Y-3336800D01*
X14386400Y-3296800D02*
X14346400Y-3336800D01*
X14346400Y-3726800D02*
X14386400Y-3766800D01*
X14386400Y-3726800D02*
X14346400Y-3766800D01*
X14346400Y-5467200D02*
X14386400Y-5507200D01*
X14386400Y-5467200D02*
X14346400Y-5507200D01*
X14346400Y-5897200D02*
X14386400Y-5937200D01*
X14386400Y-5897200D02*
X14346400Y-5937200D01*
X15094800Y-3746800D02*
X15134800Y-3786800D01*
X15134800Y-3746800D02*
X15094800Y-3786800D01*
X15094800Y-5917200D02*
X15134800Y-5957200D01*
X15134800Y-5917200D02*
X15094800Y-5957200D01*
X15354800Y-3246800D02*
X15394800Y-3286800D01*
X15394800Y-3246800D02*
X15354800Y-3286800D01*
X15354800Y-5417200D02*
X15394800Y-5457200D01*
X15394800Y-5417200D02*
X15354800Y-5457200D01*
X15466200Y-3246800D02*
X15506200Y-3286800D01*
X15506200Y-3246800D02*
X15466200Y-3286800D01*
X15466200Y-5417200D02*
X15506200Y-5457200D01*
X15506200Y-5417200D02*
X15466200Y-5457200D01*
X15474800Y-3976800D02*
X15514800Y-4016800D01*
X15514800Y-3976800D02*
X15474800Y-4016800D01*
X15474800Y-6147200D02*
X15514800Y-6187200D01*
X15514800Y-6147200D02*
X15474800Y-6187200D01*
X15665660Y-3316240D02*
X15705660Y-3356240D01*
X15705660Y-3316240D02*
X15665660Y-3356240D01*
X15665660Y-5486640D02*
X15705660Y-5526640D01*
X15705660Y-5486640D02*
X15665660Y-5526640D01*
X15698680Y-3725180D02*
X15738680Y-3765180D01*
X15738680Y-3725180D02*
X15698680Y-3765180D01*
X15698680Y-5895580D02*
X15738680Y-5935580D01*
X15738680Y-5895580D02*
X15698680Y-5935580D01*
X15702080Y-3619320D02*
X15742080Y-3659320D01*
X15742080Y-3619320D02*
X15702080Y-3659320D01*
X15702080Y-5789720D02*
X15742080Y-5829720D01*
X15742080Y-5789720D02*
X15702080Y-5829720D01*
X15775969Y-3919255D02*
X15815969Y-3959255D01*
X15815969Y-3919255D02*
X15775969Y-3959255D01*
X15775969Y-6089655D02*
X15815969Y-6129655D01*
X15815969Y-6089655D02*
X15775969Y-6129655D01*
X15791665Y-4017965D02*
X15831665Y-4057965D01*
X15831665Y-4017965D02*
X15791665Y-4057965D01*
X15791665Y-6188365D02*
X15831665Y-6228365D01*
X15831665Y-6188365D02*
X15791665Y-6228365D01*
X15818000Y-3774305D02*
X15858000Y-3814305D01*
X15858000Y-3774305D02*
X15818000Y-3814305D01*
X15818000Y-5944705D02*
X15858000Y-5984705D01*
X15858000Y-5944705D02*
X15818000Y-5984705D01*
X15987377Y-3750583D02*
X16027377Y-3790583D01*
X16027377Y-3750583D02*
X15987377Y-3790583D01*
X15987377Y-5920983D02*
X16027377Y-5960983D01*
X16027377Y-5920983D02*
X15987377Y-5960983D01*
X16092380Y-3748040D02*
X16132380Y-3788040D01*
X16132380Y-3748040D02*
X16092380Y-3788040D01*
X16092380Y-5918440D02*
X16132380Y-5958440D01*
X16132380Y-5918440D02*
X16092380Y-5958440D01*
X16303200Y-4537980D02*
X16343200Y-4577980D01*
X16343200Y-4537980D02*
X16303200Y-4577980D01*
X16303200Y-6708380D02*
X16343200Y-6748380D01*
X16343200Y-6708380D02*
X16303200Y-6748380D01*
X16323520Y-3981720D02*
X16363520Y-4021720D01*
X16363520Y-3981720D02*
X16323520Y-4021720D01*
X16323520Y-6152120D02*
X16363520Y-6192120D01*
X16363520Y-6152120D02*
X16323520Y-6192120D01*
X16329657Y-3816772D02*
X16369657Y-3856772D01*
X16369657Y-3816772D02*
X16329657Y-3856772D01*
X16329657Y-5987172D02*
X16369657Y-6027172D01*
X16369657Y-5987172D02*
X16329657Y-6027172D01*
X16395970Y-3895360D02*
X16435970Y-3935360D01*
X16435970Y-3895360D02*
X16395970Y-3935360D01*
X16395970Y-6065760D02*
X16435970Y-6105760D01*
X16435970Y-6065760D02*
X16395970Y-6105760D01*
X16397180Y-3534680D02*
X16437180Y-3574680D01*
X16437180Y-3534680D02*
X16397180Y-3574680D01*
X16397180Y-5705080D02*
X16437180Y-5745080D01*
X16437180Y-5705080D02*
X16397180Y-5745080D01*
X16556770Y-4182380D02*
X16596770Y-4222380D01*
X16596770Y-4182380D02*
X16556770Y-4222380D01*
X16556770Y-6352780D02*
X16596770Y-6392780D01*
X16596770Y-6352780D02*
X16556770Y-6392780D01*
X16747700Y-4136660D02*
X16787700Y-4176660D01*
X16787700Y-4136660D02*
X16747700Y-4176660D01*
X16747700Y-6307060D02*
X16787700Y-6347060D01*
X16787700Y-6307060D02*
X16747700Y-6347060D01*
X16784800Y-3296800D02*
X16824800Y-3336800D01*
X16824800Y-3296800D02*
X16784800Y-3336800D01*
X16784800Y-3726800D02*
X16824800Y-3766800D01*
X16824800Y-3726800D02*
X16784800Y-3766800D01*
X16784800Y-5467200D02*
X16824800Y-5507200D01*
X16824800Y-5467200D02*
X16784800Y-5507200D01*
X16784800Y-5897200D02*
X16824800Y-5937200D01*
X16824800Y-5897200D02*
X16784800Y-5937200D01*
D10*
X13045800Y-4376400D02*
G75*
G03*
X13045800Y-4376400I-50000J0D01*
G01*
X13045800Y-6546800D02*
G75*
G03*
X13045800Y-6546800I-50000J0D01*
G01*
X13299800Y-4376400D02*
G75*
G03*
X13299800Y-4376400I-50000J0D01*
G01*
X13299800Y-6546800D02*
G75*
G03*
X13299800Y-6546800I-50000J0D01*
G01*
X13553800Y-4376400D02*
G75*
G03*
X13553800Y-4376400I-50000J0D01*
G01*
X13553800Y-6546800D02*
G75*
G03*
X13553800Y-6546800I-50000J0D01*
G01*
X13807800Y-4376400D02*
G75*
G03*
X13807800Y-4376400I-50000J0D01*
G01*
X13807800Y-6546800D02*
G75*
G03*
X13807800Y-6546800I-50000J0D01*
G01*
X14061800Y-4376400D02*
G75*
G03*
X14061800Y-4376400I-50000J0D01*
G01*
X14061800Y-6546800D02*
G75*
G03*
X14061800Y-6546800I-50000J0D01*
G01*
X14315800Y-4376400D02*
G75*
G03*
X14315800Y-4376400I-50000J0D01*
G01*
X14315800Y-6546800D02*
G75*
G03*
X14315800Y-6546800I-50000J0D01*
G01*
X15484200Y-4376400D02*
G75*
G03*
X15484200Y-4376400I-50000J0D01*
G01*
X15484200Y-6546800D02*
G75*
G03*
X15484200Y-6546800I-50000J0D01*
G01*
X15738200Y-4376400D02*
G75*
G03*
X15738200Y-4376400I-50000J0D01*
G01*
X15738200Y-6546800D02*
G75*
G03*
X15738200Y-6546800I-50000J0D01*
G01*
X15992200Y-4376400D02*
G75*
G03*
X15992200Y-4376400I-50000J0D01*
G01*
X15992200Y-6546800D02*
G75*
G03*
X15992200Y-6546800I-50000J0D01*
G01*
X16246200Y-4376400D02*
G75*
G03*
X16246200Y-4376400I-50000J0D01*
G01*
X16246200Y-6546800D02*
G75*
G03*
X16246200Y-6546800I-50000J0D01*
G01*
X16500200Y-4376400D02*
G75*
G03*
X16500200Y-4376400I-50000J0D01*
G01*
X16500200Y-6546800D02*
G75*
G03*
X16500200Y-6546800I-50000J0D01*
G01*
X16754200Y-4376400D02*
G75*
G03*
X16754200Y-4376400I-50000J0D01*
G01*
X16754200Y-6546800D02*
G75*
G03*
X16754200Y-6546800I-50000J0D01*
G01*
D11*
X12654219Y-8058324D02*
X12654219Y-7858324D01*
X12654219Y-7858324D02*
X12701838Y-7858324D01*
X12701838Y-7858324D02*
X12730409Y-7867848D01*
X12730409Y-7867848D02*
X12749457Y-7886895D01*
X12749457Y-7886895D02*
X12758981Y-7905943D01*
X12758981Y-7905943D02*
X12768505Y-7944038D01*
X12768505Y-7944038D02*
X12768505Y-7972609D01*
X12768505Y-7972609D02*
X12758981Y-8010705D01*
X12758981Y-8010705D02*
X12749457Y-8029752D01*
X12749457Y-8029752D02*
X12730409Y-8048800D01*
X12730409Y-8048800D02*
X12701838Y-8058324D01*
X12701838Y-8058324D02*
X12654219Y-8058324D01*
X12854219Y-8058324D02*
X12854219Y-7924990D01*
X12854219Y-7963086D02*
X12863743Y-7944038D01*
X12863743Y-7944038D02*
X12873267Y-7934514D01*
X12873267Y-7934514D02*
X12892314Y-7924990D01*
X12892314Y-7924990D02*
X12911362Y-7924990D01*
X12978028Y-8058324D02*
X12978028Y-7924990D01*
X12978028Y-7858324D02*
X12968505Y-7867848D01*
X12968505Y-7867848D02*
X12978028Y-7877371D01*
X12978028Y-7877371D02*
X12987552Y-7867848D01*
X12987552Y-7867848D02*
X12978028Y-7858324D01*
X12978028Y-7858324D02*
X12978028Y-7877371D01*
X13101838Y-8058324D02*
X13082790Y-8048800D01*
X13082790Y-8048800D02*
X13073267Y-8029752D01*
X13073267Y-8029752D02*
X13073267Y-7858324D01*
X13206600Y-8058324D02*
X13187552Y-8048800D01*
X13187552Y-8048800D02*
X13178028Y-8029752D01*
X13178028Y-8029752D02*
X13178028Y-7858324D01*
X13435171Y-8058324D02*
X13435171Y-7858324D01*
X13435171Y-7858324D02*
X13501838Y-8001181D01*
X13501838Y-8001181D02*
X13568505Y-7858324D01*
X13568505Y-7858324D02*
X13568505Y-8058324D01*
X13749457Y-8058324D02*
X13749457Y-7953562D01*
X13749457Y-7953562D02*
X13739933Y-7934514D01*
X13739933Y-7934514D02*
X13720886Y-7924990D01*
X13720886Y-7924990D02*
X13682790Y-7924990D01*
X13682790Y-7924990D02*
X13663743Y-7934514D01*
X13749457Y-8048800D02*
X13730409Y-8058324D01*
X13730409Y-8058324D02*
X13682790Y-8058324D01*
X13682790Y-8058324D02*
X13663743Y-8048800D01*
X13663743Y-8048800D02*
X13654219Y-8029752D01*
X13654219Y-8029752D02*
X13654219Y-8010705D01*
X13654219Y-8010705D02*
X13663743Y-7991657D01*
X13663743Y-7991657D02*
X13682790Y-7982133D01*
X13682790Y-7982133D02*
X13730409Y-7982133D01*
X13730409Y-7982133D02*
X13749457Y-7972609D01*
X13844695Y-7924990D02*
X13844695Y-8124990D01*
X13844695Y-7934514D02*
X13863743Y-7924990D01*
X13863743Y-7924990D02*
X13901838Y-7924990D01*
X13901838Y-7924990D02*
X13920886Y-7934514D01*
X13920886Y-7934514D02*
X13930409Y-7944038D01*
X13930409Y-7944038D02*
X13939933Y-7963086D01*
X13939933Y-7963086D02*
X13939933Y-8020228D01*
X13939933Y-8020228D02*
X13930409Y-8039276D01*
X13930409Y-8039276D02*
X13920886Y-8048800D01*
X13920886Y-8048800D02*
X13901838Y-8058324D01*
X13901838Y-8058324D02*
X13863743Y-8058324D01*
X13863743Y-8058324D02*
X13844695Y-8048800D01*
X14025648Y-8039276D02*
X14035171Y-8048800D01*
X14035171Y-8048800D02*
X14025648Y-8058324D01*
X14025648Y-8058324D02*
X14016124Y-8048800D01*
X14016124Y-8048800D02*
X14025648Y-8039276D01*
X14025648Y-8039276D02*
X14025648Y-8058324D01*
X14025648Y-7934514D02*
X14035171Y-7944038D01*
X14035171Y-7944038D02*
X14025648Y-7953562D01*
X14025648Y-7953562D02*
X14016124Y-7944038D01*
X14016124Y-7944038D02*
X14025648Y-7934514D01*
X14025648Y-7934514D02*
X14025648Y-7953562D01*
D12*
X12366600Y-8365800D02*
X12406600Y-8405800D01*
X12406600Y-8365800D02*
X12366600Y-8405800D01*
D11*
X12692314Y-8278324D02*
X12711362Y-8278324D01*
X12711362Y-8278324D02*
X12730409Y-8287848D01*
X12730409Y-8287848D02*
X12739933Y-8297371D01*
X12739933Y-8297371D02*
X12749457Y-8316419D01*
X12749457Y-8316419D02*
X12758981Y-8354514D01*
X12758981Y-8354514D02*
X12758981Y-8402133D01*
X12758981Y-8402133D02*
X12749457Y-8440229D01*
X12749457Y-8440229D02*
X12739933Y-8459276D01*
X12739933Y-8459276D02*
X12730409Y-8468800D01*
X12730409Y-8468800D02*
X12711362Y-8478324D01*
X12711362Y-8478324D02*
X12692314Y-8478324D01*
X12692314Y-8478324D02*
X12673267Y-8468800D01*
X12673267Y-8468800D02*
X12663743Y-8459276D01*
X12663743Y-8459276D02*
X12654219Y-8440229D01*
X12654219Y-8440229D02*
X12644695Y-8402133D01*
X12644695Y-8402133D02*
X12644695Y-8354514D01*
X12644695Y-8354514D02*
X12654219Y-8316419D01*
X12654219Y-8316419D02*
X12663743Y-8297371D01*
X12663743Y-8297371D02*
X12673267Y-8287848D01*
X12673267Y-8287848D02*
X12692314Y-8278324D01*
X12844695Y-8459276D02*
X12854219Y-8468800D01*
X12854219Y-8468800D02*
X12844695Y-8478324D01*
X12844695Y-8478324D02*
X12835171Y-8468800D01*
X12835171Y-8468800D02*
X12844695Y-8459276D01*
X12844695Y-8459276D02*
X12844695Y-8478324D01*
X13025648Y-8344990D02*
X13025648Y-8478324D01*
X12978028Y-8268800D02*
X12930409Y-8411657D01*
X12930409Y-8411657D02*
X13054219Y-8411657D01*
X13168505Y-8278324D02*
X13187552Y-8278324D01*
X13187552Y-8278324D02*
X13206600Y-8287848D01*
X13206600Y-8287848D02*
X13216124Y-8297371D01*
X13216124Y-8297371D02*
X13225648Y-8316419D01*
X13225648Y-8316419D02*
X13235171Y-8354514D01*
X13235171Y-8354514D02*
X13235171Y-8402133D01*
X13235171Y-8402133D02*
X13225648Y-8440229D01*
X13225648Y-8440229D02*
X13216124Y-8459276D01*
X13216124Y-8459276D02*
X13206600Y-8468800D01*
X13206600Y-8468800D02*
X13187552Y-8478324D01*
X13187552Y-8478324D02*
X13168505Y-8478324D01*
X13168505Y-8478324D02*
X13149457Y-8468800D01*
X13149457Y-8468800D02*
X13139933Y-8459276D01*
X13139933Y-8459276D02*
X13130409Y-8440229D01*
X13130409Y-8440229D02*
X13120886Y-8402133D01*
X13120886Y-8402133D02*
X13120886Y-8354514D01*
X13120886Y-8354514D02*
X13130409Y-8316419D01*
X13130409Y-8316419D02*
X13139933Y-8297371D01*
X13139933Y-8297371D02*
X13149457Y-8287848D01*
X13149457Y-8287848D02*
X13168505Y-8278324D01*
X13358981Y-8278324D02*
X13378029Y-8278324D01*
X13378029Y-8278324D02*
X13397076Y-8287848D01*
X13397076Y-8287848D02*
X13406600Y-8297371D01*
X13406600Y-8297371D02*
X13416124Y-8316419D01*
X13416124Y-8316419D02*
X13425648Y-8354514D01*
X13425648Y-8354514D02*
X13425648Y-8402133D01*
X13425648Y-8402133D02*
X13416124Y-8440229D01*
X13416124Y-8440229D02*
X13406600Y-8459276D01*
X13406600Y-8459276D02*
X13397076Y-8468800D01*
X13397076Y-8468800D02*
X13378029Y-8478324D01*
X13378029Y-8478324D02*
X13358981Y-8478324D01*
X13358981Y-8478324D02*
X13339933Y-8468800D01*
X13339933Y-8468800D02*
X13330409Y-8459276D01*
X13330409Y-8459276D02*
X13320886Y-8440229D01*
X13320886Y-8440229D02*
X13311362Y-8402133D01*
X13311362Y-8402133D02*
X13311362Y-8354514D01*
X13311362Y-8354514D02*
X13320886Y-8316419D01*
X13320886Y-8316419D02*
X13330409Y-8297371D01*
X13330409Y-8297371D02*
X13339933Y-8287848D01*
X13339933Y-8287848D02*
X13358981Y-8278324D01*
X13511362Y-8478324D02*
X13511362Y-8344990D01*
X13511362Y-8364038D02*
X13520886Y-8354514D01*
X13520886Y-8354514D02*
X13539933Y-8344990D01*
X13539933Y-8344990D02*
X13568505Y-8344990D01*
X13568505Y-8344990D02*
X13587552Y-8354514D01*
X13587552Y-8354514D02*
X13597076Y-8373562D01*
X13597076Y-8373562D02*
X13597076Y-8478324D01*
X13597076Y-8373562D02*
X13606600Y-8354514D01*
X13606600Y-8354514D02*
X13625648Y-8344990D01*
X13625648Y-8344990D02*
X13654219Y-8344990D01*
X13654219Y-8344990D02*
X13673267Y-8354514D01*
X13673267Y-8354514D02*
X13682790Y-8373562D01*
X13682790Y-8373562D02*
X13682790Y-8478324D01*
X13778029Y-8478324D02*
X13778029Y-8344990D01*
X13778029Y-8364038D02*
X13787552Y-8354514D01*
X13787552Y-8354514D02*
X13806600Y-8344990D01*
X13806600Y-8344990D02*
X13835171Y-8344990D01*
X13835171Y-8344990D02*
X13854219Y-8354514D01*
X13854219Y-8354514D02*
X13863743Y-8373562D01*
X13863743Y-8373562D02*
X13863743Y-8478324D01*
X13863743Y-8373562D02*
X13873267Y-8354514D01*
X13873267Y-8354514D02*
X13892314Y-8344990D01*
X13892314Y-8344990D02*
X13920886Y-8344990D01*
X13920886Y-8344990D02*
X13939933Y-8354514D01*
X13939933Y-8354514D02*
X13949457Y-8373562D01*
X13949457Y-8373562D02*
X13949457Y-8478324D01*
X14339933Y-8268800D02*
X14168505Y-8525943D01*
X14597076Y-8278324D02*
X14616124Y-8278324D01*
X14616124Y-8278324D02*
X14635172Y-8287848D01*
X14635172Y-8287848D02*
X14644695Y-8297371D01*
X14644695Y-8297371D02*
X14654219Y-8316419D01*
X14654219Y-8316419D02*
X14663743Y-8354514D01*
X14663743Y-8354514D02*
X14663743Y-8402133D01*
X14663743Y-8402133D02*
X14654219Y-8440229D01*
X14654219Y-8440229D02*
X14644695Y-8459276D01*
X14644695Y-8459276D02*
X14635172Y-8468800D01*
X14635172Y-8468800D02*
X14616124Y-8478324D01*
X14616124Y-8478324D02*
X14597076Y-8478324D01*
X14597076Y-8478324D02*
X14578029Y-8468800D01*
X14578029Y-8468800D02*
X14568505Y-8459276D01*
X14568505Y-8459276D02*
X14558981Y-8440229D01*
X14558981Y-8440229D02*
X14549457Y-8402133D01*
X14549457Y-8402133D02*
X14549457Y-8354514D01*
X14549457Y-8354514D02*
X14558981Y-8316419D01*
X14558981Y-8316419D02*
X14568505Y-8297371D01*
X14568505Y-8297371D02*
X14578029Y-8287848D01*
X14578029Y-8287848D02*
X14597076Y-8278324D01*
X14749457Y-8459276D02*
X14758981Y-8468800D01*
X14758981Y-8468800D02*
X14749457Y-8478324D01*
X14749457Y-8478324D02*
X14739933Y-8468800D01*
X14739933Y-8468800D02*
X14749457Y-8459276D01*
X14749457Y-8459276D02*
X14749457Y-8478324D01*
X14882791Y-8278324D02*
X14901838Y-8278324D01*
X14901838Y-8278324D02*
X14920886Y-8287848D01*
X14920886Y-8287848D02*
X14930410Y-8297371D01*
X14930410Y-8297371D02*
X14939933Y-8316419D01*
X14939933Y-8316419D02*
X14949457Y-8354514D01*
X14949457Y-8354514D02*
X14949457Y-8402133D01*
X14949457Y-8402133D02*
X14939933Y-8440229D01*
X14939933Y-8440229D02*
X14930410Y-8459276D01*
X14930410Y-8459276D02*
X14920886Y-8468800D01*
X14920886Y-8468800D02*
X14901838Y-8478324D01*
X14901838Y-8478324D02*
X14882791Y-8478324D01*
X14882791Y-8478324D02*
X14863743Y-8468800D01*
X14863743Y-8468800D02*
X14854219Y-8459276D01*
X14854219Y-8459276D02*
X14844695Y-8440229D01*
X14844695Y-8440229D02*
X14835172Y-8402133D01*
X14835172Y-8402133D02*
X14835172Y-8354514D01*
X14835172Y-8354514D02*
X14844695Y-8316419D01*
X14844695Y-8316419D02*
X14854219Y-8297371D01*
X14854219Y-8297371D02*
X14863743Y-8287848D01*
X14863743Y-8287848D02*
X14882791Y-8278324D01*
X15139933Y-8478324D02*
X15025648Y-8478324D01*
X15082791Y-8478324D02*
X15082791Y-8278324D01*
X15082791Y-8278324D02*
X15063743Y-8306895D01*
X15063743Y-8306895D02*
X15044695Y-8325943D01*
X15044695Y-8325943D02*
X15025648Y-8335467D01*
X15320886Y-8278324D02*
X15225648Y-8278324D01*
X15225648Y-8278324D02*
X15216124Y-8373562D01*
X15216124Y-8373562D02*
X15225648Y-8364038D01*
X15225648Y-8364038D02*
X15244695Y-8354514D01*
X15244695Y-8354514D02*
X15292314Y-8354514D01*
X15292314Y-8354514D02*
X15311362Y-8364038D01*
X15311362Y-8364038D02*
X15320886Y-8373562D01*
X15320886Y-8373562D02*
X15330410Y-8392610D01*
X15330410Y-8392610D02*
X15330410Y-8440229D01*
X15330410Y-8440229D02*
X15320886Y-8459276D01*
X15320886Y-8459276D02*
X15311362Y-8468800D01*
X15311362Y-8468800D02*
X15292314Y-8478324D01*
X15292314Y-8478324D02*
X15244695Y-8478324D01*
X15244695Y-8478324D02*
X15225648Y-8468800D01*
X15225648Y-8468800D02*
X15216124Y-8459276D01*
X15397076Y-8278324D02*
X15530410Y-8278324D01*
X15530410Y-8278324D02*
X15444695Y-8478324D01*
X15597076Y-8278324D02*
X15597076Y-8316419D01*
X15673267Y-8278324D02*
X15673267Y-8316419D01*
X15968505Y-8554514D02*
X15958981Y-8544990D01*
X15958981Y-8544990D02*
X15939934Y-8516419D01*
X15939934Y-8516419D02*
X15930410Y-8497371D01*
X15930410Y-8497371D02*
X15920886Y-8468800D01*
X15920886Y-8468800D02*
X15911362Y-8421181D01*
X15911362Y-8421181D02*
X15911362Y-8383086D01*
X15911362Y-8383086D02*
X15920886Y-8335467D01*
X15920886Y-8335467D02*
X15930410Y-8306895D01*
X15930410Y-8306895D02*
X15939934Y-8287848D01*
X15939934Y-8287848D02*
X15958981Y-8259276D01*
X15958981Y-8259276D02*
X15968505Y-8249752D01*
X16073267Y-8364038D02*
X16054219Y-8354514D01*
X16054219Y-8354514D02*
X16044695Y-8344990D01*
X16044695Y-8344990D02*
X16035172Y-8325943D01*
X16035172Y-8325943D02*
X16035172Y-8316419D01*
X16035172Y-8316419D02*
X16044695Y-8297371D01*
X16044695Y-8297371D02*
X16054219Y-8287848D01*
X16054219Y-8287848D02*
X16073267Y-8278324D01*
X16073267Y-8278324D02*
X16111362Y-8278324D01*
X16111362Y-8278324D02*
X16130410Y-8287848D01*
X16130410Y-8287848D02*
X16139934Y-8297371D01*
X16139934Y-8297371D02*
X16149457Y-8316419D01*
X16149457Y-8316419D02*
X16149457Y-8325943D01*
X16149457Y-8325943D02*
X16139934Y-8344990D01*
X16139934Y-8344990D02*
X16130410Y-8354514D01*
X16130410Y-8354514D02*
X16111362Y-8364038D01*
X16111362Y-8364038D02*
X16073267Y-8364038D01*
X16073267Y-8364038D02*
X16054219Y-8373562D01*
X16054219Y-8373562D02*
X16044695Y-8383086D01*
X16044695Y-8383086D02*
X16035172Y-8402133D01*
X16035172Y-8402133D02*
X16035172Y-8440229D01*
X16035172Y-8440229D02*
X16044695Y-8459276D01*
X16044695Y-8459276D02*
X16054219Y-8468800D01*
X16054219Y-8468800D02*
X16073267Y-8478324D01*
X16073267Y-8478324D02*
X16111362Y-8478324D01*
X16111362Y-8478324D02*
X16130410Y-8468800D01*
X16130410Y-8468800D02*
X16139934Y-8459276D01*
X16139934Y-8459276D02*
X16149457Y-8440229D01*
X16149457Y-8440229D02*
X16149457Y-8402133D01*
X16149457Y-8402133D02*
X16139934Y-8383086D01*
X16139934Y-8383086D02*
X16130410Y-8373562D01*
X16130410Y-8373562D02*
X16111362Y-8364038D01*
X16320886Y-8344990D02*
X16320886Y-8478324D01*
X16273267Y-8268800D02*
X16225648Y-8411657D01*
X16225648Y-8411657D02*
X16349457Y-8411657D01*
X16578029Y-8478324D02*
X16578029Y-8278324D01*
X16663743Y-8478324D02*
X16663743Y-8373562D01*
X16663743Y-8373562D02*
X16654219Y-8354514D01*
X16654219Y-8354514D02*
X16635172Y-8344990D01*
X16635172Y-8344990D02*
X16606600Y-8344990D01*
X16606600Y-8344990D02*
X16587553Y-8354514D01*
X16587553Y-8354514D02*
X16578029Y-8364038D01*
X16787553Y-8478324D02*
X16768505Y-8468800D01*
X16768505Y-8468800D02*
X16758981Y-8459276D01*
X16758981Y-8459276D02*
X16749457Y-8440229D01*
X16749457Y-8440229D02*
X16749457Y-8383086D01*
X16749457Y-8383086D02*
X16758981Y-8364038D01*
X16758981Y-8364038D02*
X16768505Y-8354514D01*
X16768505Y-8354514D02*
X16787553Y-8344990D01*
X16787553Y-8344990D02*
X16816124Y-8344990D01*
X16816124Y-8344990D02*
X16835172Y-8354514D01*
X16835172Y-8354514D02*
X16844696Y-8364038D01*
X16844696Y-8364038D02*
X16854219Y-8383086D01*
X16854219Y-8383086D02*
X16854219Y-8440229D01*
X16854219Y-8440229D02*
X16844696Y-8459276D01*
X16844696Y-8459276D02*
X16835172Y-8468800D01*
X16835172Y-8468800D02*
X16816124Y-8478324D01*
X16816124Y-8478324D02*
X16787553Y-8478324D01*
X16968505Y-8478324D02*
X16949458Y-8468800D01*
X16949458Y-8468800D02*
X16939934Y-8449752D01*
X16939934Y-8449752D02*
X16939934Y-8278324D01*
X17120886Y-8468800D02*
X17101839Y-8478324D01*
X17101839Y-8478324D02*
X17063743Y-8478324D01*
X17063743Y-8478324D02*
X17044696Y-8468800D01*
X17044696Y-8468800D02*
X17035172Y-8449752D01*
X17035172Y-8449752D02*
X17035172Y-8373562D01*
X17035172Y-8373562D02*
X17044696Y-8354514D01*
X17044696Y-8354514D02*
X17063743Y-8344990D01*
X17063743Y-8344990D02*
X17101839Y-8344990D01*
X17101839Y-8344990D02*
X17120886Y-8354514D01*
X17120886Y-8354514D02*
X17130410Y-8373562D01*
X17130410Y-8373562D02*
X17130410Y-8392610D01*
X17130410Y-8392610D02*
X17035172Y-8411657D01*
X17206600Y-8468800D02*
X17225648Y-8478324D01*
X17225648Y-8478324D02*
X17263743Y-8478324D01*
X17263743Y-8478324D02*
X17282791Y-8468800D01*
X17282791Y-8468800D02*
X17292315Y-8449752D01*
X17292315Y-8449752D02*
X17292315Y-8440229D01*
X17292315Y-8440229D02*
X17282791Y-8421181D01*
X17282791Y-8421181D02*
X17263743Y-8411657D01*
X17263743Y-8411657D02*
X17235172Y-8411657D01*
X17235172Y-8411657D02*
X17216124Y-8402133D01*
X17216124Y-8402133D02*
X17206600Y-8383086D01*
X17206600Y-8383086D02*
X17206600Y-8373562D01*
X17206600Y-8373562D02*
X17216124Y-8354514D01*
X17216124Y-8354514D02*
X17235172Y-8344990D01*
X17235172Y-8344990D02*
X17263743Y-8344990D01*
X17263743Y-8344990D02*
X17282791Y-8354514D01*
X17358981Y-8554514D02*
X17368505Y-8544990D01*
X17368505Y-8544990D02*
X17387553Y-8516419D01*
X17387553Y-8516419D02*
X17397077Y-8497371D01*
X17397077Y-8497371D02*
X17406600Y-8468800D01*
X17406600Y-8468800D02*
X17416124Y-8421181D01*
X17416124Y-8421181D02*
X17416124Y-8383086D01*
X17416124Y-8383086D02*
X17406600Y-8335467D01*
X17406600Y-8335467D02*
X17397077Y-8306895D01*
X17397077Y-8306895D02*
X17387553Y-8287848D01*
X17387553Y-8287848D02*
X17368505Y-8259276D01*
X17368505Y-8259276D02*
X17358981Y-8249752D01*
D10*
X12406600Y-8649800D02*
G75*
G03*
X12406600Y-8649800I-50000J0D01*
G01*
D11*
X12758981Y-8742324D02*
X12644695Y-8742324D01*
X12701838Y-8742324D02*
X12701838Y-8542324D01*
X12701838Y-8542324D02*
X12682790Y-8570895D01*
X12682790Y-8570895D02*
X12663743Y-8589943D01*
X12663743Y-8589943D02*
X12644695Y-8599467D01*
X12844695Y-8723276D02*
X12854219Y-8732800D01*
X12854219Y-8732800D02*
X12844695Y-8742324D01*
X12844695Y-8742324D02*
X12835171Y-8732800D01*
X12835171Y-8732800D02*
X12844695Y-8723276D01*
X12844695Y-8723276D02*
X12844695Y-8742324D01*
X12978028Y-8542324D02*
X12997076Y-8542324D01*
X12997076Y-8542324D02*
X13016124Y-8551848D01*
X13016124Y-8551848D02*
X13025648Y-8561371D01*
X13025648Y-8561371D02*
X13035171Y-8580419D01*
X13035171Y-8580419D02*
X13044695Y-8618514D01*
X13044695Y-8618514D02*
X13044695Y-8666133D01*
X13044695Y-8666133D02*
X13035171Y-8704229D01*
X13035171Y-8704229D02*
X13025648Y-8723276D01*
X13025648Y-8723276D02*
X13016124Y-8732800D01*
X13016124Y-8732800D02*
X12997076Y-8742324D01*
X12997076Y-8742324D02*
X12978028Y-8742324D01*
X12978028Y-8742324D02*
X12958981Y-8732800D01*
X12958981Y-8732800D02*
X12949457Y-8723276D01*
X12949457Y-8723276D02*
X12939933Y-8704229D01*
X12939933Y-8704229D02*
X12930409Y-8666133D01*
X12930409Y-8666133D02*
X12930409Y-8618514D01*
X12930409Y-8618514D02*
X12939933Y-8580419D01*
X12939933Y-8580419D02*
X12949457Y-8561371D01*
X12949457Y-8561371D02*
X12958981Y-8551848D01*
X12958981Y-8551848D02*
X12978028Y-8542324D01*
X13168505Y-8542324D02*
X13187552Y-8542324D01*
X13187552Y-8542324D02*
X13206600Y-8551848D01*
X13206600Y-8551848D02*
X13216124Y-8561371D01*
X13216124Y-8561371D02*
X13225648Y-8580419D01*
X13225648Y-8580419D02*
X13235171Y-8618514D01*
X13235171Y-8618514D02*
X13235171Y-8666133D01*
X13235171Y-8666133D02*
X13225648Y-8704229D01*
X13225648Y-8704229D02*
X13216124Y-8723276D01*
X13216124Y-8723276D02*
X13206600Y-8732800D01*
X13206600Y-8732800D02*
X13187552Y-8742324D01*
X13187552Y-8742324D02*
X13168505Y-8742324D01*
X13168505Y-8742324D02*
X13149457Y-8732800D01*
X13149457Y-8732800D02*
X13139933Y-8723276D01*
X13139933Y-8723276D02*
X13130409Y-8704229D01*
X13130409Y-8704229D02*
X13120886Y-8666133D01*
X13120886Y-8666133D02*
X13120886Y-8618514D01*
X13120886Y-8618514D02*
X13130409Y-8580419D01*
X13130409Y-8580419D02*
X13139933Y-8561371D01*
X13139933Y-8561371D02*
X13149457Y-8551848D01*
X13149457Y-8551848D02*
X13168505Y-8542324D01*
X13358981Y-8542324D02*
X13378029Y-8542324D01*
X13378029Y-8542324D02*
X13397076Y-8551848D01*
X13397076Y-8551848D02*
X13406600Y-8561371D01*
X13406600Y-8561371D02*
X13416124Y-8580419D01*
X13416124Y-8580419D02*
X13425648Y-8618514D01*
X13425648Y-8618514D02*
X13425648Y-8666133D01*
X13425648Y-8666133D02*
X13416124Y-8704229D01*
X13416124Y-8704229D02*
X13406600Y-8723276D01*
X13406600Y-8723276D02*
X13397076Y-8732800D01*
X13397076Y-8732800D02*
X13378029Y-8742324D01*
X13378029Y-8742324D02*
X13358981Y-8742324D01*
X13358981Y-8742324D02*
X13339933Y-8732800D01*
X13339933Y-8732800D02*
X13330409Y-8723276D01*
X13330409Y-8723276D02*
X13320886Y-8704229D01*
X13320886Y-8704229D02*
X13311362Y-8666133D01*
X13311362Y-8666133D02*
X13311362Y-8618514D01*
X13311362Y-8618514D02*
X13320886Y-8580419D01*
X13320886Y-8580419D02*
X13330409Y-8561371D01*
X13330409Y-8561371D02*
X13339933Y-8551848D01*
X13339933Y-8551848D02*
X13358981Y-8542324D01*
X13511362Y-8742324D02*
X13511362Y-8608990D01*
X13511362Y-8628038D02*
X13520886Y-8618514D01*
X13520886Y-8618514D02*
X13539933Y-8608990D01*
X13539933Y-8608990D02*
X13568505Y-8608990D01*
X13568505Y-8608990D02*
X13587552Y-8618514D01*
X13587552Y-8618514D02*
X13597076Y-8637562D01*
X13597076Y-8637562D02*
X13597076Y-8742324D01*
X13597076Y-8637562D02*
X13606600Y-8618514D01*
X13606600Y-8618514D02*
X13625648Y-8608990D01*
X13625648Y-8608990D02*
X13654219Y-8608990D01*
X13654219Y-8608990D02*
X13673267Y-8618514D01*
X13673267Y-8618514D02*
X13682790Y-8637562D01*
X13682790Y-8637562D02*
X13682790Y-8742324D01*
X13778029Y-8742324D02*
X13778029Y-8608990D01*
X13778029Y-8628038D02*
X13787552Y-8618514D01*
X13787552Y-8618514D02*
X13806600Y-8608990D01*
X13806600Y-8608990D02*
X13835171Y-8608990D01*
X13835171Y-8608990D02*
X13854219Y-8618514D01*
X13854219Y-8618514D02*
X13863743Y-8637562D01*
X13863743Y-8637562D02*
X13863743Y-8742324D01*
X13863743Y-8637562D02*
X13873267Y-8618514D01*
X13873267Y-8618514D02*
X13892314Y-8608990D01*
X13892314Y-8608990D02*
X13920886Y-8608990D01*
X13920886Y-8608990D02*
X13939933Y-8618514D01*
X13939933Y-8618514D02*
X13949457Y-8637562D01*
X13949457Y-8637562D02*
X13949457Y-8742324D01*
X14339933Y-8532800D02*
X14168505Y-8789943D01*
X14597076Y-8542324D02*
X14616124Y-8542324D01*
X14616124Y-8542324D02*
X14635172Y-8551848D01*
X14635172Y-8551848D02*
X14644695Y-8561371D01*
X14644695Y-8561371D02*
X14654219Y-8580419D01*
X14654219Y-8580419D02*
X14663743Y-8618514D01*
X14663743Y-8618514D02*
X14663743Y-8666133D01*
X14663743Y-8666133D02*
X14654219Y-8704229D01*
X14654219Y-8704229D02*
X14644695Y-8723276D01*
X14644695Y-8723276D02*
X14635172Y-8732800D01*
X14635172Y-8732800D02*
X14616124Y-8742324D01*
X14616124Y-8742324D02*
X14597076Y-8742324D01*
X14597076Y-8742324D02*
X14578029Y-8732800D01*
X14578029Y-8732800D02*
X14568505Y-8723276D01*
X14568505Y-8723276D02*
X14558981Y-8704229D01*
X14558981Y-8704229D02*
X14549457Y-8666133D01*
X14549457Y-8666133D02*
X14549457Y-8618514D01*
X14549457Y-8618514D02*
X14558981Y-8580419D01*
X14558981Y-8580419D02*
X14568505Y-8561371D01*
X14568505Y-8561371D02*
X14578029Y-8551848D01*
X14578029Y-8551848D02*
X14597076Y-8542324D01*
X14749457Y-8723276D02*
X14758981Y-8732800D01*
X14758981Y-8732800D02*
X14749457Y-8742324D01*
X14749457Y-8742324D02*
X14739933Y-8732800D01*
X14739933Y-8732800D02*
X14749457Y-8723276D01*
X14749457Y-8723276D02*
X14749457Y-8742324D01*
X14882791Y-8542324D02*
X14901838Y-8542324D01*
X14901838Y-8542324D02*
X14920886Y-8551848D01*
X14920886Y-8551848D02*
X14930410Y-8561371D01*
X14930410Y-8561371D02*
X14939933Y-8580419D01*
X14939933Y-8580419D02*
X14949457Y-8618514D01*
X14949457Y-8618514D02*
X14949457Y-8666133D01*
X14949457Y-8666133D02*
X14939933Y-8704229D01*
X14939933Y-8704229D02*
X14930410Y-8723276D01*
X14930410Y-8723276D02*
X14920886Y-8732800D01*
X14920886Y-8732800D02*
X14901838Y-8742324D01*
X14901838Y-8742324D02*
X14882791Y-8742324D01*
X14882791Y-8742324D02*
X14863743Y-8732800D01*
X14863743Y-8732800D02*
X14854219Y-8723276D01*
X14854219Y-8723276D02*
X14844695Y-8704229D01*
X14844695Y-8704229D02*
X14835172Y-8666133D01*
X14835172Y-8666133D02*
X14835172Y-8618514D01*
X14835172Y-8618514D02*
X14844695Y-8580419D01*
X14844695Y-8580419D02*
X14854219Y-8561371D01*
X14854219Y-8561371D02*
X14863743Y-8551848D01*
X14863743Y-8551848D02*
X14882791Y-8542324D01*
X15016124Y-8542324D02*
X15139933Y-8542324D01*
X15139933Y-8542324D02*
X15073267Y-8618514D01*
X15073267Y-8618514D02*
X15101838Y-8618514D01*
X15101838Y-8618514D02*
X15120886Y-8628038D01*
X15120886Y-8628038D02*
X15130410Y-8637562D01*
X15130410Y-8637562D02*
X15139933Y-8656610D01*
X15139933Y-8656610D02*
X15139933Y-8704229D01*
X15139933Y-8704229D02*
X15130410Y-8723276D01*
X15130410Y-8723276D02*
X15120886Y-8732800D01*
X15120886Y-8732800D02*
X15101838Y-8742324D01*
X15101838Y-8742324D02*
X15044695Y-8742324D01*
X15044695Y-8742324D02*
X15025648Y-8732800D01*
X15025648Y-8732800D02*
X15016124Y-8723276D01*
X15235172Y-8742324D02*
X15273267Y-8742324D01*
X15273267Y-8742324D02*
X15292314Y-8732800D01*
X15292314Y-8732800D02*
X15301838Y-8723276D01*
X15301838Y-8723276D02*
X15320886Y-8694705D01*
X15320886Y-8694705D02*
X15330410Y-8656610D01*
X15330410Y-8656610D02*
X15330410Y-8580419D01*
X15330410Y-8580419D02*
X15320886Y-8561371D01*
X15320886Y-8561371D02*
X15311362Y-8551848D01*
X15311362Y-8551848D02*
X15292314Y-8542324D01*
X15292314Y-8542324D02*
X15254219Y-8542324D01*
X15254219Y-8542324D02*
X15235172Y-8551848D01*
X15235172Y-8551848D02*
X15225648Y-8561371D01*
X15225648Y-8561371D02*
X15216124Y-8580419D01*
X15216124Y-8580419D02*
X15216124Y-8628038D01*
X15216124Y-8628038D02*
X15225648Y-8647086D01*
X15225648Y-8647086D02*
X15235172Y-8656610D01*
X15235172Y-8656610D02*
X15254219Y-8666133D01*
X15254219Y-8666133D02*
X15292314Y-8666133D01*
X15292314Y-8666133D02*
X15311362Y-8656610D01*
X15311362Y-8656610D02*
X15320886Y-8647086D01*
X15320886Y-8647086D02*
X15330410Y-8628038D01*
X15501838Y-8608990D02*
X15501838Y-8742324D01*
X15454219Y-8532800D02*
X15406600Y-8675657D01*
X15406600Y-8675657D02*
X15530410Y-8675657D01*
X15597076Y-8542324D02*
X15597076Y-8580419D01*
X15673267Y-8542324D02*
X15673267Y-8580419D01*
X15968505Y-8818514D02*
X15958981Y-8808990D01*
X15958981Y-8808990D02*
X15939934Y-8780419D01*
X15939934Y-8780419D02*
X15930410Y-8761371D01*
X15930410Y-8761371D02*
X15920886Y-8732800D01*
X15920886Y-8732800D02*
X15911362Y-8685181D01*
X15911362Y-8685181D02*
X15911362Y-8647086D01*
X15911362Y-8647086D02*
X15920886Y-8599467D01*
X15920886Y-8599467D02*
X15930410Y-8570895D01*
X15930410Y-8570895D02*
X15939934Y-8551848D01*
X15939934Y-8551848D02*
X15958981Y-8523276D01*
X15958981Y-8523276D02*
X15968505Y-8513752D01*
X16035172Y-8561371D02*
X16044695Y-8551848D01*
X16044695Y-8551848D02*
X16063743Y-8542324D01*
X16063743Y-8542324D02*
X16111362Y-8542324D01*
X16111362Y-8542324D02*
X16130410Y-8551848D01*
X16130410Y-8551848D02*
X16139934Y-8561371D01*
X16139934Y-8561371D02*
X16149457Y-8580419D01*
X16149457Y-8580419D02*
X16149457Y-8599467D01*
X16149457Y-8599467D02*
X16139934Y-8628038D01*
X16139934Y-8628038D02*
X16025648Y-8742324D01*
X16025648Y-8742324D02*
X16149457Y-8742324D01*
X16320886Y-8608990D02*
X16320886Y-8742324D01*
X16273267Y-8532800D02*
X16225648Y-8675657D01*
X16225648Y-8675657D02*
X16349457Y-8675657D01*
X16578029Y-8742324D02*
X16578029Y-8542324D01*
X16663743Y-8742324D02*
X16663743Y-8637562D01*
X16663743Y-8637562D02*
X16654219Y-8618514D01*
X16654219Y-8618514D02*
X16635172Y-8608990D01*
X16635172Y-8608990D02*
X16606600Y-8608990D01*
X16606600Y-8608990D02*
X16587553Y-8618514D01*
X16587553Y-8618514D02*
X16578029Y-8628038D01*
X16787553Y-8742324D02*
X16768505Y-8732800D01*
X16768505Y-8732800D02*
X16758981Y-8723276D01*
X16758981Y-8723276D02*
X16749457Y-8704229D01*
X16749457Y-8704229D02*
X16749457Y-8647086D01*
X16749457Y-8647086D02*
X16758981Y-8628038D01*
X16758981Y-8628038D02*
X16768505Y-8618514D01*
X16768505Y-8618514D02*
X16787553Y-8608990D01*
X16787553Y-8608990D02*
X16816124Y-8608990D01*
X16816124Y-8608990D02*
X16835172Y-8618514D01*
X16835172Y-8618514D02*
X16844696Y-8628038D01*
X16844696Y-8628038D02*
X16854219Y-8647086D01*
X16854219Y-8647086D02*
X16854219Y-8704229D01*
X16854219Y-8704229D02*
X16844696Y-8723276D01*
X16844696Y-8723276D02*
X16835172Y-8732800D01*
X16835172Y-8732800D02*
X16816124Y-8742324D01*
X16816124Y-8742324D02*
X16787553Y-8742324D01*
X16968505Y-8742324D02*
X16949458Y-8732800D01*
X16949458Y-8732800D02*
X16939934Y-8713752D01*
X16939934Y-8713752D02*
X16939934Y-8542324D01*
X17120886Y-8732800D02*
X17101839Y-8742324D01*
X17101839Y-8742324D02*
X17063743Y-8742324D01*
X17063743Y-8742324D02*
X17044696Y-8732800D01*
X17044696Y-8732800D02*
X17035172Y-8713752D01*
X17035172Y-8713752D02*
X17035172Y-8637562D01*
X17035172Y-8637562D02*
X17044696Y-8618514D01*
X17044696Y-8618514D02*
X17063743Y-8608990D01*
X17063743Y-8608990D02*
X17101839Y-8608990D01*
X17101839Y-8608990D02*
X17120886Y-8618514D01*
X17120886Y-8618514D02*
X17130410Y-8637562D01*
X17130410Y-8637562D02*
X17130410Y-8656610D01*
X17130410Y-8656610D02*
X17035172Y-8675657D01*
X17206600Y-8732800D02*
X17225648Y-8742324D01*
X17225648Y-8742324D02*
X17263743Y-8742324D01*
X17263743Y-8742324D02*
X17282791Y-8732800D01*
X17282791Y-8732800D02*
X17292315Y-8713752D01*
X17292315Y-8713752D02*
X17292315Y-8704229D01*
X17292315Y-8704229D02*
X17282791Y-8685181D01*
X17282791Y-8685181D02*
X17263743Y-8675657D01*
X17263743Y-8675657D02*
X17235172Y-8675657D01*
X17235172Y-8675657D02*
X17216124Y-8666133D01*
X17216124Y-8666133D02*
X17206600Y-8647086D01*
X17206600Y-8647086D02*
X17206600Y-8637562D01*
X17206600Y-8637562D02*
X17216124Y-8618514D01*
X17216124Y-8618514D02*
X17235172Y-8608990D01*
X17235172Y-8608990D02*
X17263743Y-8608990D01*
X17263743Y-8608990D02*
X17282791Y-8618514D01*
X17358981Y-8818514D02*
X17368505Y-8808990D01*
X17368505Y-8808990D02*
X17387553Y-8780419D01*
X17387553Y-8780419D02*
X17397077Y-8761371D01*
X17397077Y-8761371D02*
X17406600Y-8732800D01*
X17406600Y-8732800D02*
X17416124Y-8685181D01*
X17416124Y-8685181D02*
X17416124Y-8647086D01*
X17416124Y-8647086D02*
X17406600Y-8599467D01*
X17406600Y-8599467D02*
X17397077Y-8570895D01*
X17397077Y-8570895D02*
X17387553Y-8551848D01*
X17387553Y-8551848D02*
X17368505Y-8523276D01*
X17368505Y-8523276D02*
X17358981Y-8513752D01*
M02*
